<?xml version="1.0" encoding="UTF-8" standalone="no"?>
<!DOCTYPE svg PUBLIC "-//W3C//DTD SVG 1.1//EN"
 "http://www.w3.org/Graphics/SVG/1.1/DTD/svg11.dtd">
<!-- Generated by graphviz version 2.28.0 (20110507.0327)
 -->
<!-- Title: G Pages: 1 -->
<svg width="808pt" height="2326pt"
 viewBox="0.00 0.00 808.00 2326.00" xmlns="http://www.w3.org/2000/svg" xmlns:xlink="http://www.w3.org/1999/xlink">
<g id="graph1" class="graph" transform="scale(1 1) rotate(0) translate(4 2322)">
<title>G</title>
<polygon fill="white" stroke="white" points="-4,5 -4,-2322 805,-2322 805,5 -4,5"/>
<g id="graph2" class="cluster"><title>cluster_default</title>
<polyline fill="none" stroke="none" points="204,-260 780,-260 "/>
<path fill="none" stroke="none" d="M780,-260C786,-260 792,-266 792,-272"/>
<polyline fill="none" stroke="none" points="792,-272 792,-2298 "/>
<path fill="none" stroke="none" d="M792,-2298C792,-2304 786,-2310 780,-2310"/>
<polyline fill="none" stroke="none" points="780,-2310 204,-2310 "/>
<path fill="none" stroke="none" d="M204,-2310C198,-2310 192,-2304 192,-2298"/>
<polyline fill="none" stroke="none" points="192,-2298 192,-272 "/>
<path fill="none" stroke="none" d="M192,-272C192,-266 198,-260 204,-260"/>
</g>
<!-- \\Daysout -->
<g id="node2" class="node"><title>\\Daysout</title>
<a xlink:href="controllers.addon.daysout.html" xlink:title="Daysout" target="_parent">
<polygon fill="none" stroke="black" points="470,-2302 406,-2302 406,-2266 470,-2266 470,-2302"/>
<text text-anchor="middle" x="438" y="-2281.2" font-family="Courier,monospace" font-size="11.00">Daysout</text>
</a>
</g>
<!-- \\MY_Controller -->
<g id="node21" class="node"><title>\\MY_Controller</title>
<a xlink:href="core.MY_Controller.html" xlink:title="MY_Controller" target="_parent">
<polygon fill="none" stroke="black" points="304,-2086 200,-2086 200,-2050 304,-2050 304,-2086"/>
<text text-anchor="middle" x="252" y="-2065.2" font-family="Courier,monospace" font-size="11.00">MY_Controller</text>
</a>
</g>
<!-- \\Daysout&#45;&gt;\\MY_Controller -->
<g id="edge3" class="edge"><title>\\Daysout&#45;&gt;\\MY_Controller</title>
<path fill="none" stroke="black" d="M405.849,-2274.25C395.607,-2270.04 384.642,-2264.36 376,-2257 322.024,-2211.05 282.869,-2135.55 264.571,-2095.29"/>
<polygon fill="none" stroke="black" points="267.739,-2093.79 260.474,-2086.08 261.344,-2096.64 267.739,-2093.79"/>
</g>
<!-- \\Statements -->
<g id="node3" class="node"><title>\\Statements</title>
<a xlink:href="controllers.addon.statements.html" xlink:title="Statements" target="_parent">
<polygon fill="none" stroke="black" points="480,-2248 396,-2248 396,-2212 480,-2212 480,-2248"/>
<text text-anchor="middle" x="438" y="-2227.2" font-family="Courier,monospace" font-size="11.00">Statements</text>
</a>
</g>
<!-- \\Statements&#45;&gt;\\MY_Controller -->
<g id="edge5" class="edge"><title>\\Statements&#45;&gt;\\MY_Controller</title>
<path fill="none" stroke="black" d="M395.68,-2214.53C388.833,-2211.19 382.014,-2207.33 376,-2203 333.151,-2172.13 293.992,-2124.28 271.86,-2094.62"/>
<polygon fill="none" stroke="black" points="274.56,-2092.38 265.816,-2086.4 268.92,-2096.53 274.56,-2092.38"/>
</g>
<!-- \\Admin -->
<g id="node4" class="node"><title>\\Admin</title>
<a xlink:href="controllers.admin.html" xlink:title="Admin" target="_parent">
<polygon fill="none" stroke="black" points="705,-1978 651,-1978 651,-1942 705,-1942 705,-1978"/>
<text text-anchor="middle" x="678" y="-1957.2" font-family="Courier,monospace" font-size="11.00">Admin</text>
</a>
</g>
<!-- \\CI_Controller -->
<g id="node52" class="node"><title>\\CI_Controller</title>
<ellipse fill="none" stroke="black" cx="64" cy="-1964" rx="63.8893" ry="18"/>
<text text-anchor="middle" x="64" y="-1960.3" font-family="Times New Roman,serif" font-size="14.00" fill="gray">\CI_Controller</text>
</g>
<!-- \\Admin&#45;&gt;\\CI_Controller -->
<g id="edge7" class="edge"><title>\\Admin&#45;&gt;\\CI_Controller</title>
<path fill="none" stroke="black" d="M650.993,-1956.23C629.126,-1952.39 597.452,-1945.22 572,-1933 535.94,-1915.69 535.613,-1897.21 500,-1879 474.718,-1866.07 467.374,-1861.12 439,-1860"/>
</g>
<!-- \\Articles -->
<g id="node5" class="node"><title>\\Articles</title>
<a xlink:href="controllers.articles.html" xlink:title="Articles" target="_parent">
<polygon fill="none" stroke="black" points="473.5,-2032 402.5,-2032 402.5,-1996 473.5,-1996 473.5,-2032"/>
<text text-anchor="middle" x="438" y="-2011.2" font-family="Courier,monospace" font-size="11.00">Articles</text>
</a>
</g>
<!-- \\Articles&#45;&gt;\\MY_Controller -->
<g id="edge9" class="edge"><title>\\Articles&#45;&gt;\\MY_Controller</title>
<path fill="none" stroke="black" d="M402.391,-2024.16C377.512,-2031.46 343.311,-2041.5 313.91,-2050.12"/>
<polygon fill="none" stroke="black" points="312.753,-2046.82 304.143,-2052.99 314.724,-2053.53 312.753,-2046.82"/>
</g>
<!-- \\Calendar -->
<g id="node6" class="node"><title>\\Calendar</title>
<a xlink:href="controllers.calendar.html" xlink:title="Calendar" target="_parent">
<polygon fill="none" stroke="black" points="713.5,-2086 642.5,-2086 642.5,-2050 713.5,-2050 713.5,-2086"/>
<text text-anchor="middle" x="678" y="-2065.2" font-family="Courier,monospace" font-size="11.00">Calendar</text>
</a>
</g>
<!-- \\Calendar&#45;&gt;\\Articles -->
<g id="edge11" class="edge"><title>\\Calendar&#45;&gt;\\Articles</title>
<path fill="none" stroke="black" d="M642.393,-2060.15C600.442,-2050.63 529.664,-2034.57 483.643,-2024.13"/>
<polygon fill="none" stroke="black" points="484.176,-2020.66 473.649,-2021.86 482.627,-2027.49 484.176,-2020.66"/>
</g>
<!-- \\Comments -->
<g id="node7" class="node"><title>\\Comments</title>
<a xlink:href="controllers.comments.html" xlink:title="Comments" target="_parent">
<polygon fill="none" stroke="black" points="473.5,-2194 402.5,-2194 402.5,-2158 473.5,-2158 473.5,-2194"/>
<text text-anchor="middle" x="438" y="-2173.2" font-family="Courier,monospace" font-size="11.00">Comments</text>
</a>
</g>
<!-- \\Comments&#45;&gt;\\MY_Controller -->
<g id="edge13" class="edge"><title>\\Comments&#45;&gt;\\MY_Controller</title>
<path fill="none" stroke="black" d="M402.32,-2161.84C393.591,-2157.95 384.336,-2153.55 376,-2149 344.417,-2131.77 310.39,-2109 286.15,-2092"/>
<polygon fill="none" stroke="black" points="287.871,-2088.93 277.684,-2086.01 283.83,-2094.65 287.871,-2088.93"/>
</g>
<!-- \\image_object -->
<g id="node8" class="node"><title>\\image_object</title>
<a xlink:href="controllers.images.html" xlink:title="image_object" target="_parent">
<polygon fill="none" stroke="black" points="727,-2194 629,-2194 629,-2158 727,-2158 727,-2194"/>
<text text-anchor="middle" x="678" y="-2173.2" font-family="Courier,monospace" font-size="11.00">image_object</text>
</a>
</g>
<!-- \\Images -->
<g id="node9" class="node"><title>\\Images</title>
<a xlink:href="controllers.images.html" xlink:title="Images" target="_parent">
<polygon fill="none" stroke="black" points="466.5,-2140 409.5,-2140 409.5,-2104 466.5,-2104 466.5,-2140"/>
<text text-anchor="middle" x="438" y="-2119.2" font-family="Courier,monospace" font-size="11.00">Images</text>
</a>
</g>
<!-- \\Images&#45;&gt;\\MY_Controller -->
<g id="edge15" class="edge"><title>\\Images&#45;&gt;\\MY_Controller</title>
<path fill="none" stroke="black" d="M409.453,-2113.92C384.287,-2106.53 346.188,-2095.35 313.889,-2085.87"/>
<polygon fill="none" stroke="black" points="314.653,-2082.45 304.072,-2082.99 312.682,-2089.16 314.653,-2082.45"/>
</g>
<!-- \\Journal -->
<g id="node10" class="node"><title>\\Journal</title>
<a xlink:href="controllers.journal.html" xlink:title="Journal" target="_parent">
<polygon fill="none" stroke="black" points="710,-2032 646,-2032 646,-1996 710,-1996 710,-2032"/>
<text text-anchor="middle" x="678" y="-2011.2" font-family="Courier,monospace" font-size="11.00">Journal</text>
</a>
</g>
<!-- \\Journal&#45;&gt;\\Articles -->
<g id="edge17" class="edge"><title>\\Journal&#45;&gt;\\Articles</title>
<path fill="none" stroke="black" d="M645.886,-2014C604.535,-2014 531.195,-2014 483.863,-2014"/>
<polygon fill="none" stroke="black" points="483.595,-2010.5 473.595,-2014 483.595,-2017.5 483.595,-2010.5"/>
</g>
<!-- \\Login -->
<g id="node11" class="node"><title>\\Login</title>
<a xlink:href="controllers.login.html" xlink:title="Login" target="_parent">
<polygon fill="none" stroke="black" points="705,-1924 651,-1924 651,-1888 705,-1888 705,-1924"/>
<text text-anchor="middle" x="678" y="-1903.2" font-family="Courier,monospace" font-size="11.00">Login</text>
</a>
</g>
<!-- \\Login&#45;&gt;\\CI_Controller -->
<g id="edge19" class="edge"><title>\\Login&#45;&gt;\\CI_Controller</title>
<path fill="none" stroke="black" d="M650.698,-1899.87C597.829,-1887.73 480.21,-1861.63 439,-1860"/>
</g>
<!-- \\Monthly -->
<g id="node12" class="node"><title>\\Monthly</title>
<a xlink:href="controllers.monthly.html" xlink:title="Monthly" target="_parent">
<polygon fill="none" stroke="black" points="710,-2302 646,-2302 646,-2266 710,-2266 710,-2302"/>
<text text-anchor="middle" x="678" y="-2281.2" font-family="Courier,monospace" font-size="11.00">Monthly</text>
</a>
</g>
<!-- \\Monthly&#45;&gt;\\Articles -->
<g id="edge21" class="edge"><title>\\Monthly&#45;&gt;\\Articles</title>
<path fill="none" stroke="black" d="M645.676,-2283.63C622.569,-2281.72 591.825,-2275.48 572,-2257 497.984,-2188 568.078,-2115.87 500,-2041 495.236,-2035.76 489.269,-2031.48 482.944,-2028.01"/>
<polygon fill="none" stroke="black" points="484.049,-2024.66 473.52,-2023.47 481.012,-2030.96 484.049,-2024.66"/>
</g>
<!-- \\Properties -->
<g id="node13" class="node"><title>\\Properties</title>
<a xlink:href="controllers.properties.html" xlink:title="Properties" target="_parent">
<polygon fill="none" stroke="black" points="480,-2086 396,-2086 396,-2050 480,-2050 480,-2086"/>
<text text-anchor="middle" x="438" y="-2065.2" font-family="Courier,monospace" font-size="11.00">Properties</text>
</a>
</g>
<!-- \\Properties&#45;&gt;\\MY_Controller -->
<g id="edge23" class="edge"><title>\\Properties&#45;&gt;\\MY_Controller</title>
<path fill="none" stroke="black" d="M395.707,-2068C371.655,-2068 340.879,-2068 314.069,-2068"/>
<polygon fill="none" stroke="black" points="314.01,-2064.5 304.01,-2068 314.01,-2071.5 314.01,-2064.5"/>
</g>
<!-- \\Proxy -->
<g id="node14" class="node"><title>\\Proxy</title>
<a xlink:href="controllers.proxy.html" xlink:title="Proxy" target="_parent">
<polygon fill="none" stroke="black" points="705,-1870 651,-1870 651,-1834 705,-1834 705,-1870"/>
<text text-anchor="middle" x="678" y="-1849.2" font-family="Courier,monospace" font-size="11.00">Proxy</text>
</a>
</g>
<!-- \\Proxy&#45;&gt;\\CI_Controller -->
<g id="edge25" class="edge"><title>\\Proxy&#45;&gt;\\CI_Controller</title>
<path fill="none" stroke="black" d="M650.935,-1854.12C607.147,-1857.41 516.044,-1863.04 439,-1860"/>
</g>
<!-- \\Search -->
<g id="node15" class="node"><title>\\Search</title>
<a xlink:href="controllers.search.html" xlink:title="Search" target="_parent">
<polygon fill="none" stroke="black" points="706.5,-2248 649.5,-2248 649.5,-2212 706.5,-2212 706.5,-2248"/>
<text text-anchor="middle" x="678" y="-2227.2" font-family="Courier,monospace" font-size="11.00">Search</text>
</a>
</g>
<!-- \\Search&#45;&gt;\\Articles -->
<g id="edge27" class="edge"><title>\\Search&#45;&gt;\\Articles</title>
<path fill="none" stroke="black" d="M649.449,-2229.36C626.331,-2227.45 593.699,-2221.36 572,-2203 511.846,-2152.11 555.756,-2096.67 500,-2041 495.099,-2036.11 489.16,-2032.03 482.934,-2028.65"/>
<polygon fill="none" stroke="black" points="484.223,-2025.38 473.696,-2024.18 481.177,-2031.68 484.223,-2025.38"/>
</g>
<!-- \\Seasonal -->
<g id="node16" class="node"><title>\\Seasonal</title>
<a xlink:href="controllers.seasonal.html" xlink:title="Seasonal" target="_parent">
<polygon fill="none" stroke="black" points="713.5,-2140 642.5,-2140 642.5,-2104 713.5,-2104 713.5,-2140"/>
<text text-anchor="middle" x="678" y="-2119.2" font-family="Courier,monospace" font-size="11.00">Seasonal</text>
</a>
</g>
<!-- \\Seasonal&#45;&gt;\\Articles -->
<g id="edge29" class="edge"><title>\\Seasonal&#45;&gt;\\Articles</title>
<path fill="none" stroke="black" d="M642.244,-2116.61C621.202,-2112.49 594.228,-2105.67 572,-2095 535.94,-2077.69 534.51,-2061.22 500,-2041 494.558,-2037.81 488.67,-2034.76 482.772,-2031.92"/>
<polygon fill="none" stroke="black" points="484.105,-2028.68 473.559,-2027.67 481.169,-2035.04 484.105,-2028.68"/>
</g>
<!-- \\Server -->
<g id="node17" class="node"><title>\\Server</title>
<a xlink:href="controllers.server.html" xlink:title="Server" target="_parent">
<polygon fill="none" stroke="black" points="706.5,-1816 649.5,-1816 649.5,-1780 706.5,-1780 706.5,-1816"/>
<text text-anchor="middle" x="678" y="-1795.2" font-family="Courier,monospace" font-size="11.00">Server</text>
</a>
</g>
<!-- \\Server&#45;&gt;\\CI_Controller -->
<g id="edge31" class="edge"><title>\\Server&#45;&gt;\\CI_Controller</title>
<path fill="none" stroke="black" d="M649.355,-1805.06C628.175,-1810.49 598.231,-1818.18 572,-1825 512.845,-1840.39 500.076,-1862.41 439,-1860"/>
<path fill="none" stroke="black" d="M437,-1860C312.46,-1855.08 172.676,-1912.12 105.427,-1943.75"/>
<polygon fill="none" stroke="black" points="103.564,-1940.76 96.0419,-1948.22 106.575,-1947.08 103.564,-1940.76"/>
</g>
<!-- \\Staticpages -->
<g id="node18" class="node"><title>\\Staticpages</title>
<a xlink:href="controllers.staticpages.html" xlink:title="Staticpages" target="_parent">
<polygon fill="none" stroke="black" points="483.5,-1978 392.5,-1978 392.5,-1942 483.5,-1942 483.5,-1978"/>
<text text-anchor="middle" x="438" y="-1957.2" font-family="Courier,monospace" font-size="11.00">Staticpages</text>
</a>
</g>
<!-- \\Staticpages&#45;&gt;\\MY_Controller -->
<g id="edge33" class="edge"><title>\\Staticpages&#45;&gt;\\MY_Controller</title>
<path fill="none" stroke="black" d="M392.299,-1978.1C386.691,-1980.86 381.129,-1983.84 376,-1987 343.379,-2007.07 339.736,-2022.11 305.844,-2044.42"/>
<polygon fill="none" stroke="black" points="303.681,-2041.65 297.079,-2049.93 307.408,-2047.57 303.681,-2041.65"/>
</g>
<!-- \\Who -->
<g id="node19" class="node"><title>\\Who</title>
<a xlink:href="controllers.who.html" xlink:title="Who" target="_parent">
<polygon fill="none" stroke="black" points="465,-1924 411,-1924 411,-1888 465,-1888 465,-1924"/>
<text text-anchor="middle" x="438" y="-1903.2" font-family="Courier,monospace" font-size="11.00">Who</text>
</a>
</g>
<!-- \\Who&#45;&gt;\\MY_Controller -->
<g id="edge35" class="edge"><title>\\Who&#45;&gt;\\MY_Controller</title>
<path fill="none" stroke="black" d="M410.757,-1913.76C399.203,-1918.1 386.012,-1924.39 376,-1933 333.312,-1969.7 347.507,-2003.49 306.567,-2042.99"/>
<polygon fill="none" stroke="black" points="303.977,-2040.61 298.886,-2049.91 308.66,-2045.82 303.977,-2040.61"/>
</g>
<!-- \\CResult -->
<g id="node20" class="node"><title>\\CResult</title>
<a xlink:href="core.MY_Controller.html" xlink:title="CResult" target="_parent">
<polygon fill="none" stroke="black" points="710,-1762 646,-1762 646,-1726 710,-1726 710,-1762"/>
<text text-anchor="middle" x="678" y="-1741.2" font-family="Courier,monospace" font-size="11.00">CResult</text>
</a>
</g>
<!-- \\MY_Controller&#45;&gt;\\CI_Controller -->
<g id="edge37" class="edge"><title>\\MY_Controller&#45;&gt;\\CI_Controller</title>
<path fill="none" stroke="black" d="M200.473,-2050C197.579,-2048.71 194.736,-2047.37 192,-2046 157.798,-2028.84 121.357,-2004.62 96.3229,-1986.96"/>
<polygon fill="none" stroke="black" points="98.1417,-1983.96 87.9662,-1981.01 94.0805,-1989.66 98.1417,-1983.96"/>
</g>
<!-- \\MY_Security -->
<g id="node22" class="node"><title>\\MY_Security</title>
<a xlink:href="core.MY_Security.html" xlink:title="MY_Security" target="_parent">
<polygon fill="none" stroke="black" points="723.5,-1708 632.5,-1708 632.5,-1672 723.5,-1672 723.5,-1708"/>
<text text-anchor="middle" x="678" y="-1687.2" font-family="Courier,monospace" font-size="11.00">MY_Security</text>
</a>
</g>
<!-- \\CI_Security -->
<g id="node69" class="node"><title>\\CI_Security</title>
<ellipse fill="none" stroke="black" cx="438" cy="-234" rx="57.3905" ry="18"/>
<text text-anchor="middle" x="438" y="-230.3" font-family="Times New Roman,serif" font-size="14.00" fill="gray">\CI_Security</text>
</g>
<!-- \\MY_Security&#45;&gt;\\CI_Security -->
<g id="edge39" class="edge"><title>\\MY_Security&#45;&gt;\\CI_Security</title>
<path fill="none" stroke="black" d="M632.488,-1690.14C610.857,-1687.69 586.471,-1680.71 572,-1663 373.897,-1420.57 686.438,-507.51 500,-256 498.24,-253.626 496.2,-251.507 493.955,-249.617"/>
<polygon fill="none" stroke="black" points="495.897,-246.705 485.646,-244.029 491.99,-252.514 495.897,-246.705"/>
</g>
<!-- \\imagelib -->
<g id="node23" class="node"><title>\\imagelib</title>
<a xlink:href="libraries.imagelib.html" xlink:title="imagelib" target="_parent">
<polygon fill="none" stroke="black" points="713.5,-1654 642.5,-1654 642.5,-1618 713.5,-1618 713.5,-1654"/>
<text text-anchor="middle" x="678" y="-1633.2" font-family="Courier,monospace" font-size="11.00">imagelib</text>
</a>
</g>
<!-- \\MY_Session -->
<g id="node24" class="node"><title>\\MY_Session</title>
<a xlink:href="libraries.MY_Session.html" xlink:title="MY_Session" target="_parent">
<polygon fill="none" stroke="black" points="720,-1600 636,-1600 636,-1564 720,-1564 720,-1600"/>
<text text-anchor="middle" x="678" y="-1579.2" font-family="Courier,monospace" font-size="11.00">MY_Session</text>
</a>
</g>
<!-- \\CI_Session -->
<g id="node71" class="node"><title>\\CI_Session</title>
<ellipse fill="none" stroke="black" cx="438" cy="-180" rx="55.7903" ry="18"/>
<text text-anchor="middle" x="438" y="-176.3" font-family="Times New Roman,serif" font-size="14.00" fill="gray">\CI_Session</text>
</g>
<!-- \\MY_Session&#45;&gt;\\CI_Session -->
<g id="edge41" class="edge"><title>\\MY_Session&#45;&gt;\\CI_Session</title>
<path fill="none" stroke="black" d="M635.949,-1582.48C613.516,-1580.39 587.266,-1573.64 572,-1555 381.923,-1322.92 670.305,-453.953 500,-207 497.339,-203.142 493.995,-199.829 490.251,-196.985"/>
<polygon fill="none" stroke="black" points="491.848,-193.854 481.523,-191.479 488.113,-199.774 491.848,-193.854"/>
</g>
<!-- \\phpVimeo -->
<g id="node25" class="node"><title>\\phpVimeo</title>
<a xlink:href="libraries.phpVimeo.html" xlink:title="phpVimeo" target="_parent">
<polygon fill="none" stroke="black" points="713.5,-1546 642.5,-1546 642.5,-1510 713.5,-1510 713.5,-1546"/>
<text text-anchor="middle" x="678" y="-1525.2" font-family="Courier,monospace" font-size="11.00">phpVimeo</text>
</a>
</g>
<!-- \\VimeoAPIException -->
<g id="node26" class="node"><title>\\VimeoAPIException</title>
<a xlink:href="libraries.phpVimeo.html" xlink:title="VimeoAPIException" target="_parent">
<polygon fill="none" stroke="black" points="743.5,-1492 612.5,-1492 612.5,-1456 743.5,-1456 743.5,-1492"/>
<text text-anchor="middle" x="678" y="-1471.2" font-family="Courier,monospace" font-size="11.00">VimeoAPIException</text>
</a>
</g>
<!-- \\Exception -->
<g id="node73" class="node"><title>\\Exception</title>
<ellipse fill="none" stroke="black" cx="438" cy="-126" rx="50.0912" ry="18"/>
<text text-anchor="middle" x="438" y="-122.3" font-family="Times New Roman,serif" font-size="14.00" fill="gray">\Exception</text>
</g>
<!-- \\VimeoAPIException&#45;&gt;\\Exception -->
<g id="edge43" class="edge"><title>\\VimeoAPIException&#45;&gt;\\Exception</title>
<path fill="none" stroke="black" d="M612.354,-1470.43C596.961,-1466.41 582.091,-1459.29 572,-1447 389.267,-1224.39 663.766,-389.907 500,-153 496.831,-148.415 492.697,-144.6 488.074,-141.427"/>
<polygon fill="none" stroke="black" points="489.738,-138.346 479.326,-136.382 486.24,-144.41 489.738,-138.346"/>
</g>
<!-- \\Migration_Current_schema -->
<g id="node27" class="node"><title>\\Migration_Current_schema</title>
<a xlink:href="migrations.001_current_schema.html" xlink:title="Migration_Current_schema" target="_parent">
<polygon fill="none" stroke="black" points="767.5,-1330 588.5,-1330 588.5,-1294 767.5,-1294 767.5,-1330"/>
<text text-anchor="middle" x="678" y="-1309.2" font-family="Courier,monospace" font-size="11.00">Migration_Current_schema</text>
</a>
</g>
<!-- \\CI_Migration -->
<g id="node75" class="node"><title>\\CI_Migration</title>
<ellipse fill="none" stroke="black" cx="438" cy="-72" rx="61.99" ry="18"/>
<text text-anchor="middle" x="438" y="-68.3" font-family="Times New Roman,serif" font-size="14.00" fill="gray">\CI_Migration</text>
</g>
<!-- \\Migration_Current_schema&#45;&gt;\\CI_Migration -->
<g id="edge45" class="edge"><title>\\Migration_Current_schema&#45;&gt;\\CI_Migration</title>
<path fill="none" stroke="black" d="M588.157,-1298.61C582.066,-1294.99 576.552,-1290.52 572,-1285 403.955,-1081.34 650.689,-315.818 500,-99 497.651,-95.6195 494.777,-92.6572 491.571,-90.0621"/>
<polygon fill="none" stroke="black" points="493.281,-86.995 483.025,-84.339 489.386,-92.8114 493.281,-86.995"/>
</g>
<!-- \\Migration_Drop_public_boolean -->
<g id="node28" class="node"><title>\\Migration_Drop_public_boolean</title>
<a xlink:href="migrations.002_drop_public_boolean.html" xlink:title="Migration_Drop_public_boolean" target="_parent">
<polygon fill="none" stroke="black" points="784,-1276 572,-1276 572,-1240 784,-1240 784,-1276"/>
<text text-anchor="middle" x="678" y="-1255.2" font-family="Courier,monospace" font-size="11.00">Migration_Drop_public_boolean</text>
</a>
</g>
<!-- \\Migration_Drop_public_boolean&#45;&gt;\\CI_Migration -->
<g id="edge47" class="edge"><title>\\Migration_Drop_public_boolean&#45;&gt;\\CI_Migration</title>
<path fill="none" stroke="black" d="M581.249,-1239.9C577.872,-1237.29 574.76,-1234.34 572,-1231 411.297,-1036.81 644.152,-305.776 500,-99 497.646,-95.6229 494.769,-92.663 491.561,-90.0697"/>
<polygon fill="none" stroke="black" points="493.268,-87.0008 483.01,-84.3494 489.375,-92.8189 493.268,-87.0008"/>
</g>
<!-- \\Migration_Add_user_roles -->
<g id="node29" class="node"><title>\\Migration_Add_user_roles</title>
<a xlink:href="migrations.003_add_user_roles.html" xlink:title="Migration_Add_user_roles" target="_parent">
<polygon fill="none" stroke="black" points="767.5,-1438 588.5,-1438 588.5,-1402 767.5,-1402 767.5,-1438"/>
<text text-anchor="middle" x="678" y="-1417.2" font-family="Courier,monospace" font-size="11.00">Migration_Add_user_roles</text>
</a>
</g>
<!-- \\Migration_Add_user_roles&#45;&gt;\\CI_Migration -->
<g id="edge49" class="edge"><title>\\Migration_Add_user_roles&#45;&gt;\\CI_Migration</title>
<path fill="none" stroke="black" d="M588.126,-1406.63C582.043,-1403.01 576.538,-1398.53 572,-1393 389.267,-1170.39 663.766,-335.907 500,-99 497.659,-95.6136 494.792,-92.647 491.59,-90.049"/>
<polygon fill="none" stroke="black" points="493.305,-86.9849 483.051,-84.3209 489.406,-92.7982 493.305,-86.9849"/>
</g>
<!-- \\Migration_Update_page_routing -->
<g id="node30" class="node"><title>\\Migration_Update_page_routing</title>
<a xlink:href="migrations.004_update_page_routing.html" xlink:title="Migration_Update_page_routing" target="_parent">
<polygon fill="none" stroke="black" points="784,-1384 572,-1384 572,-1348 784,-1348 784,-1384"/>
<text text-anchor="middle" x="678" y="-1363.2" font-family="Courier,monospace" font-size="11.00">Migration_Update_page_routing</text>
</a>
</g>
<!-- \\Migration_Update_page_routing&#45;&gt;\\CI_Migration -->
<g id="edge51" class="edge"><title>\\Migration_Update_page_routing&#45;&gt;\\CI_Migration</title>
<path fill="none" stroke="black" d="M581.227,-1347.92C577.855,-1345.3 574.751,-1342.34 572,-1339 396.611,-1125.87 657.227,-325.862 500,-99 497.655,-95.6164 494.785,-92.6519 491.581,-90.0553"/>
<polygon fill="none" stroke="black" points="493.294,-86.9897 483.038,-84.3296 489.397,-92.8045 493.294,-86.9897"/>
</g>
<!-- \\Daysout_model -->
<g id="node31" class="node"><title>\\Daysout_model</title>
<a xlink:href="models.addon.daysout_model.html" xlink:title="Daysout_model" target="_parent">
<polygon fill="none" stroke="black" points="730,-1114 626,-1114 626,-1078 730,-1078 730,-1114"/>
<text text-anchor="middle" x="678" y="-1093.2" font-family="Courier,monospace" font-size="11.00">Daysout_model</text>
</a>
</g>
<!-- \\CI_Model -->
<g id="node80" class="node"><title>\\CI_Model</title>
<ellipse fill="none" stroke="black" cx="438" cy="-18" rx="50.8918" ry="18"/>
<text text-anchor="middle" x="438" y="-14.3" font-family="Times New Roman,serif" font-size="14.00" fill="gray">\CI_Model</text>
</g>
<!-- \\Daysout_model&#45;&gt;\\CI_Model -->
<g id="edge53" class="edge"><title>\\Daysout_model&#45;&gt;\\CI_Model</title>
<path fill="none" stroke="black" d="M625.887,-1095.11C606.118,-1092 585.133,-1084.76 572,-1069 425.978,-893.743 631.082,-231.695 500,-45 496.918,-40.6103 492.955,-36.9253 488.53,-33.8336"/>
<polygon fill="none" stroke="black" points="489.961,-30.6163 479.562,-28.59 486.428,-36.6591 489.961,-30.6163"/>
</g>
<!-- \\Ad_search -->
<g id="node32" class="node"><title>\\Ad_search</title>
<a xlink:href="models.ad_search.html" xlink:title="Ad_search" target="_parent">
<polygon fill="none" stroke="black" points="716.5,-1060 639.5,-1060 639.5,-1024 716.5,-1024 716.5,-1060"/>
<text text-anchor="middle" x="678" y="-1039.2" font-family="Courier,monospace" font-size="11.00">Ad_search</text>
</a>
</g>
<!-- \\Ad_search&#45;&gt;\\CI_Model -->
<g id="edge55" class="edge"><title>\\Ad_search&#45;&gt;\\CI_Model</title>
<path fill="none" stroke="black" d="M639.472,-1042.65C616.402,-1040.88 588.243,-1034.42 572,-1015 433.316,-849.208 624.548,-221.658 500,-45 496.909,-40.6164 492.941,-36.9351 488.513,-33.8457"/>
<polygon fill="none" stroke="black" points="489.941,-30.6269 479.541,-28.6047 486.41,-36.6711 489.941,-30.6269"/>
</g>
<!-- \\Audit -->
<g id="node33" class="node"><title>\\Audit</title>
<a xlink:href="models.audit.html" xlink:title="Audit" target="_parent">
<polygon fill="none" stroke="black" points="705,-1006 651,-1006 651,-970 705,-970 705,-1006"/>
<text text-anchor="middle" x="678" y="-985.2" font-family="Courier,monospace" font-size="11.00">Audit</text>
</a>
</g>
<!-- \\Audit&#45;&gt;\\CI_Model -->
<g id="edge57" class="edge"><title>\\Audit&#45;&gt;\\CI_Model</title>
<path fill="none" stroke="black" d="M650.565,-989.16C626.195,-988.654 591.009,-983.625 572,-961 440.653,-804.671 618.017,-211.622 500,-45 496.9,-40.6231 492.925,-36.9462 488.493,-33.8592"/>
<polygon fill="none" stroke="black" points="489.919,-30.6388 479.518,-28.6211 486.391,-36.6845 489.919,-30.6388"/>
</g>
<!-- \\Comments_model -->
<g id="node34" class="node"><title>\\Comments_model</title>
<a xlink:href="models.comments_model.html" xlink:title="Comments_model" target="_parent">
<polygon fill="none" stroke="black" points="733.5,-952 622.5,-952 622.5,-916 733.5,-916 733.5,-952"/>
<text text-anchor="middle" x="678" y="-931.2" font-family="Courier,monospace" font-size="11.00">Comments_model</text>
</a>
</g>
<!-- \\Comments_model&#45;&gt;\\CI_Model -->
<g id="edge59" class="edge"><title>\\Comments_model&#45;&gt;\\CI_Model</title>
<path fill="none" stroke="black" d="M622.444,-932.418C603.759,-929.006 584.447,-921.741 572,-907 447.988,-760.131 611.487,-201.589 500,-45 496.889,-40.6307 492.908,-36.9586 488.472,-33.8745"/>
<polygon fill="none" stroke="black" points="489.894,-30.6522 479.492,-28.6395 486.368,-36.6997 489.894,-30.6522"/>
</g>
<!-- \\Documents -->
<g id="node35" class="node"><title>\\Documents</title>
<a xlink:href="models.documents.html" xlink:title="Documents" target="_parent">
<polygon fill="none" stroke="black" points="716.5,-898 639.5,-898 639.5,-862 716.5,-862 716.5,-898"/>
<text text-anchor="middle" x="678" y="-877.2" font-family="Courier,monospace" font-size="11.00">Documents</text>
</a>
</g>
<!-- \\Documents&#45;&gt;\\CI_Model -->
<g id="edge61" class="edge"><title>\\Documents&#45;&gt;\\CI_Model</title>
<path fill="none" stroke="black" d="M639.312,-880.548C616.329,-878.722 588.325,-872.226 572,-853 455.32,-715.589 604.959,-191.56 500,-45 496.877,-40.6393 492.888,-36.9728 488.448,-33.8919"/>
<polygon fill="none" stroke="black" points="489.866,-30.6675 479.463,-28.6606 486.343,-36.7169 489.866,-30.6675"/>
</g>
<!-- \\Events -->
<g id="node36" class="node"><title>\\Events</title>
<a xlink:href="models.events.html" xlink:title="Events" target="_parent">
<polygon fill="none" stroke="black" points="706.5,-844 649.5,-844 649.5,-808 706.5,-808 706.5,-844"/>
<text text-anchor="middle" x="678" y="-823.2" font-family="Courier,monospace" font-size="11.00">Events</text>
</a>
</g>
<!-- \\Events&#45;&gt;\\CI_Model -->
<g id="edge63" class="edge"><title>\\Events&#45;&gt;\\CI_Model</title>
<path fill="none" stroke="black" d="M649.245,-827.051C625.004,-826.33 590.832,-821.036 572,-799 462.649,-671.043 598.434,-181.534 500,-45 496.741,-40.4789 492.551,-36.7035 487.896,-33.5532"/>
<polygon fill="none" stroke="black" points="489.533,-30.4576 479.115,-28.5316 486.058,-36.5342 489.533,-30.4576"/>
</g>
<!-- \\Favorites -->
<g id="node37" class="node"><title>\\Favorites</title>
<a xlink:href="models.favorites.html" xlink:title="Favorites" target="_parent">
<polygon fill="none" stroke="black" points="716.5,-790 639.5,-790 639.5,-754 716.5,-754 716.5,-790"/>
<text text-anchor="middle" x="678" y="-769.2" font-family="Courier,monospace" font-size="11.00">Favorites</text>
</a>
</g>
<!-- \\Favorites&#45;&gt;\\CI_Model -->
<g id="edge65" class="edge"><title>\\Favorites&#45;&gt;\\CI_Model</title>
<path fill="none" stroke="black" d="M639.401,-772.472C616.453,-770.616 588.456,-764.114 572,-745 367.947,-507.984 683.825,-298.026 500,-45 496.724,-40.4909 492.524,-36.7229 487.863,-33.5768"/>
<polygon fill="none" stroke="black" points="489.496,-30.4785 479.076,-28.5596 486.025,-36.5575 489.496,-30.4785"/>
</g>
<!-- \\Groups -->
<g id="node38" class="node"><title>\\Groups</title>
<a xlink:href="models.groups.html" xlink:title="Groups" target="_parent">
<polygon fill="none" stroke="black" points="706.5,-736 649.5,-736 649.5,-700 706.5,-700 706.5,-736"/>
<text text-anchor="middle" x="678" y="-715.2" font-family="Courier,monospace" font-size="11.00">Groups</text>
</a>
</g>
<!-- \\Groups&#45;&gt;\\CI_Model -->
<g id="edge67" class="edge"><title>\\Groups&#45;&gt;\\CI_Model</title>
<path fill="none" stroke="black" d="M649.327,-718.98C625.142,-718.211 591.005,-712.886 572,-691 382.588,-472.872 670.791,-277.996 500,-45 496.705,-40.5048 492.493,-36.7456 487.825,-33.6044"/>
<polygon fill="none" stroke="black" points="489.452,-30.5031 479.031,-28.5923 485.986,-36.5848 489.452,-30.5031"/>
</g>
<!-- \\Mail_queue -->
<g id="node39" class="node"><title>\\Mail_queue</title>
<a xlink:href="models.mail_queue.html" xlink:title="Mail_queue" target="_parent">
<polygon fill="none" stroke="black" points="720,-682 636,-682 636,-646 720,-646 720,-682"/>
<text text-anchor="middle" x="678" y="-661.2" font-family="Courier,monospace" font-size="11.00">Mail_queue</text>
</a>
</g>
<!-- \\Mail_queue&#45;&gt;\\CI_Model -->
<g id="edge69" class="edge"><title>\\Mail_queue&#45;&gt;\\CI_Model</title>
<path fill="none" stroke="black" d="M635.893,-664.031C613.728,-661.756 587.763,-654.97 572,-637 397.217,-437.746 657.768,-257.981 500,-45 496.682,-40.5214 492.456,-36.7725 487.781,-33.6372"/>
<polygon fill="none" stroke="black" points="489.401,-30.5323 478.978,-28.6313 485.941,-36.6172 489.401,-30.5323"/>
</g>
<!-- \\Pages -->
<g id="node40" class="node"><title>\\Pages</title>
<a xlink:href="models.pages.html" xlink:title="Pages" target="_parent">
<polygon fill="none" stroke="black" points="705,-628 651,-628 651,-592 705,-592 705,-628"/>
<text text-anchor="middle" x="678" y="-607.2" font-family="Courier,monospace" font-size="11.00">Pages</text>
</a>
</g>
<!-- \\Pages&#45;&gt;\\CI_Model -->
<g id="edge71" class="edge"><title>\\Pages&#45;&gt;\\CI_Model</title>
<path fill="none" stroke="black" d="M650.839,-610.924C626.667,-610.246 591.62,-605.098 572,-583 411.83,-402.602 644.758,-237.985 500,-45 496.656,-40.5414 492.413,-36.805 487.728,-33.6768"/>
<polygon fill="none" stroke="black" points="489.34,-30.5677 478.915,-28.6782 485.887,-36.6564 489.34,-30.5677"/>
</g>
<!-- \\Permissions -->
<g id="node41" class="node"><title>\\Permissions</title>
<a xlink:href="models.permissions.html" xlink:title="Permissions" target="_parent">
<polygon fill="none" stroke="black" points="723.5,-574 632.5,-574 632.5,-538 723.5,-538 723.5,-574"/>
<text text-anchor="middle" x="678" y="-553.2" font-family="Courier,monospace" font-size="11.00">Permissions</text>
</a>
</g>
<!-- \\Permissions&#45;&gt;\\CI_Model -->
<g id="edge73" class="edge"><title>\\Permissions&#45;&gt;\\CI_Model</title>
<path fill="none" stroke="black" d="M632.386,-555.443C611.136,-552.761 587.119,-545.78 572,-529 426.422,-367.434 631.768,-218.014 500,-45 496.623,-40.566 492.36,-36.8449 487.663,-33.7254"/>
<polygon fill="none" stroke="black" points="489.267,-30.6112 478.839,-28.7359 485.821,-36.7046 489.267,-30.6112"/>
</g>
<!-- \\PhpBB -->
<g id="node42" class="node"><title>\\PhpBB</title>
<a xlink:href="models.phpbb.html" xlink:title="PhpBB" target="_parent">
<polygon fill="none" stroke="black" points="705,-520 651,-520 651,-484 705,-484 705,-520"/>
<text text-anchor="middle" x="678" y="-499.2" font-family="Courier,monospace" font-size="11.00">PhpBB</text>
</a>
</g>
<!-- \\PhpBB&#45;&gt;\\CI_Model -->
<g id="edge75" class="edge"><title>\\PhpBB&#45;&gt;\\CI_Model</title>
<path fill="none" stroke="black" d="M650.54,-502.762C626.501,-501.927 591.853,-496.634 572,-475 440.984,-332.233 618.804,-198.078 500,-45 496.583,-40.597 492.295,-36.8952 487.584,-33.7867"/>
<polygon fill="none" stroke="black" points="489.175,-30.6661 478.745,-28.8086 485.74,-36.7654 489.175,-30.6661"/>
</g>
<!-- \\Revisions -->
<g id="node43" class="node"><title>\\Revisions</title>
<a xlink:href="models.revisions.html" xlink:title="Revisions" target="_parent">
<polygon fill="none" stroke="black" points="716.5,-466 639.5,-466 639.5,-430 716.5,-430 716.5,-466"/>
<text text-anchor="middle" x="678" y="-445.2" font-family="Courier,monospace" font-size="11.00">Revisions</text>
</a>
</g>
<!-- \\Revisions&#45;&gt;\\CI_Model -->
<g id="edge77" class="edge"><title>\\Revisions&#45;&gt;\\CI_Model</title>
<path fill="none" stroke="black" d="M639.445,-447.927C616.811,-445.821 589.14,-439.246 572,-421 455.505,-296.988 605.879,-178.191 500,-45 496.532,-40.6371 492.212,-36.9603 487.483,-33.866"/>
<polygon fill="none" stroke="black" points="489.06,-30.7375 478.625,-28.9027 485.638,-36.8442 489.06,-30.7375"/>
</g>
<!-- \\Searchindex -->
<g id="node44" class="node"><title>\\Searchindex</title>
<a xlink:href="models.searchindex.html" xlink:title="Searchindex" target="_parent">
<polygon fill="none" stroke="black" points="723.5,-412 632.5,-412 632.5,-376 723.5,-376 723.5,-412"/>
<text text-anchor="middle" x="678" y="-391.2" font-family="Courier,monospace" font-size="11.00">Searchindex</text>
</a>
</g>
<!-- \\Searchindex&#45;&gt;\\CI_Model -->
<g id="edge79" class="edge"><title>\\Searchindex&#45;&gt;\\CI_Model</title>
<path fill="none" stroke="black" d="M632.362,-392.9C611.369,-390.052 587.585,-383.087 572,-367 469.963,-261.675 593.01,-158.375 500,-45 496.465,-40.691 492.103,-37.0479 487.351,-33.9726"/>
<polygon fill="none" stroke="black" points="488.908,-30.8338 478.468,-29.0292 485.504,-36.9504 488.908,-30.8338"/>
</g>
<!-- \\Subscriptions -->
<g id="node45" class="node"><title>\\Subscriptions</title>
<a xlink:href="models.subscriptions.html" xlink:title="Subscriptions" target="_parent">
<polygon fill="none" stroke="black" points="730,-358 626,-358 626,-322 730,-322 730,-358"/>
<text text-anchor="middle" x="678" y="-337.2" font-family="Courier,monospace" font-size="11.00">Subscriptions</text>
</a>
</g>
<!-- \\Subscriptions&#45;&gt;\\CI_Model -->
<g id="edge81" class="edge"><title>\\Subscriptions&#45;&gt;\\CI_Model</title>
<path fill="none" stroke="black" d="M625.977,-337.554C606.816,-334.139 586.251,-327.098 572,-313 484.321,-226.26 580.232,-138.671 500,-45 496.374,-40.767 491.956,-37.1714 487.171,-34.123"/>
<polygon fill="none" stroke="black" points="488.702,-30.9705 478.255,-29.2076 485.323,-37.1006 488.702,-30.9705"/>
</g>
<!-- \\Tags -->
<g id="node46" class="node"><title>\\Tags</title>
<a xlink:href="models.tags.html" xlink:title="Tags" target="_parent">
<polygon fill="none" stroke="black" points="705,-304 651,-304 651,-268 705,-268 705,-304"/>
<text text-anchor="middle" x="678" y="-283.2" font-family="Courier,monospace" font-size="11.00">Tags</text>
</a>
</g>
<!-- \\Tags&#45;&gt;\\CI_Model -->
<g id="edge83" class="edge"><title>\\Tags&#45;&gt;\\CI_Model</title>
<path fill="none" stroke="black" d="M667.944,-267.777C645.308,-223.877 582.14,-111.019 500,-45 495.316,-41.2352 490.024,-37.8872 484.564,-34.9419"/>
<polygon fill="none" stroke="black" points="485.809,-31.6533 475.293,-30.3627 482.709,-37.9294 485.809,-31.6533"/>
</g>
<!-- \\Templates -->
<g id="node47" class="node"><title>\\Templates</title>
<a xlink:href="models.templates.html" xlink:title="Templates" target="_parent">
<polygon fill="none" stroke="black" points="716.5,-1222 639.5,-1222 639.5,-1186 716.5,-1186 716.5,-1222"/>
<text text-anchor="middle" x="678" y="-1201.2" font-family="Courier,monospace" font-size="11.00">Templates</text>
</a>
</g>
<!-- \\Templates&#45;&gt;\\CI_Model -->
<g id="edge85" class="edge"><title>\\Templates&#45;&gt;\\CI_Model</title>
<path fill="none" stroke="black" d="M639.402,-1204.71C616.304,-1202.97 588.14,-1196.5 572,-1177 411.297,-982.807 644.152,-251.776 500,-45 496.933,-40.6001 492.979,-36.9085 488.559,-33.8129"/>
<polygon fill="none" stroke="black" points="489.996,-30.5981 479.598,-28.565 486.458,-36.6386 489.996,-30.5981"/>
</g>
<!-- \\Users -->
<g id="node48" class="node"><title>\\Users</title>
<a xlink:href="models.users.html" xlink:title="Users" target="_parent">
<polygon fill="none" stroke="black" points="705,-1168 651,-1168 651,-1132 705,-1132 705,-1168"/>
<text text-anchor="middle" x="678" y="-1147.2" font-family="Courier,monospace" font-size="11.00">Users</text>
</a>
</g>
<!-- \\Users&#45;&gt;\\CI_Model -->
<g id="edge87" class="edge"><title>\\Users&#45;&gt;\\CI_Model</title>
<path fill="none" stroke="black" d="M650.971,-1151.22C626.541,-1150.8 590.996,-1145.88 572,-1123 418.638,-938.276 637.617,-241.735 500,-45 496.926,-40.6049 492.967,-36.9164 488.545,-33.8227"/>
<polygon fill="none" stroke="black" points="489.979,-30.6067 479.581,-28.5769 486.444,-36.6483 489.979,-30.6067"/>
</g>
</g>
</svg>
