<?xml version="1.0" standalone="no"?>
<!DOCTYPE svg PUBLIC "-//W3C//DTD SVG 1.1//EN" "http://www.w3.org/Graphics/SVG/1.1/DTD/svg11.dtd" >
<svg xmlns="http://www.w3.org/2000/svg">
<metadata>
This is a custom SVG webfont generated by Font Squirrel.
</metadata>
<defs>
<font id="webfontCAoj9GCC" horiz-adv-x="1024" >
<font-face units-per-em="2048" ascent="1638" descent="-410" />
<missing-glyph horiz-adv-x="584" />
<glyph unicode=" "  horiz-adv-x="584" />
<glyph unicode="&#x09;" horiz-adv-x="584" />
<glyph unicode="&#xa0;" horiz-adv-x="584" />
<glyph unicode="!" horiz-adv-x="639" d="M295 375l-23 267q-10 111 -23.5 292.5t-18.5 294.5t-7 211l193 33q2 -39 2 -119q0 -126 -9 -279.5t-25 -329t-38 -368.5zM211 84q0 45 32 77t76 32q46 0 77.5 -31.5t31.5 -77.5q0 -45 -33 -77t-76 -32q-42 0 -75 33t-33 76z" />
<glyph unicode="&#x22;" horiz-adv-x="590" d="M211 1434v-553h-117v553h117zM496 1434v-553h-119v553h119z" />
<glyph unicode="#" horiz-adv-x="1575" d="M922 1456l-166 -471h260l168 471h143l-164 -471h307l-43 -123h-311l-94 -272h330l-43 -123h-332l-166 -469h-145l168 469h-265l-168 -469h-143l166 469h-320l43 123h320l96 272h-342l43 123h344l168 471h146zM973 862h-264l-95 -272h263z" />
<glyph unicode="$" horiz-adv-x="1165" d="M143 268q69 -45 130.5 -76.5t124.5 -51t130 -25.5v587l-53 25q-163 76 -239 173t-76 235q0 135 102 233.5t266 110.5v200h103v-200q146 -17 278 -90v-179q-140 106 -278 131v-522q387 -156 387 -448q0 -157 -105 -268t-282 -132v-256h-103v254q-55 2 -113 13.5t-120.5 34 t-136.5 59.5zM631 653v-532q110 22 171.5 89t61.5 165q0 180 -233 278zM528 868v473q-66 -6 -116 -34t-77.5 -73.5t-27.5 -98.5q0 -58 24 -105.5t72 -85.5t125 -76z" />
<glyph unicode="%" horiz-adv-x="1536" d="M1180 1497h120l-944 -1544h-123zM184 1155q0 -87 63 -150t148 -63q57 0 105.5 28t77 78t28.5 107q0 92 -61.5 154.5t-149.5 62.5t-149.5 -64t-61.5 -153zM53 1157q0 91 46 169.5t125 124.5t171 46q72 0 134.5 -26.5t108 -71.5t72.5 -107t27 -135q0 -93 -46 -171.5 t-125 -124.5t-171 -46t-171 46t-125 125t-46 171zM799 295q0 91 46 170t125 124.5t171 45.5q142 0 241 -99t99 -241q0 -92 -45.5 -171t-124.5 -125t-170 -46q-68 0 -131 26t-110.5 73.5t-74 111t-26.5 131.5zM930 293q0 -87 62 -151t147 -64q86 0 148.5 62.5t62.5 152.5 q0 60 -28.5 109t-76 77.5t-106.5 28.5q-88 0 -148.5 -63t-60.5 -152z" />
<glyph unicode="&#x26;" horiz-adv-x="1421" d="M1055 154q-252 -201 -510 -201q-133 0 -239 52t-164 145t-58 208q0 283 346 500q-92 105 -135 186t-43 158q0 85 43 153.5t117.5 107t167.5 38.5q72 0 134.5 -24.5t108 -66.5t70.5 -99.5t25 -124.5q0 -95 -62 -180.5t-192 -169.5l397 -455q97 117 145 248l135 -56 q-55 -158 -178 -309l232 -264h-203zM952 268l-417 471q-96 -61 -157.5 -118.5t-92.5 -117.5t-31 -126q0 -116 85.5 -194.5t215.5 -78.5q205 0 397 164zM563 948q73 51 115 90.5t64 81t22 86.5q0 72 -51 119t-133 47q-73 0 -121.5 -46t-48.5 -120q0 -48 39.5 -115.5 t113.5 -142.5z" />
<glyph unicode="'" horiz-adv-x="305" d="M211 1434v-553h-117v553h117z" />
<glyph unicode="(" horiz-adv-x="664" d="M410 -301q-75 119 -125 222.5t-86.5 217t-54 223t-17.5 213.5q0 146 31 290.5t93 288t159 296.5h159q-93 -153 -158 -299.5t-97.5 -287t-32.5 -288.5q0 -104 19.5 -216.5t55.5 -218.5t87 -211t126 -230h-159z" />
<glyph unicode=")" horiz-adv-x="664" d="M254 1450q283 -442 283 -875q0 -218 -70 -435t-213 -441h-158q98 161 160 302.5t94.5 284t32.5 289.5q0 115 -18.5 222t-53.5 211.5t-91.5 219t-123.5 222.5h158z" />
<glyph unicode="*" d="M340 721l-129 96l235 256l-337 72l47 149l315 -143l-29 346h140l-29 -346l315 143l47 -149l-337 -72l235 -256l-129 -96l-172 305z" />
<glyph unicode="+" horiz-adv-x="1706" d="M913 1221v-551h539v-117h-539v-553h-118v553h-541v117h541v551h118z" />
<glyph unicode="," horiz-adv-x="584" d="M57 -340l187 518h180l-219 -518h-148z" />
<glyph unicode="-" horiz-adv-x="664" d="M76 379v143h512v-143h-512z" />
<glyph unicode="." horiz-adv-x="584" d="M182 84q0 45 32 77t77 32q46 0 78 -31t32 -78q0 -44 -33.5 -76.5t-76.5 -32.5t-76 33t-33 76z" />
<glyph unicode="/" horiz-adv-x="569" d="M84 -190h-111l541 1687h109z" />
<glyph unicode="0" horiz-adv-x="1165" d="M582 104q150 0 239.5 164t89.5 457q0 198 -40.5 336.5t-115.5 211.5t-173 73q-149 0 -238.5 -164t-89.5 -457t89.5 -457t238.5 -164zM1085 725q0 -181 -37 -323.5t-104 -243t-159.5 -153t-202.5 -52.5q-223 0 -362.5 207.5t-139.5 564.5q0 239 64.5 413t178 266.5 t259.5 92.5q108 0 201 -53t161 -153t104.5 -242t36.5 -324z" />
<glyph unicode="1" horiz-adv-x="1165" d="M528 0v1321h-198l22 129h342v-1450h-166z" />
<glyph unicode="2" horiz-adv-x="1165" d="M41 0l569 612q131 141 190.5 241t59.5 208q0 82 -38 149.5t-109.5 105.5t-159.5 38q-118 0 -208 -76.5t-124 -208.5l-135 82q60 167 183.5 256.5t291.5 89.5q134 0 242 -58.5t168.5 -157.5t60.5 -218q0 -140 -73 -262.5t-232 -288.5l-342 -354h721l-14 -158h-1051z" />
<glyph unicode="3" horiz-adv-x="1165" d="M244 340q85 -231 311 -231q138 0 223.5 82.5t85.5 211.5q0 140 -90.5 217.5t-261.5 77.5h-31v146h13q81 0 142 18t104 52t65 82t22 110q0 109 -73.5 179.5t-192.5 70.5q-90 0 -154 -42t-110 -126l-150 43q60 134 168.5 202t257.5 68q121 0 217 -52t150.5 -143t54.5 -204 q0 -215 -211 -322q130 -64 192 -156.5t62 -222.5q0 -126 -61 -228.5t-170.5 -161t-251.5 -58.5q-168 0 -286.5 86t-180.5 252z" />
<glyph unicode="4" horiz-adv-x="1165" d="M737 0v315h-714l854 1182h26v-1024h184v-158h-184v-315h-166zM741 473l17 647l-445 -647h428z" />
<glyph unicode="5" horiz-adv-x="1165" d="M162 281q153 -170 354 -170q161 0 265 102t104 258q0 80 -26.5 146.5t-77.5 115.5t-120.5 75t-158.5 26q-80 0 -167.5 -28.5t-164.5 -80.5l25 725h763l-12 -143h-610l-14 -353q93 33 219 33q114 0 208 -37t164.5 -107t108 -162.5t37.5 -205.5q0 -143 -71 -264 t-193.5 -189.5t-268.5 -68.5q-287 0 -479 219z" />
<glyph unicode="6" horiz-adv-x="1165" d="M422 868q106 31 194 31q98 0 183 -35.5t148 -99t97.5 -148t34.5 -186.5q0 -137 -63.5 -245.5t-179 -169t-265.5 -60.5q-140 0 -251 61t-174.5 170.5t-63.5 249.5q0 104 40.5 219.5t119 238.5t186.5 254.5t270 301.5h224q-76 -72 -144 -144l-132 -148 q-64 -74 -114.5 -139.5t-109.5 -150.5zM582 750q-95 0 -170 -42t-117.5 -116.5t-42.5 -165.5q0 -92 42 -164t116.5 -114t164.5 -42q98 0 175 41.5t119 115.5t42 165q0 69 -24.5 128.5t-68 102.5t-103.5 67t-133 24z" />
<glyph unicode="7" horiz-adv-x="1165" d="M182 0l682 1300h-766v150h1020l-743 -1450h-193z" />
<glyph unicode="8" horiz-adv-x="1165" d="M584 844q134 44 199 109t65 161q0 68 -33 121t-94.5 83t-136.5 30q-58 0 -105.5 -16.5t-84.5 -48.5t-56 -75.5t-19 -93.5q0 -61 28 -111.5t84.5 -89t152.5 -69.5zM385 776q-227 113 -227 338q0 107 52.5 193t150.5 135t223 49q95 0 174.5 -28.5t134 -78t85 -119 t30.5 -151.5q0 -224 -228 -338q95 -43 158.5 -101.5t94 -133.5t30.5 -168q0 -87 -34.5 -162.5t-100 -133t-154.5 -89t-190 -31.5t-189.5 31t-155.5 90t-101 133.5t-34 161.5q0 141 69 239.5t212 163.5zM584 694q-308 -85 -308 -307q0 -78 40 -143t110.5 -101.5t157.5 -36.5 q88 0 157.5 36.5t109.5 100t40 144.5q0 222 -307 307z" />
<glyph unicode="9" horiz-adv-x="1165" d="M739 582q-105 -31 -194 -31q-127 0 -234 61t-168 168t-61 240q0 102 36.5 190t103.5 152t160 99.5t208 35.5q137 0 249.5 -61t176 -171.5t63.5 -250.5q0 -136 -69 -290.5t-202 -328t-345 -395.5h-225l150 151l128 143q67 77 116 140.5t107 147.5zM580 700 q71 0 131.5 24.5t105 69t68.5 103t24 129.5q0 92 -42 163.5t-117 112.5t-164 41q-98 0 -175 -41t-119 -114.5t-42 -165.5q0 -90 42 -164t117 -116t171 -42z" />
<glyph unicode=":" horiz-adv-x="631" d="M207 795q0 46 32 77t76 31q45 0 77 -31t32 -77q0 -45 -32 -77t-77 -32q-42 0 -75 33t-33 76zM207 84q0 45 32 77t76 32q46 0 77.5 -31.5t31.5 -77.5q0 -45 -33 -77t-76 -32q-42 0 -75 33t-33 76z" />
<glyph unicode=";" horiz-adv-x="631" d="M33 -340l186 518h180l-219 -518h-147zM211 795q0 46 32 77t76 31q45 0 77 -31t32 -77q0 -45 -32 -77t-77 -32q-42 0 -75 33t-33 76z" />
<glyph unicode="&#x3c;" horiz-adv-x="1706" d="M1442 1018l-1000 -408l1000 -405v-129l-1178 483v103l1178 483v-127z" />
<glyph unicode="=" horiz-adv-x="1706" d="M1452 860v-117h-1198v117h1198zM1452 477v-117h-1198v117h1198z" />
<glyph unicode="&#x3e;" horiz-adv-x="1706" d="M1442 662v-103l-1178 -483v129l1000 405l-1000 408v127z" />
<glyph unicode="?" horiz-adv-x="995" d="M236 369v319q149 21 252.5 71t155.5 126.5t52 175.5q0 75 -37 136.5t-107.5 96.5t-162.5 35q-60 0 -199 -22l9 141q143 20 209 20q137 0 239.5 -52t157.5 -142t55 -201q0 -125 -55 -224.5t-163 -168t-263 -102.5v-166zM201 84q0 44 32.5 76.5t77.5 32.5q46 0 77.5 -31.5 t31.5 -77.5q0 -45 -33 -77t-76 -32t-76.5 32.5t-33.5 76.5z" />
<glyph unicode="@" horiz-adv-x="2048" d="M1202 473l60 242q-16 89 -71.5 139.5t-135.5 50.5q-96 0 -174.5 -60.5t-123 -166t-44.5 -232.5q0 -110 52 -169.5t144 -59.5q101 0 183 70t110 186zM1292 844l58 121h110l-141 -568q-12 -48 -12 -80q0 -90 110 -90q44 0 98 23t105 65q88 76 139 195.5t51 255.5 q0 173 -87.5 307.5t-250.5 208.5t-376 74q-338 0 -572 -205q-140 -122 -211 -284t-71 -353q0 -118 26 -212.5t81 -174.5t140 -147q65 -52 150.5 -90.5t182.5 -58t202 -19.5q172 0 334.5 48.5t296.5 139.5l45 -66q-296 -221 -660 -221q-385 0 -624 185q-152 117 -227.5 272 t-75.5 352q0 331 200 578q73 88 159 154t189 112.5t217.5 69t237.5 22.5q110 0 213 -19.5t192.5 -58.5t153.5 -90q129 -99 195.5 -229.5t66.5 -282.5q0 -171 -63 -310t-182 -235q-143 -112 -312 -112q-198 0 -198 155q1 6 1.5 10.5t0.5 12.5q-103 -178 -297 -178 q-154 0 -234 85.5t-80 246.5q0 154 63 279t172 197t234 72q182 0 250 -157z" />
<glyph unicode="A" horiz-adv-x="1327" d="M-25 0l678 1487h21l676 -1487h-187l-162 369h-686l-161 -369h-179zM379 508h561l-278 639z" />
<glyph unicode="B" horiz-adv-x="1219" d="M195 0v1450h372q162 0 273.5 -41t167 -118t55.5 -181q0 -242 -262 -326q299 -80 299 -372q0 -129 -68 -221t-203.5 -141.5t-336.5 -49.5h-297zM362 141h170q123 0 212.5 34t135.5 99.5t46 153.5q0 85 -45.5 147.5t-135 96t-215.5 33.5h-168v-564zM362 842h189 q107 0 185.5 30.5t118.5 87t40 130.5q0 114 -88 168.5t-268 54.5h-177v-471z" />
<glyph unicode="C" horiz-adv-x="1327" d="M1243 94q-93 -68 -203 -104.5t-229 -36.5q-256 0 -446 158q-134 109 -206.5 267t-72.5 347q0 217 95 394.5t263 278.5t373 101q226 0 424 -137l-18 -180q-192 161 -404 161q-119 0 -221 -44.5t-178 -128.5t-118 -198.5t-42 -246.5q0 -171 71 -312.5t197.5 -220.5 t284.5 -79q76 0 151 20t148 61t145 103z" />
<glyph unicode="D" horiz-adv-x="1464" d="M195 0v1450h317q207 0 370 -51.5t274 -147.5t167.5 -229t56.5 -297q0 -131 -40.5 -247t-120 -208.5t-197.5 -160.5q-68 -40 -151 -65.5t-167.5 -34.5t-191.5 -9h-317zM365 160h178q157 0 281 39.5t209 113.5t128 178.5t43 233.5t-43 234t-127.5 179.5t-209 114 t-281.5 39.5h-178v-1132z" />
<glyph unicode="E" horiz-adv-x="1128" d="M195 0v1450h796v-145h-629v-474h543v-147h-543v-528h637v-156h-804z" />
<glyph unicode="F" horiz-adv-x="1096" d="M195 0v1450h806v-152h-636v-501h577v-152h-577v-645h-170z" />
<glyph unicode="G" horiz-adv-x="1497" d="M1374 100q-93 -47 -187.5 -81t-182 -51t-168.5 -17q-215 0 -386.5 99t-267.5 276.5t-96 398.5q0 166 55.5 309.5t158.5 248.5t241.5 161.5t302.5 56.5q253 0 467 -125l-11 -184q-243 162 -456 162q-163 0 -297.5 -80.5t-210.5 -224.5t-76 -324q0 -134 41 -246 t117.5 -194.5t181 -127t231.5 -44.5q91 0 182.5 23.5t188.5 72.5v373h-436v149h608v-631z" />
<glyph unicode="H" horiz-adv-x="1536" d="M195 0v1450h170v-606h806v606h170v-1450h-170v688h-806v-688h-170z" />
<glyph unicode="I" horiz-adv-x="567" d="M197 0v1450h172v-1450h-172z" />
<glyph unicode="J" horiz-adv-x="758" d="M18 180q95 -49 175 -49q125 0 179 96t54 297v926h172v-1001q0 -150 -50.5 -258.5t-144.5 -164t-217 -55.5q-61 0 -155 23z" />
<glyph unicode="K" horiz-adv-x="1337" d="M195 0v1450h170v-698l692 698h221l-690 -696l782 -754h-237l-768 729v-729h-170z" />
<glyph unicode="L" horiz-adv-x="1053" d="M195 0v1450h172v-1294h682v-156h-854z" />
<glyph unicode="M" horiz-adv-x="1763" d="M72 0l295 1497h16l500 -1178l501 1178h17l287 -1497h-170l-185 999l-440 -1048h-23l-446 1044l-193 -995h-159z" />
<glyph unicode="N" horiz-adv-x="1550" d="M195 0v1497h22l971 -1135v1088h168v-1497h-23l-971 1134v-1087h-167z" />
<glyph unicode="O" horiz-adv-x="1593" d="M86 725q0 327 209 553q65 70 146.5 119t172.5 74.5t183 25.5q91 0 182 -25.5t169.5 -73.5t149.5 -122q209 -224 209 -551q0 -274 -145 -475q-101 -142 -250 -219.5t-315 -77.5q-141 0 -269.5 56.5t-232.5 164.5q-71 77 -116 161.5t-69 182.5t-24 207zM260 725 q0 -173 71.5 -313t195 -219.5t270.5 -79.5q112 0 208 44.5t171 128.5t115 196t40 243t-40.5 244t-114 195.5t-171 127.5t-208.5 45q-149 0 -271.5 -79t-194 -219.5t-71.5 -313.5z" />
<glyph unicode="P" horiz-adv-x="1176" d="M195 0v1450h307q155 0 261 -21.5t191 -82.5q53 -38 91 -89.5t57.5 -113t19.5 -121.5q0 -215 -158.5 -337t-457.5 -122q-62 0 -141 2v-565h-170zM365 709h147q143 0 241.5 35t147.5 103.5t49 166.5q0 80 -29.5 136.5t-86 91t-144.5 51t-207 16.5h-118v-600z" />
<glyph unicode="Q" horiz-adv-x="1593" d="M260 725q0 -173 71.5 -313t195 -219.5t270.5 -79.5q112 0 208 44.5t171 128.5t115 196t40 243t-40.5 244t-114 195.5t-171 127.5t-208.5 45q-149 0 -271.5 -79t-194 -219.5t-71.5 -313.5zM1358 -395q-219 6 -463 114q-62 28 -120 57l-145 74q-88 44 -158.5 73.5 t-143.5 49.5l61 119q-97 70 -165 165.5t-104 212t-36 249.5q0 277 147 481q68 95 157 161t193.5 101t215.5 35q91 0 182 -25.5t169.5 -73.5t149.5 -122q67 -72 114 -157t71 -180.5t24 -197.5q0 -138 -34.5 -255.5t-99.5 -211.5t-161 -165q-91 -67 -194.5 -103.5 t-204.5 -36.5q-35 0 -113 6l-6 -16l244 -104q115 -49 220 -78t220 -29h13z" />
<glyph unicode="R" horiz-adv-x="1294" d="M365 729h147q142 0 241 34.5t148 100t49 160.5q0 103 -51.5 165.5t-155.5 91t-260 28.5h-118v-580zM195 0v1450h307q159 0 273.5 -27.5t192 -81.5t116 -133.5t38.5 -179.5q0 -101 -45.5 -187.5t-132 -145t-201.5 -77.5l527 -618h-217l-506 596h-182v-596h-170z" />
<glyph unicode="S" horiz-adv-x="1110" d="M109 264q130 -80 228 -117.5t193 -37.5q138 0 222 72t84 186q0 71 -32.5 124.5t-97 97t-157.5 85.5l-100 45q-324 147 -324 409q0 102 52.5 187.5t148 133.5t219.5 48q184 0 346 -98v-185q-183 138 -354 138q-116 0 -185 -60.5t-69 -154.5q0 -89 66.5 -156.5 t205.5 -128.5l102 -45q113 -49 190.5 -117t115.5 -149.5t38 -173.5q0 -91 -33.5 -167t-93.5 -130.5t-147.5 -86.5t-189.5 -32q-196 0 -414 110z" />
<glyph unicode="T" horiz-adv-x="1219" d="M522 0v1294h-512v156h1198v-156h-512v-1294h-174z" />
<glyph unicode="U" horiz-adv-x="1493" d="M350 1450v-848q0 -161 46.5 -271t137.5 -164t224 -54q197 0 300 125t103 370v842h156v-870q0 -149 -39 -266.5t-113.5 -198t-178 -121.5t-228.5 -41q-134 0 -242 40t-183.5 119t-115 197t-39.5 266v875h172z" />
<glyph unicode="V" horiz-adv-x="1262" d="M639 -57h-25l-626 1507h184l461 -1133l473 1133h170z" />
<glyph unicode="W" horiz-adv-x="1810" d="M541 -61h-23l-504 1511h181l342 -1079l378 1126h19l354 -1126l340 1079h170l-510 -1511h-20l-350 1124z" />
<glyph unicode="X" horiz-adv-x="1442" d="M31 0l590 752l-537 698h211l434 -563l442 563h197l-543 -690l580 -760h-211l-475 625l-490 -625h-198z" />
<glyph unicode="Y" horiz-adv-x="1233" d="M514 0v625l-559 825h201l450 -666l486 666h190l-596 -811v-639h-172z" />
<glyph unicode="Z" horiz-adv-x="1327" d="M72 0l882 1298h-755l22 152h1026l-880 -1296h870l-25 -154h-1140z" />
<glyph unicode="[" horiz-adv-x="664" d="M614 -301h-438v1751h438v-90h-284v-1571h284v-90z" />
<glyph unicode="\" horiz-adv-x="569" d="M623 -190h-109l-541 1687h109z" />
<glyph unicode="]" horiz-adv-x="664" d="M51 1450h436v-1751h-436v90h283v1571h-283v90z" />
<glyph unicode="^" horiz-adv-x="2048" d="M1104 1458l520 -557h-158l-442 438l-442 -438h-160l520 557h162z" />
<glyph unicode="_" d="M1024 -365v-118h-1024v118h1024z" />
<glyph unicode="`" d="M649 1055h-106l-281 348h178z" />
<glyph unicode="a" horiz-adv-x="1118" d="M987 0l-143 -43q-13 32 -25 96q-166 -94 -309 -94q-95 0 -175.5 34t-139.5 98.5t-91 154t-32 192.5q0 108 33.5 199t97.5 157t153 101t199 35q107 0 252 -45l162 16v-702q0 -86 18 -199zM807 166v577q-127 62 -234 62q-100 0 -175.5 -46t-117.5 -130.5t-42 -194.5 q0 -162 83 -257t222 -95q61 0 121.5 21t142.5 63z" />
<glyph unicode="b" horiz-adv-x="1118" d="M285 23l-138 -66v1470l162 43v-641q134 103 309 103q118 0 216.5 -60t154 -168t55.5 -243q0 -112 -35.5 -204.5t-101 -159t-159 -102.5t-203.5 -36q-132 0 -260 64zM309 147q125 -61 234 -61q100 0 176 46t118 130.5t42 194.5q0 163 -82 257.5t-217 94.5 q-136 0 -271 -123v-539z" />
<glyph unicode="c" horiz-adv-x="963" d="M885 55q-160 -96 -336 -96q-102 0 -190 35t-151.5 100t-98.5 153t-35 193q0 114 34.5 206t101.5 160t158.5 103t206.5 35q160 0 324 -80l-20 -145q-163 90 -301 90q-103 0 -180 -43t-119.5 -124t-42.5 -187q0 -111 41 -192.5t117 -125t173 -43.5q163 0 340 137z" />
<glyph unicode="d" horiz-adv-x="1118" d="M969 0l-140 -43l-10 109q-154 -109 -313 -109q-126 0 -224 59.5t-154 165.5t-56 240q0 145 66 263t181.5 184.5t255.5 66.5q120 0 232 -59v550l162 43v-1470zM807 205v538q-127 62 -234 62q-100 0 -175.5 -46t-117.5 -130.5t-42 -194.5q0 -159 81.5 -255.5t204.5 -96.5 q151 0 283 123z" />
<glyph unicode="e" horiz-adv-x="1042" d="M922 250l-9 -162q-82 -63 -176.5 -96t-191.5 -33q-100 0 -187 34.5t-149.5 96.5t-96.5 146.5t-34 185.5q0 112 38 210.5t104.5 167t156 105.5t192.5 37q187 0 297.5 -112.5t110.5 -311.5q0 -12 -0.5 -20t-1.5 -19l-19 -41l-720 -24q9 -104 48.5 -175.5t108.5 -109 t160 -37.5q175 0 369 158zM827 551q-3 84 -37.5 145t-93 94t-135.5 33t-144.5 -36.5t-112.5 -103.5t-58 -155z" />
<glyph unicode="f" horiz-adv-x="602" d="M350 0h-166v772h-188v129h188v152q0 272 199 387l244 30v-73q-161 -26 -219 -114t-58 -271v-111h252v-129h-252v-772z" />
<glyph unicode="g" horiz-adv-x="1118" d="M807 43q-147 -84 -291 -84q-98 0 -179.5 34t-141.5 97.5t-91.5 151.5t-31.5 196q0 107 34.5 199t97 157.5t149 100.5t192.5 35q108 0 307 -51l117 22v-788q0 -139 -12 -221.5t-56 -149.5q-57 -86 -158 -132t-239 -46q-178 0 -346 90l-27 196l121 -79q46 -29 118 -49.5 t140 -20.5q92 0 159.5 31.5t102.5 92.5t35 148v70zM807 166v577q-127 62 -234 62q-100 0 -175.5 -46t-117.5 -130.5t-42 -194.5q0 -162 83 -257t222 -95q61 0 121.5 21t142.5 63z" />
<glyph unicode="h" horiz-adv-x="1128" d="M147 0v1427l162 43v-753q44 64 104.5 112t129.5 72.5t141 24.5q153 0 235 -94t82 -275v-557h-161v537q0 125 -45.5 186t-147.5 61q-62 0 -123 -22.5t-109 -67.5t-77 -114t-29 -160v-420h-162z" />
<glyph unicode="i" horiz-adv-x="469" d="M317 0h-165v901l165 43v-944zM115 1235q0 50 33.5 85.5t84.5 35.5t86 -35t35 -86q0 -52 -35.5 -85.5t-85.5 -33.5q-49 0 -83.5 33.5t-34.5 85.5z" />
<glyph unicode="j" horiz-adv-x="469" d="M174 -12v913l166 43v-946q0 -132 -21.5 -230t-70.5 -167l-232 -33q63 68 97 131t47.5 129.5t13.5 159.5zM137 1235q0 50 33.5 85.5t85.5 35.5q51 0 86 -35t35 -86q0 -52 -35.5 -85.5t-85.5 -33.5t-84.5 33.5t-34.5 85.5z" />
<glyph unicode="k" horiz-adv-x="977" d="M309 0h-162v1427l162 43v-1470zM311 496l398 405h182l-391 -395l530 -506h-209z" />
<glyph unicode="l" horiz-adv-x="469" d="M317 0h-165v1427l165 43v-1470z" />
<glyph unicode="m" horiz-adv-x="1726" d="M307 0h-160v901h158v-180q166 205 352 205q103 0 176.5 -55t104.5 -154q92 107 177.5 158t182.5 51q291 0 291 -369v-557h-159v537q0 127 -42 186t-139 59q-55 0 -110.5 -23t-98.5 -67t-68.5 -112.5t-25.5 -159.5v-420h-155v537q0 126 -42.5 185.5t-138.5 59.5 q-55 0 -110.5 -23t-98.5 -67t-68.5 -112.5t-25.5 -159.5v-420z" />
<glyph unicode="n" horiz-adv-x="1128" d="M309 0h-162v901h162v-182q80 101 176 154t199 53q101 0 172 -41t108 -124.5t37 -203.5v-557h-161v537q0 125 -45.5 186t-147.5 61q-62 0 -123 -22.5t-109 -67.5t-77 -114t-29 -160v-420z" />
<glyph unicode="o" horiz-adv-x="1110" d="M74 451q0 108 36.5 198.5t101 155.5t152 101t191.5 36q136 0 246 -62.5t172.5 -175t62.5 -253.5q0 -140 -62.5 -253.5t-172.5 -176t-246 -62.5q-137 0 -246 62.5t-172 176t-63 253.5zM238 451q0 -111 40.5 -196.5t113 -131t161.5 -45.5q92 0 163.5 45.5t112.5 131.5 t41 196t-40.5 195.5t-112.5 131t-164 45.5q-89 0 -161 -45t-113 -130.5t-41 -196.5z" />
<glyph unicode="p" horiz-adv-x="1112" d="M309 6v-399l-162 -43v1337h162v-45q156 76 283 76q136 0 239 -60t158 -167.5t55 -251.5t-59.5 -256t-169 -174t-254.5 -62q-112 0 -252 45zM309 147q125 -61 234 -61q100 0 176 46t118 130.5t42 194.5q0 165 -82.5 258.5t-221.5 93.5q-60 0 -121.5 -20.5t-144.5 -63.5 v-578z" />
<glyph unicode="q" horiz-adv-x="1090" d="M969 901v-1294l-162 -43v436q-136 -43 -262 -43q-143 0 -250.5 58t-165 165.5t-57.5 245.5q0 111 37.5 202t108.5 157.5t168 101.5t218 35q89 0 203 -21h162zM807 141v627q-121 39 -201 39q-174 0 -271 -99t-97 -274q0 -169 85 -261.5t240 -92.5q119 0 244 61z" />
<glyph unicode="r" horiz-adv-x="649" d="M311 0h-166v901h162v-137q85 85 174 125.5t191 40.5v-162q-137 -11 -215 -46t-112 -104t-34 -182v-436z" />
<glyph unicode="s" horiz-adv-x="819" d="M96 225q184 -135 326 -135q74 0 119 35.5t45 89.5q0 62 -38 92t-134 70l-86 35q-124 51 -178 108.5t-54 155.5q0 81 34.5 141.5t98.5 93.5t154 33q150 0 313 -94l-32 -141q-157 112 -277 112q-65 0 -103 -32t-38 -84q0 -40 17.5 -66t56 -46t106.5 -46l72 -29 q127 -48 186 -114t59 -166q0 -85 -39.5 -149t-111.5 -98t-172 -34q-190 0 -344 117z" />
<glyph unicode="t" horiz-adv-x="602" d="M350 365q0 -107 12 -172.5t52.5 -116t126.5 -94.5h-230q-60 43 -86.5 92t-33.5 106t-7 164v428h-188v129h188v279l166 43v-322h252v-129h-252v-407z" />
<glyph unicode="u" horiz-adv-x="1128" d="M137 901h162v-557q0 -125 45.5 -185.5t147.5 -60.5q84 0 162.5 40.5t126.5 123t48 201.5v438h162v-901l-147 -43l-10 203q-176 -203 -379 -203q-101 0 -172.5 41.5t-108.5 124.5t-37 203v575z" />
<glyph unicode="v" horiz-adv-x="868" d="M410 -43l-412 944h178l270 -647l293 647h140l-435 -944h-34z" />
<glyph unicode="w" horiz-adv-x="1384" d="M438 -43h-35l-393 944h172l254 -625l266 668h19l264 -668l252 625h139l-389 -944h-35l-258 629z" />
<glyph unicode="x" horiz-adv-x="883" d="M-18 0l372 463l-344 438h199l244 -313l256 313h161l-338 -418l377 -483h-192l-285 360l-289 -360h-161z" />
<glyph unicode="y" horiz-adv-x="868" d="M-2 901h174l270 -708l297 708h140l-430 -993q-114 -255 -164 -344h-179q64 66 111.5 144t89.5 171l58 125z" />
<glyph unicode="z" horiz-adv-x="829" d="M-14 0l573 772h-514l29 129h755l-571 -774h565l-18 -127h-819z" />
<glyph unicode="{" d="M858 1350q-11 1 -21 1.5t-24 0.5q-65 0 -107 -13t-63.5 -41.5t-29 -72t-7.5 -117.5v-242q0 -103 -15.5 -167.5t-58 -105.5t-124.5 -63q82 -22 124.5 -63t58 -105t15.5 -167v-242q0 -74 8.5 -118t31.5 -71.5t64.5 -40t108.5 -12.5h39v-125h-35q-181 0 -262 52 q-34 23 -53.5 52.5t-29 66t-13.5 86.5t-4 108v244q0 151 -54 212.5t-190 61.5q-14 0 -23.5 -0.5t-21.5 -1.5v127q16 0 25 -0.5t20 -1.5q136 0 190 62t54 214v244q0 135 18 204t82 109q46 30 108.5 41t153.5 11h35v-127z" />
<glyph unicode="|" d="M575 1565v-2048h-126v2048h126z" />
<glyph unicode="}" d="M563 1112v-244q0 -101 24 -161.5t76.5 -87.5t145.5 -27q11 1 20 1.5t25 0.5v-127q-11 1 -21 1.5t-24 0.5q-93 0 -145.5 -27t-76.5 -87.5t-24 -161.5v-242q0 -87 -6 -143t-27 -100t-65 -73q-46 -30 -105.5 -39.5t-152.5 -9.5h-41v125q16 0 25 -0.5t20 -1.5 q87 0 131.5 23.5t60 74t15.5 148.5v240q0 103 15.5 167t58 105t124.5 63q-82 22 -124.5 63t-58 105.5t-15.5 167.5v242q0 96 -16 147.5t-62.5 74t-134.5 22.5h-39v125h35q90 0 154 -11t109.5 -41t66 -72t26.5 -98t6 -143z" />
<glyph unicode="~" horiz-adv-x="1706" d="M1530 627q-200 -144 -387 -144q-83 0 -191 35l-142 50q-73 25 -130.5 39t-116.5 14q-88 0 -178.5 -39.5t-206.5 -120.5v133q210 145 387 145q71 0 139 -17t152 -48l96 -34q54 -20 99 -30t94 -10q89 0 178 38t207 120v-131z" />
<glyph unicode="&#xa1;" horiz-adv-x="639" d="M428 1364q0 -44 -32.5 -77.5t-76.5 -33.5t-76 33t-32 78t32 77t76 32q27 0 52.5 -15t41 -41.5t15.5 -52.5zM346 1071q5 -53 26 -295.5t27.5 -334.5t12.5 -230t6 -203l-195 -33q-2 37 -2 115q0 127 8.5 272t25.5 327t40 382h51z" />
<glyph unicode="&#xa2;" horiz-adv-x="1165" d="M954 94q-157 -96 -325 -96q-14 0 -76 4l-88 -270h-113l94 293q-96 36 -164 101t-104.5 154.5t-36.5 198.5q0 112 36 206t103 161t157 102t202 35q50 0 125 -10l86 254h113l-95 -283q64 -22 101 -41l-23 -143q-62 35 -121 57l-227 -682q12 -2 39 -2q160 0 338 137z M494 162l227 682q-49 6 -78 6q-76 0 -138.5 -24.5t-108 -73.5t-69.5 -117.5t-24 -149.5q0 -115 49.5 -199t141.5 -124z" />
<glyph unicode="&#xa3;" horiz-adv-x="1165" d="M92 147q114 55 175 152.5t61 224.5q0 53 -27 178h-209v103h184q-47 186 -47 289q0 90 29 162.5t83 125.5t128 80t162 27q150 0 257 -76.5t150 -214.5l-153 -43q-28 89 -91 135.5t-155 46.5q-110 0 -176 -65t-66 -180q0 -76 49 -287h363v-103h-344q16 -98 16 -165 q0 -161 -69 -293q207 -115 319 -115q75 0 125.5 40.5t93.5 129.5l144 -63q-34 -91 -81 -152.5t-108.5 -91t-138.5 -29.5q-178 0 -440 168q-117 -135 -234 -166v182z" />
<glyph unicode="&#xa4;" horiz-adv-x="1241" d="M365 1212q61 47 123.5 69t132.5 22q142 0 260 -91l204 207l72 -73l-205 -205q86 -113 86 -256t-86 -256l205 -205l-72 -74l-204 207q-113 -88 -260 -88q-144 0 -256 88l-207 -207l-72 74l207 205q-88 117 -88 256t88 256l-207 205l72 73zM936 887q0 63 -23.5 120t-67 101 t-101 68t-121.5 24q-85 0 -157 -42t-114.5 -114t-42.5 -157q0 -86 42 -158.5t114.5 -115t157.5 -42.5t157.5 43t114 115.5t41.5 157.5z" />
<glyph unicode="&#xa5;" horiz-adv-x="1208" d="M516 0v512h-444v111h444l-149 219h-295v110h221l-336 498h203l454 -684l480 684h190l-369 -498h220v-110h-293l-148 -219h441v-111h-445v-512h-174z" />
<glyph unicode="&#xa6;" d="M575 1432v-758h-126v758h126zM575 408v-758h-126v758h126z" />
<glyph unicode="&#xa7;" d="M203 -10l100 73q43 -63 98 -98t103 -35q61 0 101 37.5t40 89.5q0 60 -42 120t-134 153l-141 147q-61 64 -102 116t-63 101.5t-22 104.5q0 101 58 160t163 59h7q-119 128 -119 244q0 103 70 169t186 66q84 0 161.5 -45.5t123.5 -126.5l-101 -70q-39 62 -87 94.5t-91 32.5 q-58 0 -94.5 -32.5t-36.5 -83.5q0 -35 24 -75t70.5 -90t118.5 -120q62 -60 119.5 -122t94.5 -114t56 -104.5t19 -108.5q0 -58 -28 -104t-80 -72.5t-122 -27.5q121 -136 121 -269q0 -77 -35.5 -133.5t-96 -86t-130.5 -29.5q-91 0 -173.5 47.5t-135.5 132.5zM270 815 q0 -44 33 -97.5t105 -131.5q148 -162 229 -162q48 0 80.5 31t32.5 80q0 44 -26 87.5t-89 116.5q-81 94 -142 142.5t-108 48.5q-27 0 -54.5 -15.5t-44 -41.5t-16.5 -58z" />
<glyph unicode="&#xa8;" d="M238 1212q0 27 13.5 50.5t36 37t48.5 13.5q20 0 37.5 -7.5t32.5 -22.5t22.5 -33t7.5 -38q0 -28 -13.5 -51t-37 -36t-49.5 -13q-41 0 -69.5 29.5t-28.5 70.5zM588 1212q0 39 31 70t69 31q26 0 48.5 -13.5t36 -37t13.5 -50.5q0 -41 -28.5 -70.5t-69.5 -29.5q-26 0 -49.5 13 t-37 36t-13.5 51z" />
<glyph unicode="&#xa9;" horiz-adv-x="1706" d="M852 1460q152 0 287 -55.5t237 -159.5q101 -99 156 -234t55 -286q0 -308 -211 -516q-72 -70 -157.5 -119.5t-179.5 -74.5t-187 -25q-100 0 -191 25.5t-174.5 75t-150.5 116.5q-108 110 -162.5 240.5t-54.5 277.5q0 144 56.5 279t162.5 243q67 67 149 115.5t173 73 t192 24.5zM1501 725q0 131 -48.5 250t-139.5 209q-60 60 -133.5 102.5t-156.5 64t-171 21.5q-132 0 -248 -47.5t-205 -138.5q-63 -63 -105.5 -138t-64.5 -155.5t-22 -167.5t22.5 -167.5t63.5 -152t104 -135.5q190 -190 455 -190q127 0 248.5 50.5t214.5 141.5 q91 89 138.5 204.5t47.5 248.5zM1065 911q-15 79 -70.5 121.5t-138.5 42.5q-117 0 -182.5 -92t-65.5 -260q0 -161 67.5 -252.5t180.5 -91.5q86 0 145 48t74 134h129q-7 -84 -53.5 -149.5t-125.5 -101.5t-175 -36q-114 0 -202 54t-135.5 155.5t-47.5 237.5q0 138 50 242.5 t139 159.5t206 55q137 0 230 -74.5t104 -192.5h-129z" />
<glyph unicode="&#xaa;" horiz-adv-x="840" d="M741 821l-108 -30q-14 37 -19 67q-124 -65 -231 -65q-95 0 -170.5 42t-117.5 118t-42 175q0 155 99 250t264 95q79 0 190 -33l121 12v-491q0 -61 14 -140zM606 938v403q-93 43 -176 43q-113 0 -182.5 -71.5t-69.5 -188.5q0 -76 28.5 -131t80.5 -84.5t121 -29.5 q80 0 198 59z" />
<glyph unicode="&#xab;" horiz-adv-x="924" d="M342 137l-254 314l254 313h152l-244 -313l244 -314h-152zM682 137l-254 314l254 313h154l-246 -313l246 -314h-154z" />
<glyph unicode="&#xac;" horiz-adv-x="1706" d="M1452 858v-502h-115v385h-1083v117h1198z" />
<glyph unicode="&#xad;" horiz-adv-x="664" d="M76 379v143h512v-143h-512z" />
<glyph unicode="&#xae;" horiz-adv-x="1706" d="M852 1460q102 0 195 -25t177 -74.5t152 -117.5q101 -99 156 -233t55 -285q0 -309 -213 -516q-108 -105 -244 -162t-278 -57q-72 0 -139 13.5t-136.5 42.5t-128 68.5t-114.5 94.5q-215 215 -215 516q0 145 56.5 280.5t164.5 243.5q208 211 512 211zM1501 721q0 89 -21 171 t-63.5 156.5t-101.5 133.5q-91 92 -209 141t-254 49q-131 0 -246 -46t-205 -138q-95 -95 -144.5 -214.5t-49.5 -248.5q0 -87 22.5 -167.5t63.5 -152t104 -135.5q59 -60 133 -103.5t154.5 -65t165.5 -21.5q132 0 250.5 48.5t212.5 141.5q92 91 140 206t48 245zM872 1157 q351 0 351 -231q0 -88 -52 -147.5t-145 -76.5l188 -385h-157l-176 365h-179v-365h-141v840h311zM846 1065h-144v-291h148q79 0 128.5 13.5t74 44t24.5 83.5q0 81 -55 115.5t-176 34.5z" />
<glyph unicode="&#xaf;" d="M254 1149v125h516v-125h-516z" />
<glyph unicode="&#xb0;" horiz-adv-x="674" d="M338 1454q75 0 141 -38t104 -103.5t38 -141.5q0 -74 -38 -140t-103.5 -104t-143.5 -38q-118 0 -199.5 82.5t-81.5 199.5q0 77 38 142.5t103.5 103t141.5 37.5zM539 1171q0 53 -26.5 100t-73.5 74t-101 27t-101 -26.5t-74.5 -73t-27.5 -101.5q0 -84 60 -143t143 -59 q56 0 102.5 27.5t72.5 73.5t26 101z" />
<glyph unicode="&#xb1;" horiz-adv-x="1706" d="M913 1180v-344h539v-117h-539v-344h-118v344h-541v117h541v344h118zM1452 158v-117h-1198v117h1198z" />
<glyph unicode="&#xb2;" horiz-adv-x="770" d="M27 580l376 366q87 87 125.5 147t38.5 124q0 76 -55.5 126t-146.5 50q-79 0 -137.5 -46.5t-82.5 -125.5l-88 49q27 68 72.5 114.5t107 70.5t134.5 24q69 0 126.5 -20.5t98 -56t63.5 -84t23 -101.5q0 -84 -48.5 -156.5t-154.5 -173.5l-225 -213h475l-8 -94h-694z" />
<glyph unicode="&#xb3;" horiz-adv-x="770" d="M162 784q56 -139 205 -139q90 0 147 49t57 127q0 84 -61 131t-172 47h-21v86h9q104 0 162.5 43t58.5 115q0 66 -49 108t-127 42q-114 0 -174 -101l-99 27q79 162 281 162q78 0 142.5 -31.5t100 -87t35.5 -121.5q0 -127 -139 -192q168 -77 168 -228q0 -77 -40.5 -138 t-113.5 -96.5t-165 -35.5q-73 0 -133 23t-104 68.5t-73 111.5z" />
<glyph unicode="&#xb4;" d="M375 1055l209 348h178l-281 -348h-106z" />
<glyph unicode="&#xb5;" horiz-adv-x="1128" d="M362 1069l-126 -596q-15 -61 -15 -137q0 -106 56.5 -166.5t160.5 -60.5q248 0 336 409l121 551h156l-162 -754q-23 -97 -23 -135q0 -65 72 -65q16 0 35 2l-27 -125q-44 -10 -92 -10q-70 0 -104.5 35t-40.5 112q-41 -70 -117.5 -108.5t-171.5 -38.5q-174 0 -262 137 l-113 -545h-156l316 1495h157z" />
<glyph unicode="&#xb6;" d="M948 1401h-125v-1401h-94v1401h-184v-1401h-94v782q-117 6 -201 51t-129 122.5t-45 174.5q0 100 48 180.5t137 124.5t208 44h479v-78z" />
<glyph unicode="&#xb8;" d="M262 -424v88q168 -37 248 -37q121 0 121 84q0 53 -32 76t-101 23q-31 0 -58 -3v193h72v-106h23q112 0 169.5 -45t57.5 -132q0 -88 -63.5 -135t-186.5 -47q-94 0 -250 41z" />
<glyph unicode="&#xb9;" horiz-adv-x="770" d="M348 580v792h-131l14 78h226v-870h-109z" />
<glyph unicode="&#xba;" horiz-adv-x="834" d="M55 1137q0 101 47 178.5t130 121.5t184 44q103 0 186 -44t129.5 -122t46.5 -178q0 -151 -102 -247.5t-260 -96.5q-101 0 -183.5 43.5t-130 122t-47.5 178.5zM178 1137q0 -119 66.5 -189.5t171.5 -70.5t171 71t66 189t-66 189t-171 71t-171.5 -70.5t-66.5 -189.5z" />
<glyph unicode="&#xbb;" horiz-adv-x="924" d="M582 764l254 -313l-254 -314h-154l246 314l-246 313h154zM240 764l254 -313l-254 -314h-152l244 314l-244 313h152z" />
<glyph unicode="&#xbc;" horiz-adv-x="1810" d="M334 639v739h-127l14 72h217v-811h-104zM1294 1497h123l-899 -1544h-125zM1542 0v176h-450l538 662h17v-574h116v-88h-116v-176h-105zM1544 264l10 363l-280 -363h270z" />
<glyph unicode="&#xbd;" horiz-adv-x="1810" d="M334 639v739h-127l14 72h217v-811h-104zM1294 1497h123l-899 -1544h-125zM1104 0l358 342q79 74 118.5 133.5t39.5 118.5q0 72 -53.5 118t-141.5 46q-74 0 -130.5 -43.5t-77.5 -116.5l-87 47q40 93 118 143t184 50q128 0 212.5 -70.5t84.5 -171.5q0 -54 -22 -103t-62 -96 t-109 -110l-217 -199h455l-9 -88h-661z" />
<glyph unicode="&#xbe;" horiz-adv-x="1810" d="M154 829q54 -129 196 -129q87 0 141 45.5t54 118.5q0 79 -58 122.5t-165 43.5h-19v82h8q100 0 155.5 38.5t55.5 106.5q0 41 -21 73.5t-60.5 50.5t-86.5 18q-108 0 -168 -94l-94 24q40 75 107.5 112.5t160.5 37.5q117 0 192 -64t75 -160q0 -119 -133 -180 q159 -69 159 -211q0 -107 -84.5 -179.5t-218.5 -72.5q-104 0 -179.5 48.5t-115.5 142.5zM1292 1497h123l-899 -1544h-125zM1540 0v176h-450l538 662h17v-574h116v-88h-116v-176h-105zM1542 264l10 363l-280 -363h270z" />
<glyph unicode="&#xbf;" horiz-adv-x="995" d="M752 1073v-321q-152 -21 -254 -70t-154.5 -125t-52.5 -176q0 -118 84 -193t223 -75q36 0 89.5 6.5t109.5 15.5l-9 -143q-136 -19 -210 -19q-102 0 -186 30.5t-143.5 85t-90.5 126.5t-31 154q0 124 55 224t163 168.5t263 102.5v164zM786 1356q0 -44 -32.5 -76.5 t-77.5 -32.5t-77 32t-32 77t32.5 77.5t76.5 32.5q27 0 53 -15.5t41.5 -41.5t15.5 -53z" />
<glyph unicode="&#xc0;" horiz-adv-x="1327" d="M-25 0l678 1487h21l676 -1487h-187l-162 369h-686l-161 -369h-179zM379 508h561l-278 639zM801 1610h-106l-281 348h178z" />
<glyph unicode="&#xc1;" horiz-adv-x="1327" d="M-25 0l678 1487h21l676 -1487h-187l-162 369h-686l-161 -369h-179zM379 508h561l-278 639zM527 1610l209 348h178l-281 -348h-106z" />
<glyph unicode="&#xc2;" horiz-adv-x="1327" d="M-25 0l678 1487h21l676 -1487h-187l-162 369h-686l-161 -369h-179zM379 508h561l-278 639zM377 1610l197 348h178l197 -348h-107l-178 243l-180 -243h-107z" />
<glyph unicode="&#xc3;" horiz-adv-x="1327" d="M-25 0l678 1487h21l676 -1487h-187l-162 369h-686l-161 -369h-179zM379 508h561l-278 639zM955 1878q-17 -65 -45 -107t-67 -64t-87 -22q-28 0 -65 11l-80 26q-24 9 -53 9q-67 0 -97 -64h-88q22 92 74 139t125 47q35 0 59 -8l78 -28q33 -11 61 -11q71 0 97 72h88z" />
<glyph unicode="&#xc4;" horiz-adv-x="1327" d="M-25 0l678 1487h21l676 -1487h-187l-162 369h-686l-161 -369h-179zM379 508h561l-278 639zM390 1767q0 27 13.5 50.5t36 37t48.5 13.5q20 0 37.5 -7.5t32.5 -22.5t22.5 -33t7.5 -38q0 -28 -13.5 -51t-37 -36t-49.5 -13q-41 0 -69.5 29.5t-28.5 70.5zM740 1767q0 39 31 70 t69 31q26 0 48.5 -13.5t36 -37t13.5 -50.5q0 -41 -28.5 -70.5t-69.5 -29.5q-26 0 -49.5 13t-37 36t-13.5 51z" />
<glyph unicode="&#xc5;" horiz-adv-x="1327" d="M-25 0l678 1487h21l676 -1487h-187l-162 369h-686l-161 -369h-179zM379 508h561l-278 639zM422 1729q0 68 32.5 123.5t89.5 87.5t122 32t121.5 -32t89 -87.5t32.5 -123.5q0 -66 -32.5 -122t-89 -88t-121.5 -32q-101 0 -172.5 70.5t-71.5 171.5zM522 1731 q0 -59 42.5 -101.5t101.5 -42.5q60 0 100.5 41.5t40.5 102.5q0 38 -19 70.5t-51 51.5t-71 19q-59 0 -101.5 -41.5t-42.5 -99.5z" />
<glyph unicode="&#xc6;" horiz-adv-x="1849" d="M915 0v369h-567l-213 -369h-180l842 1450h913v-145h-627v-474h543v-147h-543v-528h637v-156h-805zM428 508h487v797h-28z" />
<glyph unicode="&#xc7;" horiz-adv-x="1327" d="M1243 94q-93 -68 -203 -104.5t-229 -36.5q-256 0 -446 158q-134 109 -206.5 267t-72.5 347q0 217 95 394.5t263 278.5t373 101q226 0 424 -137l-18 -180q-192 161 -404 161q-119 0 -221 -44.5t-178 -128.5t-118 -198.5t-42 -246.5q0 -171 71 -312.5t197.5 -220.5 t284.5 -79q76 0 151 20t148 61t145 103zM528 -424v88q168 -37 248 -37q121 0 121 84q0 53 -32 76t-101 23q-31 0 -58 -3v193h72v-106h23q112 0 169.5 -45t57.5 -132q0 -88 -63.5 -135t-186.5 -47q-94 0 -250 41z" />
<glyph unicode="&#xc8;" horiz-adv-x="1128" d="M195 0v1450h796v-145h-629v-474h543v-147h-543v-528h637v-156h-804zM727 1610h-106l-281 348h178z" />
<glyph unicode="&#xc9;" horiz-adv-x="1128" d="M195 0v1450h796v-145h-629v-474h543v-147h-543v-528h637v-156h-804zM453 1610l209 348h178l-281 -348h-106z" />
<glyph unicode="&#xca;" horiz-adv-x="1128" d="M195 0v1450h796v-145h-629v-474h543v-147h-543v-528h637v-156h-804zM303 1610l197 348h178l197 -348h-107l-178 243l-180 -243h-107z" />
<glyph unicode="&#xcb;" horiz-adv-x="1128" d="M195 0v1450h796v-145h-629v-474h543v-147h-543v-528h637v-156h-804zM316 1767q0 27 13.5 50.5t36 37t48.5 13.5q20 0 37.5 -7.5t32.5 -22.5t22.5 -33t7.5 -38q0 -28 -13.5 -51t-37 -36t-49.5 -13q-41 0 -69.5 29.5t-28.5 70.5zM666 1767q0 39 31 70t69 31 q26 0 48.5 -13.5t36 -37t13.5 -50.5q0 -41 -28.5 -70.5t-69.5 -29.5q-26 0 -49.5 13t-37 36t-13.5 51z" />
<glyph unicode="&#xcc;" horiz-adv-x="567" d="M197 0v1450h172v-1450h-172zM422 1610h-106l-281 348h178z" />
<glyph unicode="&#xcd;" horiz-adv-x="567" d="M197 0v1450h172v-1450h-172zM148 1610l209 348h178l-281 -348h-106z" />
<glyph unicode="&#xce;" horiz-adv-x="567" d="M197 0v1450h172v-1450h-172zM-2 1610l197 348h178l197 -348h-107l-178 243l-180 -243h-107z" />
<glyph unicode="&#xcf;" horiz-adv-x="567" d="M197 0v1450h172v-1450h-172zM11 1767q0 27 13.5 50.5t36 37t48.5 13.5q20 0 37.5 -7.5t32.5 -22.5t22.5 -33t7.5 -38q0 -28 -13.5 -51t-37 -36t-49.5 -13q-41 0 -69.5 29.5t-28.5 70.5zM361 1767q0 39 31 70t69 31q26 0 48.5 -13.5t36 -37t13.5 -50.5q0 -41 -28.5 -70.5 t-69.5 -29.5q-26 0 -49.5 13t-37 36t-13.5 51z" />
<glyph unicode="&#xd0;" horiz-adv-x="1464" d="M195 0v692h-205v146h205v612h317q207 0 370 -51.5t274 -147.5t167.5 -229t56.5 -297q0 -131 -40.5 -247t-120 -208.5t-197.5 -160.5q-68 -40 -151 -65.5t-167.5 -34.5t-191.5 -9h-317zM365 160h178q157 0 281 39.5t209 113.5t128 178.5t43 233.5t-43 234t-127.5 179.5 t-209 114t-281.5 39.5h-178v-454h364v-146h-364v-532z" />
<glyph unicode="&#xd1;" horiz-adv-x="1550" d="M195 0v1497h22l971 -1135v1088h168v-1497h-23l-971 1134v-1087h-167zM1084 1878q-17 -65 -45 -107t-67 -64t-87 -22q-28 0 -65 11l-80 26q-24 9 -53 9q-67 0 -97 -64h-88q22 92 74 139t125 47q35 0 59 -8l78 -28q33 -11 61 -11q71 0 97 72h88z" />
<glyph unicode="&#xd2;" horiz-adv-x="1593" d="M86 725q0 327 209 553q65 70 146.5 119t172.5 74.5t183 25.5q91 0 182 -25.5t169.5 -73.5t149.5 -122q209 -224 209 -551q0 -274 -145 -475q-101 -142 -250 -219.5t-315 -77.5q-141 0 -269.5 56.5t-232.5 164.5q-71 77 -116 161.5t-69 182.5t-24 207zM260 725 q0 -173 71.5 -313t195 -219.5t270.5 -79.5q112 0 208 44.5t171 128.5t115 196t40 243t-40.5 244t-114 195.5t-171 127.5t-208.5 45q-149 0 -271.5 -79t-194 -219.5t-71.5 -313.5zM934 1610h-106l-281 348h178z" />
<glyph unicode="&#xd3;" horiz-adv-x="1593" d="M86 725q0 327 209 553q65 70 146.5 119t172.5 74.5t183 25.5q91 0 182 -25.5t169.5 -73.5t149.5 -122q209 -224 209 -551q0 -274 -145 -475q-101 -142 -250 -219.5t-315 -77.5q-141 0 -269.5 56.5t-232.5 164.5q-71 77 -116 161.5t-69 182.5t-24 207zM260 725 q0 -173 71.5 -313t195 -219.5t270.5 -79.5q112 0 208 44.5t171 128.5t115 196t40 243t-40.5 244t-114 195.5t-171 127.5t-208.5 45q-149 0 -271.5 -79t-194 -219.5t-71.5 -313.5zM660 1610l209 348h178l-281 -348h-106z" />
<glyph unicode="&#xd4;" horiz-adv-x="1593" d="M86 725q0 327 209 553q65 70 146.5 119t172.5 74.5t183 25.5q91 0 182 -25.5t169.5 -73.5t149.5 -122q209 -224 209 -551q0 -274 -145 -475q-101 -142 -250 -219.5t-315 -77.5q-141 0 -269.5 56.5t-232.5 164.5q-71 77 -116 161.5t-69 182.5t-24 207zM260 725 q0 -173 71.5 -313t195 -219.5t270.5 -79.5q112 0 208 44.5t171 128.5t115 196t40 243t-40.5 244t-114 195.5t-171 127.5t-208.5 45q-149 0 -271.5 -79t-194 -219.5t-71.5 -313.5zM510 1610l197 348h178l197 -348h-107l-178 243l-180 -243h-107z" />
<glyph unicode="&#xd5;" horiz-adv-x="1593" d="M86 725q0 327 209 553q65 70 146.5 119t172.5 74.5t183 25.5q91 0 182 -25.5t169.5 -73.5t149.5 -122q209 -224 209 -551q0 -274 -145 -475q-101 -142 -250 -219.5t-315 -77.5q-141 0 -269.5 56.5t-232.5 164.5q-71 77 -116 161.5t-69 182.5t-24 207zM260 725 q0 -173 71.5 -313t195 -219.5t270.5 -79.5q112 0 208 44.5t171 128.5t115 196t40 243t-40.5 244t-114 195.5t-171 127.5t-208.5 45q-149 0 -271.5 -79t-194 -219.5t-71.5 -313.5zM1088 1878q-17 -65 -45 -107t-67 -64t-87 -22q-28 0 -65 11l-80 26q-24 9 -53 9 q-67 0 -97 -64h-88q22 92 74 139t125 47q35 0 59 -8l78 -28q33 -11 61 -11q71 0 97 72h88z" />
<glyph unicode="&#xd6;" horiz-adv-x="1593" d="M86 725q0 327 209 553q65 70 146.5 119t172.5 74.5t183 25.5q91 0 182 -25.5t169.5 -73.5t149.5 -122q209 -224 209 -551q0 -274 -145 -475q-101 -142 -250 -219.5t-315 -77.5q-141 0 -269.5 56.5t-232.5 164.5q-71 77 -116 161.5t-69 182.5t-24 207zM260 725 q0 -173 71.5 -313t195 -219.5t270.5 -79.5q112 0 208 44.5t171 128.5t115 196t40 243t-40.5 244t-114 195.5t-171 127.5t-208.5 45q-149 0 -271.5 -79t-194 -219.5t-71.5 -313.5zM523 1767q0 27 13.5 50.5t36 37t48.5 13.5q20 0 37.5 -7.5t32.5 -22.5t22.5 -33t7.5 -38 q0 -28 -13.5 -51t-37 -36t-49.5 -13q-41 0 -69.5 29.5t-28.5 70.5zM873 1767q0 39 31 70t69 31q26 0 48.5 -13.5t36 -37t13.5 -50.5q0 -41 -28.5 -70.5t-69.5 -29.5q-26 0 -49.5 13t-37 36t-13.5 51z" />
<glyph unicode="&#xd7;" horiz-adv-x="1706" d="M858 692l475 477l82 -82l-475 -477l475 -475l-82 -82l-475 475l-477 -475l-80 82l475 475l-475 477l80 82z" />
<glyph unicode="&#xd8;" horiz-adv-x="1593" d="M190 -57h-167l239 274q-56 63 -97 143.5t-61 173t-20 191.5q0 158 52 297.5t153 249.5q65 71 147.5 123t172.5 78t184 26q247 0 448 -168l131 148h164l-207 -236q59 -72 99 -154.5t59.5 -171t19.5 -188.5q0 -155 -48.5 -292.5t-141.5 -243.5q-70 -79 -151 -131 t-175 -80.5t-196 -28.5q-132 0 -245.5 43.5t-201.5 128.5zM375 346l762 864q-163 129 -344 129q-149 0 -270.5 -80t-192 -223.5t-70.5 -324.5q0 -203 115 -365zM1217 1116l-764 -870q44 -44 97 -73t117 -44.5t136 -15.5q109 0 205.5 45t168.5 127.5t113 196t41 241.5 q0 112 -33 221.5t-81 171.5z" />
<glyph unicode="&#xd9;" horiz-adv-x="1493" d="M350 1450v-848q0 -161 46.5 -271t137.5 -164t224 -54q197 0 300 125t103 370v842h156v-870q0 -149 -39 -266.5t-113.5 -198t-178 -121.5t-228.5 -41q-134 0 -242 40t-183.5 119t-115 197t-39.5 266v875h172zM899 1610h-106l-281 348h178z" />
<glyph unicode="&#xda;" horiz-adv-x="1493" d="M350 1450v-848q0 -161 46.5 -271t137.5 -164t224 -54q197 0 300 125t103 370v842h156v-870q0 -149 -39 -266.5t-113.5 -198t-178 -121.5t-228.5 -41q-134 0 -242 40t-183.5 119t-115 197t-39.5 266v875h172zM625 1610l209 348h178l-281 -348h-106z" />
<glyph unicode="&#xdb;" horiz-adv-x="1493" d="M350 1450v-848q0 -161 46.5 -271t137.5 -164t224 -54q197 0 300 125t103 370v842h156v-870q0 -149 -39 -266.5t-113.5 -198t-178 -121.5t-228.5 -41q-134 0 -242 40t-183.5 119t-115 197t-39.5 266v875h172zM475 1610l197 348h178l197 -348h-107l-178 243l-180 -243h-107 z" />
<glyph unicode="&#xdc;" horiz-adv-x="1493" d="M350 1450v-848q0 -161 46.5 -271t137.5 -164t224 -54q197 0 300 125t103 370v842h156v-870q0 -149 -39 -266.5t-113.5 -198t-178 -121.5t-228.5 -41q-134 0 -242 40t-183.5 119t-115 197t-39.5 266v875h172zM488 1767q0 27 13.5 50.5t36 37t48.5 13.5q20 0 37.5 -7.5 t32.5 -22.5t22.5 -33t7.5 -38q0 -28 -13.5 -51t-37 -36t-49.5 -13q-41 0 -69.5 29.5t-28.5 70.5zM838 1767q0 39 31 70t69 31q26 0 48.5 -13.5t36 -37t13.5 -50.5q0 -41 -28.5 -70.5t-69.5 -29.5q-26 0 -49.5 13t-37 36t-13.5 51z" />
<glyph unicode="&#xdd;" horiz-adv-x="1233" d="M514 0v625l-559 825h201l450 -666l486 666h190l-596 -811v-639h-172zM479 1610l209 348h178l-281 -348h-106z" />
<glyph unicode="&#xde;" horiz-adv-x="1186" d="M195 1450h170v-283h137q157 0 262.5 -21.5t189.5 -82.5q53 -38 91 -89.5t57.5 -113t19.5 -121.5q0 -144 -72 -247.5t-215.5 -159.5t-342.5 -56q-48 0 -127 7v-283h-170v1450zM365 1026v-600h147q144 0 242 36t147 103.5t49 165.5q0 80 -29.5 136.5t-86 91t-144.5 51 t-207 16.5h-118z" />
<glyph unicode="&#xdf;" horiz-adv-x="1124" d="M147 0v854q0 130 10 219t38 156q47 112 147.5 176.5t235.5 64.5q100 0 184 -46t132 -127.5t48 -180.5q0 -94 -44 -166.5t-138 -138.5q96 -30 161.5 -87.5t99.5 -140.5t34 -186q0 -124 -49 -224t-137 -156t-197 -56q-92 0 -157 43.5t-116 138.5l121 88q33 -70 72 -103.5 t92 -33.5q90 0 146.5 84.5t56.5 237.5q0 150 -87.5 234.5t-246.5 84.5h-27v125h15q115 0 180 67t65 179q0 118 -59.5 183t-163.5 65q-91 0 -147 -47.5t-81.5 -142.5t-25.5 -236v-928h-162z" />
<glyph unicode="&#xe0;" horiz-adv-x="1118" d="M987 0l-143 -43q-13 32 -25 96q-166 -94 -309 -94q-95 0 -175.5 34t-139.5 98.5t-91 154t-32 192.5q0 108 33.5 199t97.5 157t153 101t199 35q107 0 252 -45l162 16v-702q0 -86 18 -199zM807 166v577q-127 62 -234 62q-100 0 -175.5 -46t-117.5 -130.5t-42 -194.5 q0 -162 83 -257t222 -95q61 0 121.5 21t142.5 63zM737 1055h-106l-281 348h178z" />
<glyph unicode="&#xe1;" horiz-adv-x="1118" d="M987 0l-143 -43q-13 32 -25 96q-166 -94 -309 -94q-95 0 -175.5 34t-139.5 98.5t-91 154t-32 192.5q0 108 33.5 199t97.5 157t153 101t199 35q107 0 252 -45l162 16v-702q0 -86 18 -199zM807 166v577q-127 62 -234 62q-100 0 -175.5 -46t-117.5 -130.5t-42 -194.5 q0 -162 83 -257t222 -95q61 0 121.5 21t142.5 63zM463 1055l209 348h178l-281 -348h-106z" />
<glyph unicode="&#xe2;" horiz-adv-x="1118" d="M987 0l-143 -43q-13 32 -25 96q-166 -94 -309 -94q-95 0 -175.5 34t-139.5 98.5t-91 154t-32 192.5q0 108 33.5 199t97.5 157t153 101t199 35q107 0 252 -45l162 16v-702q0 -86 18 -199zM807 166v577q-127 62 -234 62q-100 0 -175.5 -46t-117.5 -130.5t-42 -194.5 q0 -162 83 -257t222 -95q61 0 121.5 21t142.5 63zM313 1055l197 348h178l197 -348h-107l-178 243l-180 -243h-107z" />
<glyph unicode="&#xe3;" horiz-adv-x="1118" d="M987 0l-143 -43q-13 32 -25 96q-166 -94 -309 -94q-95 0 -175.5 34t-139.5 98.5t-91 154t-32 192.5q0 108 33.5 199t97.5 157t153 101t199 35q107 0 252 -45l162 16v-702q0 -86 18 -199zM807 166v577q-127 62 -234 62q-100 0 -175.5 -46t-117.5 -130.5t-42 -194.5 q0 -162 83 -257t222 -95q61 0 121.5 21t142.5 63zM891 1323q-17 -65 -45 -107t-67 -64t-87 -22q-28 0 -65 11l-80 26q-24 9 -53 9q-67 0 -97 -64h-88q22 92 74 139t125 47q35 0 59 -8l78 -28q33 -11 61 -11q71 0 97 72h88z" />
<glyph unicode="&#xe4;" horiz-adv-x="1118" d="M987 0l-143 -43q-13 32 -25 96q-166 -94 -309 -94q-95 0 -175.5 34t-139.5 98.5t-91 154t-32 192.5q0 108 33.5 199t97.5 157t153 101t199 35q107 0 252 -45l162 16v-702q0 -86 18 -199zM807 166v577q-127 62 -234 62q-100 0 -175.5 -46t-117.5 -130.5t-42 -194.5 q0 -162 83 -257t222 -95q61 0 121.5 21t142.5 63zM326 1212q0 27 13.5 50.5t36 37t48.5 13.5q20 0 37.5 -7.5t32.5 -22.5t22.5 -33t7.5 -38q0 -28 -13.5 -51t-37 -36t-49.5 -13q-41 0 -69.5 29.5t-28.5 70.5zM676 1212q0 39 31 70t69 31q26 0 48.5 -13.5t36 -37t13.5 -50.5 q0 -41 -28.5 -70.5t-69.5 -29.5q-26 0 -49.5 13t-37 36t-13.5 51z" />
<glyph unicode="&#xe5;" horiz-adv-x="1118" d="M987 0l-143 -43q-13 32 -25 96q-166 -94 -309 -94q-95 0 -175.5 34t-139.5 98.5t-91 154t-32 192.5q0 108 33.5 199t97.5 157t153 101t199 35q107 0 252 -45l162 16v-702q0 -86 18 -199zM807 166v577q-127 62 -234 62q-100 0 -175.5 -46t-117.5 -130.5t-42 -194.5 q0 -162 83 -257t222 -95q61 0 121.5 21t142.5 63zM340 1239q0 104 72 174t172 70q101 0 172 -70t71 -174q0 -100 -71 -172t-172 -72q-100 0 -172 72t-72 172zM440 1239q0 -59 43 -101t101 -42q39 0 71 19t51 52t19 72q0 60 -40.5 101.5t-100.5 41.5q-59 0 -101.5 -42.5 t-42.5 -100.5z" />
<glyph unicode="&#xe6;" horiz-adv-x="1659" d="M797 123q-106 -83 -215 -124.5t-222 -41.5q-154 0 -236.5 66.5t-82.5 183.5q0 292 496 313l165 6v84q0 64 -24 109t-70 68.5t-108 23.5q-140 0 -336 -115l10 150q213 98 346 98q209 0 303 -160q155 158 363 158q187 0 297 -112.5t110 -311.5q0 -12 -0.5 -20t-1.5 -19 l-18 -41l-711 -22q1 -100 38.5 -173t108 -112t162.5 -39q175 0 369 158l-10 -162q-82 -64 -177.5 -96.5t-203.5 -32.5q-227 0 -352 164zM702 205v205l-165 -7q-173 -6 -255.5 -50t-82.5 -138q0 -61 44.5 -97t125.5 -36q180 0 333 123zM1444 551q-4 124 -77 198t-189 74 q-78 0 -146 -37t-111.5 -105t-52.5 -153z" />
<glyph unicode="&#xe7;" horiz-adv-x="963" d="M885 55q-160 -96 -336 -96q-102 0 -190 35t-151.5 100t-98.5 153t-35 193q0 114 34.5 206t101.5 160t158.5 103t206.5 35q160 0 324 -80l-20 -145q-163 90 -301 90q-103 0 -180 -43t-119.5 -124t-42.5 -187q0 -111 41 -192.5t117 -125t173 -43.5q163 0 340 137zM280 -424 v88q168 -37 248 -37q121 0 121 84q0 53 -32 76t-101 23q-31 0 -58 -3v193h72v-106h23q112 0 169.5 -45t57.5 -132q0 -88 -63.5 -135t-186.5 -47q-94 0 -250 41z" />
<glyph unicode="&#xe8;" horiz-adv-x="1042" d="M922 250l-9 -162q-82 -63 -176.5 -96t-191.5 -33q-100 0 -187 34.5t-149.5 96.5t-96.5 146.5t-34 185.5q0 112 38 210.5t104.5 167t156 105.5t192.5 37q187 0 297.5 -112.5t110.5 -311.5q0 -12 -0.5 -20t-1.5 -19l-19 -41l-720 -24q9 -104 48.5 -175.5t108.5 -109 t160 -37.5q175 0 369 158zM827 551q-3 84 -37.5 145t-93 94t-135.5 33t-144.5 -36.5t-112.5 -103.5t-58 -155zM723 1055h-106l-281 348h178z" />
<glyph unicode="&#xe9;" horiz-adv-x="1042" d="M922 250l-9 -162q-82 -63 -176.5 -96t-191.5 -33q-100 0 -187 34.5t-149.5 96.5t-96.5 146.5t-34 185.5q0 112 38 210.5t104.5 167t156 105.5t192.5 37q187 0 297.5 -112.5t110.5 -311.5q0 -12 -0.5 -20t-1.5 -19l-19 -41l-720 -24q9 -104 48.5 -175.5t108.5 -109 t160 -37.5q175 0 369 158zM827 551q-3 84 -37.5 145t-93 94t-135.5 33t-144.5 -36.5t-112.5 -103.5t-58 -155zM449 1055l209 348h178l-281 -348h-106z" />
<glyph unicode="&#xea;" horiz-adv-x="1042" d="M922 250l-9 -162q-82 -63 -176.5 -96t-191.5 -33q-100 0 -187 34.5t-149.5 96.5t-96.5 146.5t-34 185.5q0 112 38 210.5t104.5 167t156 105.5t192.5 37q187 0 297.5 -112.5t110.5 -311.5q0 -12 -0.5 -20t-1.5 -19l-19 -41l-720 -24q9 -104 48.5 -175.5t108.5 -109 t160 -37.5q175 0 369 158zM827 551q-3 84 -37.5 145t-93 94t-135.5 33t-144.5 -36.5t-112.5 -103.5t-58 -155zM299 1055l197 348h178l197 -348h-107l-178 243l-180 -243h-107z" />
<glyph unicode="&#xeb;" horiz-adv-x="1042" d="M922 250l-9 -162q-82 -63 -176.5 -96t-191.5 -33q-100 0 -187 34.5t-149.5 96.5t-96.5 146.5t-34 185.5q0 112 38 210.5t104.5 167t156 105.5t192.5 37q187 0 297.5 -112.5t110.5 -311.5q0 -12 -0.5 -20t-1.5 -19l-19 -41l-720 -24q9 -104 48.5 -175.5t108.5 -109 t160 -37.5q175 0 369 158zM827 551q-3 84 -37.5 145t-93 94t-135.5 33t-144.5 -36.5t-112.5 -103.5t-58 -155zM312 1212q0 27 13.5 50.5t36 37t48.5 13.5q20 0 37.5 -7.5t32.5 -22.5t22.5 -33t7.5 -38q0 -28 -13.5 -51t-37 -36t-49.5 -13q-41 0 -69.5 29.5t-28.5 70.5z M662 1212q0 39 31 70t69 31q26 0 48.5 -13.5t36 -37t13.5 -50.5q0 -41 -28.5 -70.5t-69.5 -29.5q-26 0 -49.5 13t-37 36t-13.5 51z" />
<glyph unicode="&#xec;" horiz-adv-x="469" d="M317 0h-165v901l165 43v-944zM373 1055h-106l-281 348h178z" />
<glyph unicode="&#xed;" horiz-adv-x="469" d="M317 0h-165v901l165 43v-944zM99 1055l209 348h178l-281 -348h-106z" />
<glyph unicode="&#xee;" horiz-adv-x="469" d="M317 0h-165v901l165 43v-944zM-51 1055l197 348h178l197 -348h-107l-178 243l-180 -243h-107z" />
<glyph unicode="&#xef;" horiz-adv-x="469" d="M317 0h-165v901l165 43v-944zM-38 1212q0 27 13.5 50.5t36 37t48.5 13.5q20 0 37.5 -7.5t32.5 -22.5t22.5 -33t7.5 -38q0 -28 -13.5 -51t-37 -36t-49.5 -13q-41 0 -69.5 29.5t-28.5 70.5zM312 1212q0 39 31 70t69 31q26 0 48.5 -13.5t36 -37t13.5 -50.5 q0 -41 -28.5 -70.5t-69.5 -29.5q-26 0 -49.5 13t-37 36t-13.5 51z" />
<glyph unicode="&#xf0;" horiz-adv-x="1110" d="M565 823q-149 0 -238 -100t-89 -272q0 -111 40.5 -196.5t113 -131t161.5 -45.5q92 0 163.5 45.5t112.5 131.5t41 196q0 121 -36 204t-104 125.5t-165 42.5zM774 870q-85 143 -223 281l-293 -152l-43 84l262 136q-95 79 -178 139l66 98q136 -87 235 -168l246 133l45 -82 l-219 -118q120 -120 202 -246t123 -253t41 -251q0 -154 -62.5 -269.5t-171.5 -179t-249 -63.5q-136 0 -245.5 62t-172.5 175.5t-63 254.5q0 106 37 197t100 156.5t145.5 101.5t173.5 36q150 0 244 -72z" />
<glyph unicode="&#xf1;" horiz-adv-x="1128" d="M309 0h-162v901h162v-182q80 101 176 154t199 53q101 0 172 -41t108 -124.5t37 -203.5v-557h-161v537q0 125 -45.5 186t-147.5 61q-62 0 -123 -22.5t-109 -67.5t-77 -114t-29 -160v-420zM879 1323q-17 -65 -45 -107t-67 -64t-87 -22q-28 0 -65 11l-80 26q-24 9 -53 9 q-67 0 -97 -64h-88q22 92 74 139t125 47q35 0 59 -8l78 -28q33 -11 61 -11q71 0 97 72h88z" />
<glyph unicode="&#xf2;" horiz-adv-x="1110" d="M74 451q0 108 36.5 198.5t101 155.5t152 101t191.5 36q136 0 246 -62.5t172.5 -175t62.5 -253.5q0 -140 -62.5 -253.5t-172.5 -176t-246 -62.5q-137 0 -246 62.5t-172 176t-63 253.5zM238 451q0 -111 40.5 -196.5t113 -131t161.5 -45.5q92 0 163.5 45.5t112.5 131.5 t41 196t-40.5 195.5t-112.5 131t-164 45.5q-89 0 -161 -45t-113 -130.5t-41 -196.5zM702 1055h-106l-281 348h178z" />
<glyph unicode="&#xf3;" horiz-adv-x="1110" d="M74 451q0 108 36.5 198.5t101 155.5t152 101t191.5 36q136 0 246 -62.5t172.5 -175t62.5 -253.5q0 -140 -62.5 -253.5t-172.5 -176t-246 -62.5q-137 0 -246 62.5t-172 176t-63 253.5zM238 451q0 -111 40.5 -196.5t113 -131t161.5 -45.5q92 0 163.5 45.5t112.5 131.5 t41 196t-40.5 195.5t-112.5 131t-164 45.5q-89 0 -161 -45t-113 -130.5t-41 -196.5zM428 1055l209 348h178l-281 -348h-106z" />
<glyph unicode="&#xf4;" horiz-adv-x="1110" d="M74 451q0 108 36.5 198.5t101 155.5t152 101t191.5 36q136 0 246 -62.5t172.5 -175t62.5 -253.5q0 -140 -62.5 -253.5t-172.5 -176t-246 -62.5q-137 0 -246 62.5t-172 176t-63 253.5zM238 451q0 -111 40.5 -196.5t113 -131t161.5 -45.5q92 0 163.5 45.5t112.5 131.5 t41 196t-40.5 195.5t-112.5 131t-164 45.5q-89 0 -161 -45t-113 -130.5t-41 -196.5zM278 1055l197 348h178l197 -348h-107l-178 243l-180 -243h-107z" />
<glyph unicode="&#xf5;" horiz-adv-x="1110" d="M74 451q0 108 36.5 198.5t101 155.5t152 101t191.5 36q136 0 246 -62.5t172.5 -175t62.5 -253.5q0 -140 -62.5 -253.5t-172.5 -176t-246 -62.5q-137 0 -246 62.5t-172 176t-63 253.5zM238 451q0 -111 40.5 -196.5t113 -131t161.5 -45.5q92 0 163.5 45.5t112.5 131.5 t41 196t-40.5 195.5t-112.5 131t-164 45.5q-89 0 -161 -45t-113 -130.5t-41 -196.5zM856 1323q-17 -65 -45 -107t-67 -64t-87 -22q-28 0 -65 11l-80 26q-24 9 -53 9q-67 0 -97 -64h-88q22 92 74 139t125 47q35 0 59 -8l78 -28q33 -11 61 -11q71 0 97 72h88z" />
<glyph unicode="&#xf6;" horiz-adv-x="1110" d="M74 451q0 108 36.5 198.5t101 155.5t152 101t191.5 36q136 0 246 -62.5t172.5 -175t62.5 -253.5q0 -140 -62.5 -253.5t-172.5 -176t-246 -62.5q-137 0 -246 62.5t-172 176t-63 253.5zM238 451q0 -111 40.5 -196.5t113 -131t161.5 -45.5q92 0 163.5 45.5t112.5 131.5 t41 196t-40.5 195.5t-112.5 131t-164 45.5q-89 0 -161 -45t-113 -130.5t-41 -196.5zM291 1212q0 27 13.5 50.5t36 37t48.5 13.5q20 0 37.5 -7.5t32.5 -22.5t22.5 -33t7.5 -38q0 -28 -13.5 -51t-37 -36t-49.5 -13q-41 0 -69.5 29.5t-28.5 70.5zM641 1212q0 39 31 70t69 31 q26 0 48.5 -13.5t36 -37t13.5 -50.5q0 -41 -28.5 -70.5t-69.5 -29.5q-26 0 -49.5 13t-37 36t-13.5 51z" />
<glyph unicode="&#xf7;" horiz-adv-x="1706" d="M854 1085q48 0 81.5 -33.5t33.5 -80.5q0 -48 -32.5 -81.5t-82.5 -33.5q-49 0 -82 33t-33 82q0 46 35 80t80 34zM1452 670v-117h-1198v117h1198zM854 365q46 0 80.5 -33.5t34.5 -81.5t-32.5 -81.5t-82.5 -33.5q-46 0 -80.5 33.5t-34.5 81.5q0 47 34 81t81 34z" />
<glyph unicode="&#xf8;" horiz-adv-x="1110" d="M158 -72h-152l176 199q-108 136 -108 324q0 108 36.5 198.5t101 155.5t152 101t191.5 36q158 0 285 -90l112 121h154l-180 -201q110 -138 110 -321q0 -140 -62.5 -253.5t-172.5 -176t-246 -62.5q-155 0 -291 90zM752 752q-86 71 -199 71q-89 0 -161 -45t-113 -130.5 t-41 -196.5q0 -120 47 -213zM823 659l-471 -514q104 -67 201 -67q92 0 164 45.5t112.5 131t40.5 196.5q0 124 -47 208z" />
<glyph unicode="&#xf9;" horiz-adv-x="1128" d="M137 901h162v-557q0 -125 45.5 -185.5t147.5 -60.5q84 0 162.5 40.5t126.5 123t48 201.5v438h162v-901l-147 -43l-10 203q-176 -203 -379 -203q-101 0 -172.5 41.5t-108.5 124.5t-37 203v575zM706 1055h-106l-281 348h178z" />
<glyph unicode="&#xfa;" horiz-adv-x="1128" d="M137 901h162v-557q0 -125 45.5 -185.5t147.5 -60.5q84 0 162.5 40.5t126.5 123t48 201.5v438h162v-901l-147 -43l-10 203q-176 -203 -379 -203q-101 0 -172.5 41.5t-108.5 124.5t-37 203v575zM432 1055l209 348h178l-281 -348h-106z" />
<glyph unicode="&#xfb;" horiz-adv-x="1128" d="M137 901h162v-557q0 -125 45.5 -185.5t147.5 -60.5q84 0 162.5 40.5t126.5 123t48 201.5v438h162v-901l-147 -43l-10 203q-176 -203 -379 -203q-101 0 -172.5 41.5t-108.5 124.5t-37 203v575zM282 1055l197 348h178l197 -348h-107l-178 243l-180 -243h-107z" />
<glyph unicode="&#xfc;" horiz-adv-x="1128" d="M137 901h162v-557q0 -125 45.5 -185.5t147.5 -60.5q84 0 162.5 40.5t126.5 123t48 201.5v438h162v-901l-147 -43l-10 203q-176 -203 -379 -203q-101 0 -172.5 41.5t-108.5 124.5t-37 203v575zM295 1212q0 27 13.5 50.5t36 37t48.5 13.5q20 0 37.5 -7.5t32.5 -22.5 t22.5 -33t7.5 -38q0 -28 -13.5 -51t-37 -36t-49.5 -13q-41 0 -69.5 29.5t-28.5 70.5zM645 1212q0 39 31 70t69 31q26 0 48.5 -13.5t36 -37t13.5 -50.5q0 -41 -28.5 -70.5t-69.5 -29.5q-26 0 -49.5 13t-37 36t-13.5 51z" />
<glyph unicode="&#xfd;" horiz-adv-x="868" d="M-2 901h174l270 -708l297 708h140l-430 -993q-114 -255 -164 -344h-179q64 66 111.5 144t89.5 171l58 125zM297 1055l209 348h178l-281 -348h-106z" />
<glyph unicode="&#xfe;" horiz-adv-x="1112" d="M309 -393l-162 -43v1863l162 43v-614q156 76 283 76q136 0 239 -60t158 -167.5t55 -251.5t-59.5 -256t-169 -174t-254.5 -62q-112 0 -252 45v-399zM309 725v-578q135 -61 234 -61q100 0 176 46t118 130.5t42 194.5q0 163 -83 257.5t-221 94.5q-60 0 -121.5 -20.5 t-144.5 -63.5z" />
<glyph unicode="&#xff;" horiz-adv-x="868" d="M-2 901h174l270 -708l297 708h140l-430 -993q-114 -255 -164 -344h-179q64 66 111.5 144t89.5 171l58 125zM160 1212q0 27 13.5 50.5t36 37t48.5 13.5q20 0 37.5 -7.5t32.5 -22.5t22.5 -33t7.5 -38q0 -28 -13.5 -51t-37 -36t-49.5 -13q-41 0 -69.5 29.5t-28.5 70.5z M510 1212q0 39 31 70t69 31q26 0 48.5 -13.5t36 -37t13.5 -50.5q0 -41 -28.5 -70.5t-69.5 -29.5q-26 0 -49.5 13t-37 36t-13.5 51z" />
<glyph unicode="&#x131;" horiz-adv-x="469" d="M317 0h-165v901l165 43v-944z" />
<glyph unicode="&#x152;" horiz-adv-x="1849" d="M909 0q-112 0 -205 11t-173.5 37.5t-143.5 70.5q-95 64 -162.5 156t-103 206t-35.5 244q0 194 79 354t222 256q66 46 147 72t173 34.5t202 8.5h797v-145h-629v-474h543v-147h-543v-528h637v-156h-805zM909 156v1149h-82q-171 0 -300 -70t-197 -199t-68 -305 q0 -177 68.5 -306t199 -199t306.5 -70h73z" />
<glyph unicode="&#x153;" horiz-adv-x="1831" d="M946 152q-80 -98 -175.5 -145.5t-215.5 -47.5q-136 0 -245.5 62t-172.5 175.5t-63 254.5q0 108 36.5 198.5t101 155.5t152 101t191.5 36q261 0 399 -209q154 209 402 209q187 0 297 -112.5t110 -311.5q0 -12 -0.5 -20t-1.5 -19l-18 -41l-713 -22q2 -150 85.5 -237 t225.5 -87q90 0 179 38.5t188 119.5l-8 -162q-169 -129 -369 -129q-237 0 -385 193zM238 451q0 -111 40.5 -196.5t113 -131t161.5 -45.5q92 0 163.5 45.5t112.5 131.5t41 196t-40.5 195.5t-112.5 131t-164 45.5q-89 0 -161 -45t-113 -130.5t-41 -196.5zM1614 551 q-4 123 -77 197.5t-183 74.5q-78 0 -148 -36.5t-115.5 -104.5t-54.5 -154z" />
<glyph unicode="&#x178;" horiz-adv-x="1233" d="M514 0v625l-559 825h201l450 -666l486 666h190l-596 -811v-639h-172zM342 1767q0 27 13.5 50.5t36 37t48.5 13.5q20 0 37.5 -7.5t32.5 -22.5t22.5 -33t7.5 -38q0 -28 -13.5 -51t-37 -36t-49.5 -13q-41 0 -69.5 29.5t-28.5 70.5zM692 1767q0 39 31 70t69 31 q26 0 48.5 -13.5t36 -37t13.5 -50.5q0 -41 -28.5 -70.5t-69.5 -29.5q-26 0 -49.5 13t-37 36t-13.5 51z" />
<glyph unicode="&#x2c6;" d="M225 1055l197 348h178l197 -348h-107l-178 243l-180 -243h-107z" />
<glyph unicode="&#x2dc;" d="M803 1323q-17 -65 -45 -107t-67 -64t-87 -22q-28 0 -65 11l-80 26q-24 9 -53 9q-67 0 -97 -64h-88q22 92 74 139t125 47q35 0 59 -8l78 -28q33 -11 61 -11q71 0 97 72h88z" />
<glyph unicode="&#x2000;" horiz-adv-x="986" />
<glyph unicode="&#x2001;" horiz-adv-x="1972" />
<glyph unicode="&#x2002;" horiz-adv-x="986" />
<glyph unicode="&#x2003;" horiz-adv-x="1972" />
<glyph unicode="&#x2004;" horiz-adv-x="657" />
<glyph unicode="&#x2005;" horiz-adv-x="493" />
<glyph unicode="&#x2006;" horiz-adv-x="328" />
<glyph unicode="&#x2007;" horiz-adv-x="328" />
<glyph unicode="&#x2008;" horiz-adv-x="246" />
<glyph unicode="&#x2009;" horiz-adv-x="394" />
<glyph unicode="&#x200a;" horiz-adv-x="109" />
<glyph unicode="&#x2010;" horiz-adv-x="664" d="M76 379v143h512v-143h-512z" />
<glyph unicode="&#x2011;" horiz-adv-x="664" d="M76 379v143h512v-143h-512z" />
<glyph unicode="&#x2013;" d="M0 397v105h1024v-105h-1024z" />
<glyph unicode="&#x2014;" horiz-adv-x="2048" d="M0 502h2048v-105h-2048v105z" />
<glyph unicode="&#x2018;" horiz-adv-x="584" d="M475 1450l-188 -518h-181l222 518h147z" />
<glyph unicode="&#x2019;" horiz-adv-x="584" d="M475 1450l-188 -518h-181l222 518h147z" />
<glyph unicode="&#x201a;" horiz-adv-x="584" d="M414 178l-187 -518h-180l219 518h148z" />
<glyph unicode="&#x201c;" horiz-adv-x="948" d="M473 1450l-186 -518h-181l220 518h147zM840 1450l-189 -518h-178l217 518h150z" />
<glyph unicode="&#x201d;" horiz-adv-x="948" d="M473 1450l-186 -518h-181l220 518h147zM840 1450l-189 -518h-178l217 518h150z" />
<glyph unicode="&#x201e;" horiz-adv-x="948" d="M414 178l-187 -518h-180l219 518h148zM780 178l-188 -518h-178l217 518h149z" />
<glyph unicode="&#x2022;" horiz-adv-x="1208" d="M307 762q0 79 39.5 147.5t108 108t149.5 39.5q80 0 147.5 -39.5t107.5 -108t40 -147.5t-40 -147.5t-108.5 -109t-148.5 -40.5q-79 0 -147.5 39.5t-108 108t-39.5 149.5z" />
<glyph unicode="&#x2026;" horiz-adv-x="2048" d="M231 84q0 43 32 76t77 33q46 0 78.5 -31t32.5 -78q0 -44 -34 -76.5t-77 -32.5t-76 33t-33 76zM913 84q0 43 32 76t77 33q46 0 78.5 -31t32.5 -78q0 -44 -34 -76.5t-77 -32.5t-76 33t-33 76zM1597 84q0 43 32 76t77 33q46 0 78.5 -31t32.5 -78q0 -44 -34 -76.5t-77 -32.5 t-76 33t-33 76z" />
<glyph unicode="&#x202f;" horiz-adv-x="394" />
<glyph unicode="&#x2039;" horiz-adv-x="584" d="M342 137l-254 314l254 313h152l-244 -313l244 -314h-152z" />
<glyph unicode="&#x203a;" horiz-adv-x="584" d="M240 764l254 -313l-254 -314h-152l244 314l-244 313h152z" />
<glyph unicode="&#x205f;" horiz-adv-x="493" />
<glyph unicode="&#x2122;" horiz-adv-x="1706" d="M694 1456v-67h-172v-467h-94v467h-174v67h440zM948 1456l160 -405l149 405h132v-534h-82v458l-172 -458h-54l-180 458v-458h-82v534h129z" />
</font>
</defs>
</svg>
