<?xml version="1.0" standalone="no"?>
<!DOCTYPE svg PUBLIC "-//W3C//DTD SVG 1.1//EN" "http://www.w3.org/Graphics/SVG/1.1/DTD/svg11.dtd" >
<svg xmlns="http://www.w3.org/2000/svg">
<metadata>
This is a custom SVG webfont generated by Font Squirrel.
</metadata>
<defs>
<font id="webfontrhZoywil" horiz-adv-x="1176" >
<font-face units-per-em="2048" ascent="1638" descent="-410" />
<missing-glyph horiz-adv-x="588" />
<glyph unicode=" "  horiz-adv-x="588" />
<glyph unicode="&#x09;" horiz-adv-x="588" />
<glyph unicode="&#xa0;" horiz-adv-x="588" />
<glyph unicode="!" horiz-adv-x="645" d="M268 420q-36 251 -52.5 392t-28 282t-11.5 262q0 18 -0.5 29t-1.5 24q0 15 4 39l291 49q0 -211 -32.5 -474t-92.5 -603h-76zM176 104q0 54 38 93t91 39q37 0 66.5 -17t47 -48t17.5 -67q0 -54 -38.5 -91.5t-92.5 -37.5q-33 0 -63 18t-48 48t-18 63z" />
<glyph unicode="&#x22;" horiz-adv-x="643" d="M86 1436h164v-557h-164v557zM395 1436h164v-557h-164v557z" />
<glyph unicode="#" horiz-adv-x="1575" d="M735 1460h191l-154 -436h250l156 436h190l-154 -436h291l-59 -172h-293l-90 -252h309l-61 -172h-307l-156 -434h-191l156 434h-252l-158 -434h-190l156 434h-299l61 172h297l90 252h-315l61 172h316zM709 852l-91 -254h256l91 254h-256z" />
<glyph unicode="$" d="M131 322q116 -74 211 -111t193 -37v492l-68 41q-108 65 -172 122t-98.5 128t-34.5 159q0 99 45.5 181.5t130.5 134t197 63.5v188h106v-184q139 0 326 -88l-9 -231q-154 100 -317 114v-413l68 -39q168 -94 251.5 -205.5t83.5 -253.5q0 -116 -48.5 -210t-141.5 -151.5 t-213 -66.5v-248h-106v244h-13q-179 0 -368 86zM641 602v-414q77 27 118.5 76t41.5 113q0 67 -37.5 119t-122.5 106zM537 946v340q-69 -15 -106.5 -56.5t-37.5 -99.5q0 -55 31.5 -91t112.5 -93z" />
<glyph unicode="%" horiz-adv-x="1554" d="M53 1147q0 96 47.5 175.5t128.5 127t177 47.5q75 0 139 -26.5t111 -73.5t73.5 -111t26.5 -139q0 -96 -47.5 -177t-127 -128t-175.5 -47q-94 0 -175.5 47t-129.5 129.5t-48 175.5zM227 1147q0 -73 53.5 -127.5t125.5 -54.5q46 0 88 24t66 65.5t24 92.5q0 48 -24 90.5 t-65 67t-89 24.5q-50 0 -91 -25t-64.5 -67t-23.5 -90zM1167 1497h144l-924 -1544h-143zM799 303q0 95 46.5 176t128 128.5t175.5 47.5q71 0 137.5 -27.5t113 -74t74 -113t27.5 -137.5q0 -94 -48 -175.5t-128.5 -128t-175.5 -46.5t-176 47.5t-127.5 127.5t-46.5 175zM971 303 q0 -73 53.5 -127.5t124.5 -54.5q46 0 87.5 24.5t66 66t24.5 91.5q0 48 -24 90.5t-65 67t-89 24.5q-49 0 -90 -25t-64.5 -67t-23.5 -90z" />
<glyph unicode="&#x26;" horiz-adv-x="1436" d="M1067 0l-66 86q-81 -64 -180 -96.5t-213 -32.5q-156 0 -273.5 58.5t-182 163.5t-64.5 231q0 141 82 250.5t250 201.5q-73 103 -109.5 177t-36.5 143q0 88 46.5 162.5t129.5 116.5t189 42q78 0 145.5 -24.5t115.5 -68.5t74.5 -105t26.5 -134q0 -99 -60.5 -183t-188.5 -165 l290 -381q75 119 121 256l197 -59q-46 -209 -176 -379l196 -260h-313zM872 262l-331 440q-195 -122 -195 -268q0 -113 78.5 -190.5t196.5 -77.5q131 0 251 96zM629 985q85 49 123.5 95t38.5 106q0 61 -41.5 100t-102.5 39q-60 0 -100.5 -35.5t-40.5 -89.5q0 -52 53 -121z " />
<glyph unicode="'" horiz-adv-x="334" d="M86 1436h164v-557h-164v557z" />
<glyph unicode="(" horiz-adv-x="688" d="M631 1450q-97 -159 -160.5 -302.5t-96 -284t-32.5 -288.5q0 -104 19.5 -216.5t56.5 -220.5t87.5 -211t125.5 -228h-221q-75 119 -125 222.5t-86.5 217t-54 223t-17.5 213.5q0 146 31 290.5t93 288t159 296.5h221z" />
<glyph unicode=")" horiz-adv-x="688" d="M57 -301q98 161 160 302.5t94.5 284t32.5 289.5q0 115 -18.5 222t-53.5 211.5t-91.5 219t-123.5 222.5h219q285 -443 285 -875q0 -433 -285 -876h-219z" />
<glyph unicode="*" horiz-adv-x="1042" d="M520 989l-164 -323l-170 125l256 256l-354 61l64 195l321 -164l-49 358h194l-49 -358l322 164l63 -195l-354 -61l256 -256l-168 -125z" />
<glyph unicode="+" horiz-adv-x="1706" d="M768 1221h170v-527h514v-166h-514v-528h-170v528h-514v166h514v527z" />
<glyph unicode="," horiz-adv-x="588" d="M31 -340l172 528h231l-209 -528h-194z" />
<glyph unicode="-" horiz-adv-x="682" d="M80 344v213h522v-213h-522z" />
<glyph unicode="." horiz-adv-x="588" d="M164 104q0 53 38.5 92.5t90.5 39.5q37 0 66.5 -17t47 -48t17.5 -67q0 -54 -38.5 -91.5t-92.5 -37.5q-52 0 -90.5 38.5t-38.5 90.5z" />
<glyph unicode="/" horiz-adv-x="592" d="M645 1497l-541 -1687h-129l539 1687h131z" />
<glyph unicode="0" d="M76 725q0 244 63 419t179 264t270 89q155 0 271 -89.5t178.5 -262.5t62.5 -420t-62.5 -420t-178.5 -262.5t-271 -89.5q-154 0 -270 89t-179 264t-63 419zM332 725q0 -126 19 -228.5t53.5 -170.5t81.5 -103t102 -35q75 0 134 61t91.5 183.5t32.5 292.5t-32.5 292.5 t-91 183.5t-134.5 61q-75 0 -133.5 -61.5t-90.5 -184.5t-32 -291z" />
<glyph unicode="1" d="M492 0v1247h-199l35 203h415v-1450h-251z" />
<glyph unicode="2" d="M53 0v66l543 614q103 117 150 196t47 162q0 66 -31 119t-86.5 83t-122.5 30q-96 0 -165.5 -59t-98.5 -167l-221 107q42 110 113.5 187.5t168.5 118t209 40.5q100 0 189 -33.5t155.5 -95t103.5 -144t37 -180.5q0 -89 -34.5 -179.5t-105.5 -188.5t-174 -205t-243 -235h627 l-39 -236h-1022z" />
<glyph unicode="3" d="M231 367q66 -89 142 -131.5t166 -42.5q109 0 178 61t69 156q0 115 -82.5 166t-254.5 51h-56v229h70q143 0 218 55t75 158q0 55 -27.5 102t-75 73t-110.5 26q-157 0 -285 -176l-164 155q201 250 469 250q126 0 228.5 -54.5t159.5 -148.5t57 -209q0 -109 -52 -190.5 t-151 -128.5q72 -28 128 -82t83.5 -122t27.5 -150q0 -132 -64 -237.5t-179.5 -164.5t-265.5 -59q-147 0 -268 58.5t-208 174.5z" />
<glyph unicode="4" d="M713 0v293h-643v205l622 952h256v-952h160v-205h-160v-293h-235zM721 498l14 708l-440 -708h426z" />
<glyph unicode="5" d="M229 326q133 -136 297 -136q123 0 206 80.5t83 200.5q0 85 -41 151t-116 104t-173 38q-76 0 -156 -22t-147 -60l31 768h786l-75 -236h-500l-14 -253q76 12 143 12q113 0 209 -37t164.5 -104t105.5 -159.5t37 -203.5q0 -143 -69 -261t-192.5 -185.5t-275.5 -67.5 q-91 0 -178 24.5t-164 73t-143 119.5z" />
<glyph unicode="6" d="M512 965q49 8 104 8q106 0 195.5 -36.5t154.5 -103.5t100.5 -161t35.5 -207q0 -142 -67.5 -258.5t-188 -184t-268.5 -67.5q-136 0 -253 69.5t-184 194.5t-67 281q0 404 549 950h342l-171 -164q-73 -74 -147 -157.5t-135 -163.5zM319 471q0 -119 79 -202t188 -83 q72 0 133.5 38t97 103.5t35.5 143.5t-35.5 143.5t-97 103.5t-133.5 38q-111 0 -189 -82t-78 -203z" />
<glyph unicode="7" d="M223 0l553 1219h-680v231h1039l-646 -1450h-266z" />
<glyph unicode="8" d="M358 797q-206 107 -206 311q0 107 55 195.5t154.5 138t226.5 49.5t226.5 -49.5t154.5 -138t55 -195.5q0 -204 -207 -311q131 -68 197.5 -169t66.5 -229q0 -122 -64 -224.5t-176 -161t-253 -58.5q-142 0 -255 58.5t-177 161t-64 224.5q0 83 30.5 157.5t89 134.5t146.5 106 zM588 893q190 66 190 207q0 51 -24.5 91.5t-68 63.5t-97.5 23q-83 0 -138 -51t-55 -127q0 -139 193 -207zM588 682q-238 -74 -238 -262q0 -102 69 -171t169 -69t167.5 66.5t67.5 167.5q0 103 -56 166.5t-179 101.5z" />
<glyph unicode="9" d="M659 487q-60 -10 -104 -10q-142 0 -252.5 65t-171.5 181.5t-61 263.5q0 105 39 198.5t110 163.5t167 109t208 39q103 0 196.5 -40t162 -112.5t108 -173t39.5 -219.5q0 -137 -61 -286.5t-186.5 -319.5t-303.5 -346h-342l164 158q78 79 154.5 166.5t133.5 162.5zM852 979 q0 79 -36 144.5t-97 103t-131 37.5q-112 0 -190.5 -82.5t-78.5 -202.5q0 -119 79 -202t190 -83q70 0 131.5 37.5t97 103t35.5 144.5z" />
<glyph unicode=":" horiz-adv-x="635" d="M186 104q0 53 39.5 92.5t91.5 39.5q37 0 67 -17.5t47.5 -47.5t17.5 -67q0 -54 -39.5 -91.5t-92.5 -37.5q-52 0 -91.5 38.5t-39.5 90.5zM186 799q0 52 39.5 91.5t91.5 39.5q37 0 67 -17.5t47.5 -46.5t17.5 -67q0 -53 -39 -91t-93 -38q-51 0 -91 39t-40 90z" />
<glyph unicode=";" horiz-adv-x="635" d="M37 -340l172 528h231l-207 -528h-196zM203 799q0 52 38.5 91.5t90.5 39.5q37 0 66.5 -17t47 -47t17.5 -67q0 -53 -39 -91t-92 -38q-51 0 -90 39t-39 90z" />
<glyph unicode="&#x3c;" horiz-adv-x="1706" d="M1442 1176v-185l-934 -381l934 -381v-182l-1178 483v160z" />
<glyph unicode="=" horiz-adv-x="1706" d="M254 901h1198v-168h-1198v168zM254 487h1198v-165h-1198v165z" />
<glyph unicode="&#x3e;" horiz-adv-x="1706" d="M264 1176l1178 -486v-160l-1178 -483v182l934 381l-934 381v185z" />
<glyph unicode="?" horiz-adv-x="1006" d="M205 104q0 53 38.5 92.5t90.5 39.5q37 0 66.5 -17t47 -48t17.5 -67q0 -54 -38.5 -91.5t-92.5 -37.5q-52 0 -90.5 38.5t-38.5 90.5zM229 399v389q193 24 295.5 98t102.5 187q0 63 -31 108.5t-90.5 71t-143.5 25.5q-62 0 -169 -16v217q129 18 208 18q139 0 246 -51 t164 -141t57 -201q0 -177 -108.5 -299t-321.5 -182v-181z" />
<glyph unicode="@" horiz-adv-x="2048" d="M1233 707q-14 85 -62 130.5t-122 45.5q-83 0 -153.5 -58.5t-112.5 -159t-42 -221.5q0 -98 46 -151t128 -53q89 0 163.5 66.5t99.5 172.5zM1174 283q-55 -87 -128.5 -127.5t-175.5 -40.5q-73 0 -132.5 22t-100 66t-60.5 105t-20 143q0 116 37 219.5t103 179t151.5 117 t179.5 41.5q173 0 248 -142l55 107h154l-148 -586q-8 -40 -8 -49q0 -37 26.5 -60.5t69.5 -23.5q49 0 106.5 30t106.5 85q148 156 148 393q0 166 -84 295t-237.5 201.5t-354.5 72.5q-276 0 -471 -125q-120 -75 -205 -180t-128.5 -234t-43.5 -272q0 -155 55 -282t156 -217 t243 -138.5t314 -48.5q166 0 324 49.5t291 141.5l67 -99q-302 -227 -674 -227q-387 0 -632 190q-308 235 -308 633q0 166 51.5 312.5t153.5 273.5q72 89 161 157t192 115t217.5 70t242.5 23q113 0 217 -20.5t193.5 -59t159.5 -93.5q133 -101 198.5 -234.5t65.5 -301.5 q0 -164 -64 -302t-186 -237q-141 -112 -318 -112q-106 0 -157 40.5t-51 125.5v4z" />
<glyph unicode="A" horiz-adv-x="1346" d="M219 0h-258l713 1497h20l688 -1497h-268l-117 258h-659zM432 465h475l-235 541z" />
<glyph unicode="B" horiz-adv-x="1233" d="M180 0v1450h432q241 0 362.5 -94t121.5 -275q0 -111 -56 -187t-174 -120q125 -30 193.5 -122.5t68.5 -227.5q0 -212 -138.5 -318t-416.5 -106h-393zM426 848h149q128 0 199.5 57.5t71.5 157.5q0 102 -68 148t-213 46h-139v-409zM426 203h180q129 0 200 61t71 170 q0 70 -31 119.5t-92.5 75.5t-149.5 26h-178v-452z" />
<glyph unicode="C" horiz-adv-x="1331" d="M1247 94q-95 -68 -205.5 -104.5t-230.5 -36.5q-256 0 -451 158q-89 71 -152 166.5t-95.5 207.5t-32.5 240q0 164 55 307t155.5 247.5t235.5 162t291 57.5q228 0 426 -137l-26 -283q-173 185 -383 185q-141 0 -253 -67.5t-175.5 -190.5t-63.5 -279q0 -149 61 -270 t169.5 -188.5t246.5 -67.5q80 0 154 23.5t145.5 71t143.5 120.5z" />
<glyph unicode="D" horiz-adv-x="1479" d="M180 0v1450h350q207 0 370 -51.5t273.5 -147t168 -229t57.5 -297.5q0 -200 -91 -357t-268 -259q-67 -40 -150 -65.5t-168 -34.5t-192 -9h-350zM432 231h131q139 0 246.5 35t180.5 99.5t111 156t38 203.5q0 113 -37.5 204t-111.5 156.5t-181 99.5t-246 34h-131v-988z" />
<glyph unicode="E" horiz-adv-x="1147" d="M180 0v1450h844v-223h-596v-357h512v-221h-512v-424h606v-225h-854z" />
<glyph unicode="F" horiz-adv-x="1110" d="M180 0v1450h854v-223h-602v-367h535v-221h-535v-639h-252z" />
<glyph unicode="G" horiz-adv-x="1507" d="M1290 1081q-205 187 -436 187q-149 0 -265.5 -67.5t-181.5 -191t-65 -282.5q0 -154 64.5 -276.5t181 -189t268.5 -66.5q125 0 283 61v303h-351v223h601v-686q-260 -145 -535 -145q-226 0 -403 99t-274 277.5t-97 397.5q0 167 56 309.5t161.5 248t246.5 162t310 56.5 q73 0 156 -14t159.5 -42t143.5 -65z" />
<glyph unicode="H" horiz-adv-x="1554" d="M180 0v1450h252v-578h692v578h250v-1450h-250v649h-692v-649h-252z" />
<glyph unicode="I" horiz-adv-x="627" d="M184 0v1450h256v-1450h-256z" />
<glyph unicode="J" horiz-adv-x="809" d="M-10 256q100 -51 186 -51q203 0 203 293v952h256v-997q0 -231 -111 -351t-317 -120q-102 0 -193 22z" />
<glyph unicode="K" horiz-adv-x="1366" d="M180 0v1450h252v-647l617 647h294l-661 -696l731 -754h-328l-653 678v-678h-252z" />
<glyph unicode="L" horiz-adv-x="1067" d="M180 0v1450h254v-1223h623v-227h-877z" />
<glyph unicode="M" horiz-adv-x="1788" d="M63 0l297 1497h17l518 -1061l516 1061h16l295 -1497h-249l-158 819l-410 -868h-22l-426 868l-158 -819h-236z" />
<glyph unicode="N" horiz-adv-x="1569" d="M180 0v1497h27l934 -969v922h248v-1497h-27l-936 969v-922h-246z" />
<glyph unicode="O" horiz-adv-x="1602" d="M80 725q0 272 149 477q66 91 157 158t198.5 102t216.5 35q92 0 185 -25.5t174 -74t151 -121.5q211 -225 211 -551q0 -107 -24 -206t-71 -185t-116 -158q-103 -107 -235.5 -165t-274.5 -58q-93 0 -184 25t-173 74.5t-151 121.5q-213 222 -213 551zM342 725q0 -149 61 -269 t167 -188.5t231 -68.5q94 0 179.5 39.5t148.5 111t98 168t35 207.5q0 112 -35.5 210.5t-98 168.5t-147.5 108.5t-180 38.5q-128 0 -233 -68t-165.5 -188.5t-60.5 -269.5z" />
<glyph unicode="P" horiz-adv-x="1190" d="M180 0v1450h336q156 0 262 -21.5t191 -82.5q81 -58 125.5 -143.5t44.5 -180.5q0 -213 -157 -335t-441 -122h-109v-565h-252zM432 780h115q168 0 253 59.5t85 172.5q0 79 -40 128t-120 72t-201 23h-92v-455z" />
<glyph unicode="Q" horiz-adv-x="1602" d="M342 725q0 -149 61 -269t167 -188.5t231 -68.5q94 0 179.5 39.5t148.5 111t98 168t35 207.5q0 112 -35.5 210.5t-98 168.5t-147.5 108.5t-180 38.5q-128 0 -233 -68t-165.5 -188.5t-60.5 -269.5zM1296 -414q-119 16 -215 46.5t-152.5 57t-174.5 87.5q-143 72 -260 115.5 t-226 52.5l72 166q23 -2 88 -15q-111 58 -188 150.5t-118.5 215.5t-41.5 263q0 108 24 206t71.5 185.5t115.5 159.5q70 73 151 122t173.5 74t185.5 25q119 0 232 -40t206 -116q89 -71 153 -167t97 -209t33 -240q0 -121 -33 -232t-95.5 -204.5t-152.5 -165.5 q-56 -43 -121 -76.5t-130 -50t-128 -16.5q-47 0 -74 4v-11q188 -72 310 -109t264 -59z" />
<glyph unicode="R" horiz-adv-x="1298" d="M180 0v1450h336q158 0 263 -19.5t190 -80.5q81 -57 125.5 -138t44.5 -172q0 -96 -36.5 -174t-109 -136.5t-172.5 -92.5l469 -637h-297l-440 602h-123v-602h-250zM430 788h117q168 0 253 59.5t85 172.5q0 119 -89 171t-272 52h-94v-455z" />
<glyph unicode="S" horiz-adv-x="1110" d="M98 322q78 -50 146 -82.5t132.5 -49t123.5 -16.5q116 0 186 58t70 145q0 79 -50 138t-163 126l-109 66q-159 94 -232 187t-73 222q0 111 55 198.5t156 136t229 48.5q185 0 365 -88l-8 -231q-211 114 -338 114q-68 0 -116.5 -21t-73.5 -59t-25 -86q0 -65 45.5 -113.5 t152.5 -111.5l105 -61q111 -65 186 -133t112.5 -148.5t37.5 -177.5q0 -92 -34.5 -173t-100 -138.5t-157.5 -89t-208 -31.5q-208 0 -391 86z" />
<glyph unicode="T" horiz-adv-x="1247" d="M752 1229v-1229h-256v1229h-490v221h1233v-221h-487z" />
<glyph unicode="U" horiz-adv-x="1511" d="M422 1450v-846q0 -210 89.5 -317t262.5 -107q113 0 191 48t117.5 144.5t39.5 237.5v840h228v-844q0 -206 -72.5 -354t-204 -223.5t-305.5 -75.5q-141 0 -252.5 41t-191 124t-120 205t-40.5 279v848h258z" />
<glyph unicode="V" horiz-adv-x="1280" d="M649 -59h-20l-658 1509h271l405 -952l406 952h256z" />
<glyph unicode="W" horiz-adv-x="1821" d="M551 -51l-553 1501h262l311 -879l340 932h23l340 -932l309 879h240l-549 -1501h-25l-338 907l-340 -907h-20z" />
<glyph unicode="X" horiz-adv-x="1456" d="M301 0h-283l541 756l-520 694h307l367 -481l344 481h280l-481 -672l586 -778h-314l-426 565z" />
<glyph unicode="Y" horiz-adv-x="1233" d="M479 0v659l-538 791h299l385 -573l417 573h275l-582 -786v-664h-256z" />
<glyph unicode="Z" horiz-adv-x="1352" d="M61 0l809 1231h-708l35 219h1087l-803 -1225h787l-39 -225h-1168z" />
<glyph unicode="[" horiz-adv-x="688" d="M668 -301h-486v1751h486v-92h-283v-1567h283v-92z" />
<glyph unicode="\" horiz-adv-x="592" d="M514 -190l-539 1687h129l541 -1687h-131z" />
<glyph unicode="]" horiz-adv-x="688" d="M18 1450h488v-1751h-488v92h285v1567h-285v92z" />
<glyph unicode="^" horiz-adv-x="2048" d="M915 1460h218l495 -561h-207l-397 397l-399 -397h-207z" />
<glyph unicode="_" horiz-adv-x="1024" d="M0 -311h1024v-172h-1024v172z" />
<glyph unicode="`" horiz-adv-x="1024" d="M655 1055h-120l-285 348h201z" />
<glyph unicode="a" horiz-adv-x="1128" d="M809 -43l-16 70q-153 -68 -263 -68q-137 0 -242 60.5t-162.5 168.5t-57.5 246q0 143 64.5 257.5t173.5 179.5t235 65q106 0 239 -57l215 22v-629q0 -140 29 -272zM758 207v502q-103 53 -168 53q-83 0 -146 -40.5t-99 -117.5t-36 -178q0 -87 30.5 -151.5t89 -98 t136.5 -33.5q83 0 193 64z" />
<glyph unicode="b" horiz-adv-x="1128" d="M371 694v-544q74 -21 141 -21q91 0 160 40t107 113.5t38 172.5q0 90 -32.5 158t-91.5 104.5t-134 36.5q-85 0 -188 -60zM133 -43v1470l238 43v-600q136 62 266 62q121 0 218 -58.5t151.5 -164.5t54.5 -238q0 -114 -38.5 -208.5t-109 -162.5t-169.5 -105.5t-218 -37.5 q-94 0 -245 43z" />
<glyph unicode="c" horiz-adv-x="991" d="M893 43q-141 -84 -311 -84q-150 0 -267 62t-182 174.5t-65 255.5q0 99 39.5 189t113.5 159.5t172 107t213 37.5q135 0 309 -65l-26 -203q-156 67 -258 67q-73 0 -131 -20.5t-99.5 -61t-62.5 -94t-21 -118.5q0 -132 87 -210.5t231 -78.5q137 0 285 96z" />
<glyph unicode="d" horiz-adv-x="1128" d="M758 205v520q-83 39 -156 39q-86 0 -152 -40t-102.5 -117t-36.5 -179q0 -134 64 -208.5t176 -74.5q93 0 207 60zM997 0l-204 -43l-5 78q-74 -38 -140 -57t-136 -19q-124 0 -225 61t-160 171.5t-59 250.5q0 138 64 251.5t176 178t253 64.5q94 0 197 -31v522l239 43v-1470z " />
<glyph unicode="e" horiz-adv-x="1053" d="M946 262l-24 -217q-69 -29 -130 -48t-117.5 -28.5t-117.5 -9.5q-102 0 -192 36t-156.5 103t-103.5 156.5t-37 196.5t37 197t102.5 155.5t156.5 102t193 36.5q128 0 224.5 -49t149 -139t52.5 -205q0 -22 -4 -92l-23 -37l-649 -23q9 -119 82.5 -184.5t198.5 -65.5 q78 0 164.5 28.5t193.5 86.5zM311 530l447 21v12q0 56 -25.5 98.5t-71 66.5t-104.5 24q-98 0 -162 -57.5t-84 -164.5z" />
<glyph unicode="f" horiz-adv-x="696" d="M420 0h-242v702h-143v199h143v76q0 146 39 255t125 195l328 43v-67q-91 -32 -145 -86.5t-79.5 -134.5t-25.5 -193v-88h250v-199h-250v-702z" />
<glyph unicode="g" horiz-adv-x="1128" d="M143 -143q110 -49 206.5 -75t185.5 -26q112 0 174.5 54t62.5 151v57q-143 -59 -242 -59q-137 0 -242 60.5t-162.5 168.5t-57.5 246q0 143 64.5 257.5t173.5 179.5t235 65q106 0 239 -57l215 22v-854q0 -104 -11 -169.5t-48 -123.5q-36 -56 -98.5 -99t-147 -66t-186.5 -23 q-190 0 -346 78zM774 207v502q-98 53 -184 53q-83 0 -146 -40.5t-99 -117.5t-36 -178q0 -87 30.5 -151.5t89 -98t136.5 -33.5q97 0 209 64z" />
<glyph unicode="h" horiz-adv-x="1133" d="M127 1427l240 43v-704q142 160 331 160q154 0 233 -81.5t79 -240.5v-604h-238v553q0 168 -162 168q-116 0 -180.5 -55.5t-64.5 -161.5v-504h-238v1427z" />
<glyph unicode="i" horiz-adv-x="508" d="M375 0h-242v901l242 43v-944zM111 1235q0 59 41 102t102 43t102 -42.5t41 -102.5q0 -58 -41.5 -99.5t-101.5 -41.5q-59 0 -101 42t-42 99z" />
<glyph unicode="j" horiz-adv-x="508" d="M115 1235q0 59 41 102t102 43t102 -42.5t41 -102.5q0 -58 -41.5 -99.5t-101.5 -41.5q-59 0 -101 42t-42 99zM-14 -436q57 58 90.5 122.5t47 136.5t13.5 161v917l242 43v-962q0 -59 -4.5 -118.5t-11.5 -99t-19 -78t-33 -77.5z" />
<glyph unicode="k" horiz-adv-x="1020" d="M1067 0h-303l-393 418v-418h-238v1427l238 43v-913l329 344h289l-422 -393z" />
<glyph unicode="l" horiz-adv-x="508" d="M375 0h-242v1427l242 43v-1470z" />
<glyph unicode="m" horiz-adv-x="1720" d="M981 0h-238v553q0 83 -38.5 125.5t-112.5 42.5q-107 0 -167 -55t-60 -162v-504h-238v901h221v-151q71 89 152.5 132.5t181.5 43.5q99 0 170 -43t117 -133q64 85 149.5 130.5t186.5 45.5q143 0 217.5 -81t74.5 -241v-604h-237v553q0 83 -38.5 125.5t-113.5 42.5 q-107 0 -167 -55t-60 -162v-504z" />
<glyph unicode="n" horiz-adv-x="1133" d="M365 0h-238v901h221v-151q146 176 350 176q100 0 170 -36.5t106 -108.5t36 -177v-604h-238v553q0 168 -162 168q-116 0 -180.5 -55.5t-64.5 -161.5v-504z" />
<glyph unicode="o" horiz-adv-x="1114" d="M68 451q0 107 37 197t102.5 155.5t156.5 102t193 36.5q139 0 250 -62.5t174 -175t63 -253.5q0 -140 -63 -253.5t-174 -176t-250 -62.5q-102 0 -192 36t-156.5 103t-103.5 156.5t-37 196.5zM311 449q0 -137 69 -219.5t177 -82.5q69 0 125 37.5t87.5 107.5t31.5 157 q0 89 -31.5 159t-87 107t-125.5 37q-106 0 -176 -82.5t-70 -220.5z" />
<glyph unicode="p" horiz-adv-x="1128" d="M371 -27v-354l-238 -53v1335h238q105 37 207 37q138 0 249 -61t172.5 -172t61.5 -252q0 -147 -65.5 -260t-185.5 -173.5t-282 -60.5q-57 0 -157 14zM371 733v-583q74 -21 141 -21q91 0 160 40t107 113.5t38 172.5q0 140 -78 223.5t-202 83.5q-79 0 -166 -29z" />
<glyph unicode="q" horiz-adv-x="1128" d="M758 16q-139 -57 -246 -57q-124 0 -225 61t-160 171.5t-59 250.5q0 138 64 251.5t176 178t253 64.5q89 0 197 -31h237v-1296l-237 -45v452zM758 205v520q-83 39 -156 39q-86 0 -152 -40t-102.5 -117t-36.5 -179q0 -134 64 -208.5t176 -74.5q93 0 207 60z" />
<glyph unicode="r" horiz-adv-x="721" d="M713 670q-158 -2 -226.5 -14.5t-91 -51t-22.5 -131.5v-473h-238v901h221v-151q147 174 340 174h17v-254z" />
<glyph unicode="s" horiz-adv-x="887" d="M117 250q186 -103 313 -103q59 0 91 23.5t32 65.5q0 35 -29 58t-102 54l-86 37q-236 100 -236 277q0 82 41.5 146.5t119 100t177.5 35.5q161 0 312 -82l-23 -211q-196 111 -283 111q-46 0 -75 -22.5t-29 -57.5q0 -56 88 -96l139 -66q117 -52 170.5 -111.5t53.5 -158.5 q0 -87 -42.5 -154t-121 -103t-178.5 -36q-175 0 -340 72z" />
<glyph unicode="t" horiz-adv-x="696" d="M178 367v335h-143v199h143v270l242 43v-313h250v-199h-250v-337q0 -97 8.5 -155t42 -108.5t104.5 -101.5l-268 -27q-59 36 -86.5 83.5t-35 107.5t-7.5 155v48z" />
<glyph unicode="u" horiz-adv-x="1130" d="M123 901h237v-563q0 -168 164 -168q116 0 180 55t64 162v514h238v-901l-215 -43l-9 182q-147 -174 -348 -174q-152 0 -231.5 82t-79.5 240v614z" />
<glyph unicode="v" horiz-adv-x="905" d="M455 -57h-27l-430 958h258l213 -498l233 498h205z" />
<glyph unicode="w" horiz-adv-x="1413" d="M444 -57h-26l-406 958h242l209 -555l254 608h39l215 -608l233 555h201l-451 -958h-26l-230 561z" />
<glyph unicode="x" horiz-adv-x="934" d="M197 0h-232l369 453l-365 448h289l221 -274l226 274h235l-346 -416l395 -485h-289l-251 307z" />
<glyph unicode="y" horiz-adv-x="915" d="M334 -436h-240q85 95 185 303l61 133l-330 901h256l205 -582l250 582h201z" />
<glyph unicode="z" horiz-adv-x="918" d="M0 0l477 711h-418l47 190h766l-477 -711h477l-57 -190h-815z" />
<glyph unicode="{" horiz-adv-x="1024" d="M874 1477v-179q-12 1 -22 1.5t-25 0.5q-78 0 -118 -20t-54 -64t-14 -131v-241q0 -98 -16.5 -158.5t-59.5 -97.5t-127 -58q84 -21 127 -58.5t59.5 -97.5t16.5 -157v-240q0 -85 14.5 -130.5t54.5 -66t119 -20.5q11 1 20.5 1.5t24.5 0.5v-176h-63q-92 0 -159 11t-113 38 q-64 38 -83.5 105t-19.5 194v248q0 142 -51 202t-180 60q-15 0 -23.5 -0.5t-19.5 -1.5v179q7 0 19.5 -1t23.5 -2q128 0 179.5 59t51.5 202v247q0 87 7 141t29 94t67 66q48 29 115 39.5t175 10.5h45z" />
<glyph unicode="|" horiz-adv-x="1024" d="M424 1565h178v-2048h-178v2048z" />
<glyph unicode="}" horiz-adv-x="1024" d="M152 1477h45q106 0 173.5 -10.5t114.5 -39.5q64 -37 83.5 -104t19.5 -197v-247q0 -94 22 -152t72.5 -83.5t136.5 -25.5l23 2q12 1 20 1v-179q-10 1 -19 1.5t-24 0.5q-87 0 -136.5 -26t-72 -84t-22.5 -152v-248q0 -128 -19.5 -194.5t-83.5 -104.5q-48 -29 -115 -39 t-173 -10h-45v176q16 0 25 -0.5t20 -1.5q79 0 119 20.5t53.5 66t13.5 130.5v240q0 98 17 157.5t60.5 97t127.5 58.5q-86 21 -129 58.5t-59.5 98t-16.5 157.5v241q0 87 -14 131t-53.5 64t-116.5 20q-15 0 -25 -0.5t-22 -1.5v179z" />
<glyph unicode="~" horiz-adv-x="1706" d="M1530 784v-184q-204 -141 -381 -141q-91 0 -191 35q-163 56 -238 77t-157 21q-85 0 -180.5 -40t-204.5 -118v187q210 143 387 143q76 0 140 -14.5t153 -44.5l111 -39q45 -16 89.5 -25.5t92.5 -9.5q166 0 379 153z" />
<glyph unicode="&#xa1;" horiz-adv-x="645" d="M176 1368q0 52 38.5 90.5t90.5 38.5q56 0 93.5 -37.5t37.5 -91.5q0 -57 -37 -94t-94 -37q-52 0 -90.5 38.5t-38.5 92.5zM268 1055h76q60 -339 92.5 -603.5t32.5 -476.5l-295 50q-2 28 -2 92q0 109 12.5 259t30.5 291.5t53 387.5z" />
<glyph unicode="&#xa2;" d="M967 82q-137 -84 -308 -84q-26 0 -63 2l-86 -268h-127l96 293q-158 47 -248 170t-90 294q0 133 69 246.5t192 180.5t274 67q65 0 117 -8l84 250h124l-92 -279q32 -7 80 -26l-26 -203q-62 28 -113 43l-186 -559q22 -2 57 -2q124 0 272 96zM547 233l182 549q-12 2 -37 2 q-90 0 -159 -38.5t-106.5 -106t-37.5 -150.5q0 -185 158 -256z" />
<glyph unicode="&#xa3;" d="M98 190q242 91 242 330q0 61 -21 158h-221v139h187q-45 175 -45 277q0 119 51.5 208t144 138t213.5 49q100 0 178.5 -31t136.5 -91t95 -153l-217 -94q-21 80 -67.5 120t-112.5 40q-82 0 -132.5 -55.5t-50.5 -149.5q0 -93 56 -258h294v-139h-268q19 -98 19 -172 q0 -141 -58 -242q121 -71 238 -71q61 0 101 34.5t65 106.5l194 -98q-27 -72 -60.5 -123t-76 -84.5t-93 -49.5t-114.5 -16q-157 0 -383 135q-58 -58 -128 -89.5t-167 -45.5v227z" />
<glyph unicode="&#xa4;" horiz-adv-x="1241" d="M168 1430l203 -203q109 82 250 82q142 0 251 -82l203 203l94 -93l-204 -204q79 -107 79 -248t-79 -248l204 -205l-94 -92l-203 205q-110 -82 -249 -82q-145 0 -252 82l-203 -205l-92 92l203 205q-80 107 -80 248t80 248l-203 204zM623 1176q-77 0 -144.5 -40t-107 -106 t-39.5 -145t38.5 -145t105.5 -105t147 -39q79 0 146 39t105.5 105t38.5 145t-39.5 145t-107 106t-143.5 40z" />
<glyph unicode="&#xa5;" d="M457 0v551h-424v123h409l-127 194h-282v123h200l-305 459h295l377 -586l406 586h268l-330 -459h191v-123h-279l-141 -194h420v-123h-430v-551h-248z" />
<glyph unicode="&#xa6;" horiz-adv-x="1024" d="M424 1432h178v-758h-178v758zM424 408h178v-758h-178v758z" />
<glyph unicode="&#xa7;" horiz-adv-x="1042" d="M297 807q0 -39 22.5 -70.5t88.5 -101.5l78 -82q30 -32 59.5 -57t54 -37.5t51.5 -12.5q37 0 61.5 26.5t24.5 68.5q0 36 -22.5 68.5t-81.5 95.5l-99 109q-40 43 -72 64t-73 21q-37 0 -64.5 -26.5t-27.5 -65.5zM197 -20l127 90q50 -60 89.5 -85.5t88.5 -25.5q56 0 88.5 30 t32.5 83q0 32 -15 65t-38 62.5t-60 68.5l-84 86l-128 135q-51 55 -89 104t-59 97.5t-21 95.5q0 94 55.5 155t161.5 85q-52 61 -79 115.5t-27 107.5q0 69 36 126.5t103 90.5t151 33q170 0 291 -158l-125 -96q-46 53 -85 78t-81 25q-47 0 -78.5 -29.5t-31.5 -73.5 q0 -28 19 -60.5t56.5 -74.5t102.5 -106l115 -115q101 -101 150.5 -176.5t49.5 -167.5q0 -93 -60 -154.5t-165 -73.5q113 -125 113 -251q0 -113 -82 -187t-213 -74q-98 0 -172 42.5t-137 132.5z" />
<glyph unicode="&#xa8;" horiz-adv-x="1024" d="M217 1219q0 46 34 79t81 33q45 0 77.5 -32.5t32.5 -79.5q0 -48 -31.5 -80.5t-78.5 -32.5q-48 0 -81.5 32.5t-33.5 80.5zM582 1219q0 28 15 54.5t41.5 42t55.5 15.5t56 -15t42 -42t15 -55q0 -50 -32.5 -81.5t-80.5 -31.5q-46 0 -79 33t-33 80z" />
<glyph unicode="&#xa9;" horiz-adv-x="1706" d="M852 1470q100 0 192.5 -24t178 -73t155.5 -120q71 -71 118.5 -152.5t72 -175.5t24.5 -194q0 -154 -54.5 -286.5t-158.5 -233.5q-74 -73 -159 -122t-180 -74t-189 -25q-72 0 -140 13.5t-137 42.5t-129 69.5t-114 93.5q-107 107 -163 241t-56 281t57 281t164 243 q210 215 518 215zM854 1362q-83 0 -164 -20.5t-152 -61.5t-128 -100q-59 -61 -101.5 -133t-64 -152t-21.5 -164q0 -124 48 -238t139 -206q90 -90 205.5 -138.5t238.5 -48.5q122 0 238.5 48t210.5 141q91 91 136.5 201.5t45.5 240.5q0 128 -46.5 243t-135.5 204 q-186 184 -449 184zM1206 903h-166q-8 50 -32 83.5t-64.5 52t-93.5 18.5q-96 0 -153.5 -85t-57.5 -241q0 -152 58 -234.5t163 -82.5q79 0 129 43.5t60 124.5h165q-4 -87 -51 -156t-127 -106t-182 -37q-182 0 -289.5 119.5t-107.5 322.5q0 137 50 241t140.5 159t210.5 55 q97 0 174.5 -35t122.5 -98.5t51 -143.5z" />
<glyph unicode="&#xaa;" horiz-adv-x="846" d="M606 791l-12 49q-112 -47 -197 -47q-103 0 -181.5 42t-121.5 117t-43 172q0 101 48.5 181t130 126t176.5 46q79 0 180 -41l162 16v-440q0 -108 20 -191zM569 967v350q-76 37 -127 37q-94 0 -152.5 -63.5t-58.5 -170.5q0 -92 51 -145t142 -53q65 0 145 45z" />
<glyph unicode="&#xab;" horiz-adv-x="1014" d="M547 764l-244 -313l244 -314h-223l-254 314l254 313h223zM944 764l-244 -313l244 -314h-223l-254 314l254 313h223z" />
<glyph unicode="&#xac;" horiz-adv-x="1706" d="M254 862h1198v-502h-166v336h-1032v166z" />
<glyph unicode="&#xad;" horiz-adv-x="682" d="M80 344v213h522v-213h-522z" />
<glyph unicode="&#xae;" horiz-adv-x="1706" d="M852 1470q152 0 288 -56.5t242 -164.5q211 -213 211 -518q0 -152 -55.5 -286.5t-161.5 -237.5q-110 -107 -244.5 -162t-279.5 -55q-147 0 -281.5 57.5t-242.5 165.5q-71 73 -118.5 154.5t-72 173.5t-24.5 190q0 148 57.5 284t165.5 245q104 104 234.5 157t281.5 53z M854 1362q-260 0 -440 -180q-191 -194 -191 -451q0 -256 183 -442q91 -91 205 -140t233 -49q266 0 456 185q89 85 137 197.5t48 238.5q0 135 -45.5 249t-134.5 204q-91 91 -205.5 139.5t-245.5 48.5zM551 1159h319q174 0 262.5 -57.5t88.5 -167.5q0 -91 -47.5 -150.5 t-137.5 -78.5l185 -375h-199l-164 346h-129v-346h-178v829zM729 1047v-261h117q66 0 108 13t63 41t21 73q0 70 -49 102t-151 32h-109z" />
<glyph unicode="&#xaf;" horiz-adv-x="1024" d="M242 1149v139h540v-139h-540z" />
<glyph unicode="&#xb0;" horiz-adv-x="674" d="M338 1460q78 0 146.5 -40t108.5 -109t40 -148t-40 -147t-108 -108t-149 -40t-148 39t-106 107t-39 149q0 82 39.5 150t107 107.5t148.5 39.5zM338 1350q-77 0 -131.5 -53.5t-54.5 -131.5q0 -76 55 -131t131 -55q77 0 130.5 55.5t53.5 130.5q0 51 -25 93.5t-66.5 67 t-92.5 24.5z" />
<glyph unicode="&#xb1;" horiz-adv-x="1706" d="M768 1206h170v-334h514v-165h-514v-334h-170v334h-514v165h514v334zM254 182h1198v-168h-1198v168z" />
<glyph unicode="&#xb2;" horiz-adv-x="776" d="M35 580v38l358 369q42 42 70.5 78t43.5 68t15 69q0 61 -44.5 100t-112.5 39q-63 0 -109 -35t-66 -100l-145 64q42 101 126 155t198 54q87 0 161.5 -36t117 -99t42.5 -138q0 -104 -88 -214.5t-280 -270.5h413l-24 -141h-676z" />
<glyph unicode="&#xb3;" horiz-adv-x="776" d="M154 799q85 -105 202 -105q72 0 117 37t45 94q0 69 -54.5 100t-166.5 31h-37v138h45q94 0 144.5 33t50.5 94q0 52 -40 86t-102 34q-104 0 -188 -106l-109 94q135 150 312 150q83 0 149.5 -32.5t105 -89.5t38.5 -124q0 -64 -34.5 -113t-101.5 -80q77 -27 118.5 -83 t41.5 -130q0 -79 -42.5 -142t-120 -98.5t-175.5 -35.5q-97 0 -177.5 36.5t-135.5 104.5z" />
<glyph unicode="&#xb4;" horiz-adv-x="1024" d="M369 1055l204 348h201l-285 -348h-120z" />
<glyph unicode="&#xb5;" horiz-adv-x="1208" d="M205 1081h229l-125 -635q-12 -57 -12 -104q0 -197 182 -197q126 0 196.5 91.5t108.5 289.5l109 555h225l-145 -739q-19 -100 -19 -133q0 -35 16 -50.5t52 -15.5q22 0 35 2l-33 -159q-61 -17 -150 -17q-149 0 -149 125v15q-41 -68 -108 -105t-146 -37q-78 0 -135 25.5 t-100 83.5l-99 -506h-229z" />
<glyph unicode="&#xb6;" horiz-adv-x="1024" d="M969 1479v-99h-117v-1380h-129v1380h-170v-1380h-129v784q-88 5 -154 30.5t-115.5 72.5t-74.5 109.5t-25 133.5q0 100 47.5 180.5t136.5 124.5t207 44h523z" />
<glyph unicode="&#xb8;" horiz-adv-x="1024" d="M256 -426v100q162 -39 246 -39q121 0 121 82q0 86 -127 86q-33 0 -60 -2v199h76v-102h29q109 0 166 -46t57 -135q0 -90 -63.5 -139t-186.5 -49q-100 0 -258 45z" />
<glyph unicode="&#xb9;" horiz-adv-x="776" d="M324 580v747h-131l22 123h274v-870h-165z" />
<glyph unicode="&#xba;" horiz-adv-x="836" d="M51 1137q0 101 48 178.5t132.5 121.5t186.5 44q103 0 187.5 -44t131.5 -121.5t47 -178.5q0 -100 -47.5 -178.5t-131.5 -122t-187 -43.5q-102 0 -186.5 43.5t-132.5 122t-48 178.5zM233 1135q0 -94 52 -152.5t133 -58.5q80 0 131 58t51 153q0 98 -50.5 155.5t-131.5 57.5 q-52 0 -94.5 -26t-66.5 -75t-24 -112z" />
<glyph unicode="&#xbb;" horiz-adv-x="1014" d="M467 137l244 314l-244 313h223l254 -313l-254 -314h-223zM70 137l243 314l-243 313h223l254 -313l-254 -314h-223z" />
<glyph unicode="&#xbc;" horiz-adv-x="1823" d="M309 639v698h-125l23 113h260v-811h-158zM399 -47l883 1544h141l-880 -1544h-144zM1532 0v164h-406v115l394 532h161v-532h101v-115h-101v-164h-149zM1538 279l8 397l-276 -397h268z" />
<glyph unicode="&#xbd;" horiz-adv-x="1823" d="M309 639v698h-125l23 113h260v-811h-158zM399 -47l883 1544h141l-880 -1544h-144zM1116 0v37l342 344q65 65 95 109.5t30 91.5q0 55 -42.5 92t-108.5 37q-61 0 -105.5 -33.5t-60.5 -91.5l-140 59q27 62 72 105t105.5 65.5t132.5 22.5q83 0 153 -32.5t111 -91t41 -128.5 q0 -97 -85 -202.5t-265 -252.5h395l-25 -131h-645z" />
<glyph unicode="&#xbe;" horiz-adv-x="1823" d="M145 844q81 -96 195 -96q68 0 112 34.5t44 85.5q0 64 -51.5 92.5t-161.5 28.5h-35v129h43q184 0 184 119q0 49 -37.5 81t-95.5 32q-100 0 -180 -99l-103 88q64 71 137 105.5t158 34.5q122 0 201.5 -66t79.5 -166q0 -125 -127 -178q71 -25 110 -77t39 -122 q0 -75 -40.5 -133t-113 -91.5t-167.5 -33.5q-189 0 -299 131zM399 -47l883 1544h141l-880 -1544h-144zM1532 0v164h-406v115l394 532h161v-532h101v-115h-101v-164h-149zM1538 279l8 397l-276 -397h268z" />
<glyph unicode="&#xbf;" horiz-adv-x="1006" d="M768 1075v-391q-191 -22 -294 -95.5t-103 -187.5q0 -92 70 -148t194 -56q61 0 170 16v-219q-136 -19 -209 -19q-102 0 -190.5 30t-150.5 84.5t-94 125t-32 154.5q0 360 430 481v180zM793 1368q0 -53 -38 -91t-91 -38q-55 0 -93.5 37.5t-38.5 91.5t38.5 91.5t93.5 37.5 q52 0 90.5 -38.5t38.5 -90.5z" />
<glyph unicode="&#xc0;" horiz-adv-x="1346" d="M219 0h-258l713 1497h20l688 -1497h-268l-117 258h-659zM432 465h475l-235 541zM819 1610h-120l-285 348h201z" />
<glyph unicode="&#xc1;" horiz-adv-x="1346" d="M219 0h-258l713 1497h20l688 -1497h-268l-117 258h-659zM432 465h475l-235 541zM533 1610l204 348h201l-285 -348h-120z" />
<glyph unicode="&#xc2;" horiz-adv-x="1346" d="M219 0h-258l713 1497h20l688 -1497h-268l-117 258h-659zM432 465h475l-235 541zM381 1610l197 348h196l197 -348h-123l-172 229l-174 -229h-121z" />
<glyph unicode="&#xc3;" horiz-adv-x="1346" d="M219 0h-258l713 1497h20l688 -1497h-268l-117 258h-659zM432 465h475l-235 541zM969 1888q-20 -103 -70.5 -156t-126.5 -53q-30 0 -65 11l-97 26q-27 8 -49 8q-62 0 -90 -67h-88q20 101 69.5 153t123.5 52q36 0 59 -9l98 -28q38 -10 54 -10q66 0 94 73h88z" />
<glyph unicode="&#xc4;" horiz-adv-x="1346" d="M219 0h-258l713 1497h20l688 -1497h-268l-117 258h-659zM432 465h475l-235 541zM381 1774q0 46 34 79t81 33q45 0 77.5 -32.5t32.5 -79.5q0 -48 -31.5 -80.5t-78.5 -32.5q-48 0 -81.5 32.5t-33.5 80.5zM746 1774q0 28 15 54.5t41.5 42t55.5 15.5t56 -15t42 -42t15 -55 q0 -50 -32.5 -81.5t-80.5 -31.5q-46 0 -79 33t-33 80z" />
<glyph unicode="&#xc5;" horiz-adv-x="1346" d="M219 0h-258l713 1497h20l688 -1497h-268l-117 258h-659zM432 465h475l-235 541zM449 1735q0 67 31.5 121t84.5 85t119 31q67 0 121 -31.5t85.5 -86.5t31.5 -119t-31.5 -118.5t-86 -86t-120.5 -31.5q-65 0 -118.5 31t-85 84.5t-31.5 120.5zM563 1735q0 -51 36 -87t85 -36 q51 0 87 36t36 87q0 52 -35.5 88.5t-87.5 36.5q-51 0 -86 -37t-35 -88z" />
<glyph unicode="&#xc6;" horiz-adv-x="1886" d="M920 0v330h-545l-185 -330h-262l813 1450h1022v-223h-594v-357h512v-221h-512v-424h605v-225h-854zM492 537h428v690h-50z" />
<glyph unicode="&#xc7;" horiz-adv-x="1331" d="M1247 94q-95 -68 -205.5 -104.5t-230.5 -36.5q-256 0 -451 158q-89 71 -152 166.5t-95.5 207.5t-32.5 240q0 164 55 307t155.5 247.5t235.5 162t291 57.5q228 0 426 -137l-26 -283q-173 185 -383 185q-141 0 -253 -67.5t-175.5 -190.5t-63.5 -279q0 -149 61 -270 t169.5 -188.5t246.5 -67.5q80 0 154 23.5t145.5 71t143.5 120.5zM541 -426v100q162 -39 246 -39q121 0 121 82q0 86 -127 86q-33 0 -60 -2v199h76v-102h29q109 0 166 -46t57 -135q0 -90 -63.5 -139t-186.5 -49q-100 0 -258 45z" />
<glyph unicode="&#xc8;" horiz-adv-x="1147" d="M180 0v1450h844v-223h-596v-357h512v-221h-512v-424h606v-225h-854zM749 1610h-120l-285 348h201z" />
<glyph unicode="&#xc9;" horiz-adv-x="1147" d="M180 0v1450h844v-223h-596v-357h512v-221h-512v-424h606v-225h-854zM463 1610l204 348h201l-285 -348h-120z" />
<glyph unicode="&#xca;" horiz-adv-x="1147" d="M180 0v1450h844v-223h-596v-357h512v-221h-512v-424h606v-225h-854zM311 1610l197 348h196l197 -348h-123l-172 229l-174 -229h-121z" />
<glyph unicode="&#xcb;" horiz-adv-x="1147" d="M180 0v1450h844v-223h-596v-357h512v-221h-512v-424h606v-225h-854zM311 1774q0 46 34 79t81 33q45 0 77.5 -32.5t32.5 -79.5q0 -48 -31.5 -80.5t-78.5 -32.5q-48 0 -81.5 32.5t-33.5 80.5zM676 1774q0 28 15 54.5t41.5 42t55.5 15.5t56 -15t42 -42t15 -55 q0 -50 -32.5 -81.5t-80.5 -31.5q-46 0 -79 33t-33 80z" />
<glyph unicode="&#xcc;" horiz-adv-x="627" d="M184 0v1450h256v-1450h-256zM456 1610h-120l-285 348h201z" />
<glyph unicode="&#xcd;" horiz-adv-x="627" d="M184 0v1450h256v-1450h-256zM170 1610l204 348h201l-285 -348h-120z" />
<glyph unicode="&#xce;" horiz-adv-x="627" d="M184 0v1450h256v-1450h-256zM18 1610l197 348h196l197 -348h-123l-172 229l-174 -229h-121z" />
<glyph unicode="&#xcf;" horiz-adv-x="627" d="M184 0v1450h256v-1450h-256zM18 1774q0 46 34 79t81 33q45 0 77.5 -32.5t32.5 -79.5q0 -48 -31.5 -80.5t-78.5 -32.5q-48 0 -81.5 32.5t-33.5 80.5zM383 1774q0 28 15 54.5t41.5 42t55.5 15.5t56 -15t42 -42t15 -55q0 -50 -32.5 -81.5t-80.5 -31.5q-46 0 -79 33t-33 80z " />
<glyph unicode="&#xd0;" horiz-adv-x="1493" d="M195 0v666h-201v190h201v594h350q207 0 370 -51.5t274 -147.5t167.5 -229t56.5 -297q0 -131 -40.5 -247t-120 -208.5t-197.5 -160.5q-111 -63 -230.5 -86t-279.5 -23h-350zM446 231h132q138 0 245.5 35t180.5 99.5t111 156t38 203.5q0 113 -37.5 204t-111.5 156.5 t-181 99.5t-245 34h-132v-363h338v-190h-338v-435z" />
<glyph unicode="&#xd1;" horiz-adv-x="1569" d="M180 0v1497h27l934 -969v922h248v-1497h-27l-936 969v-922h-246zM1077 1888q-20 -103 -70.5 -156t-126.5 -53q-30 0 -65 11l-97 26q-27 8 -49 8q-62 0 -90 -67h-88q20 101 69.5 153t123.5 52q36 0 59 -9l98 -28q38 -10 54 -10q66 0 94 73h88z" />
<glyph unicode="&#xd2;" horiz-adv-x="1602" d="M80 725q0 272 149 477q66 91 157 158t198.5 102t216.5 35q92 0 185 -25.5t174 -74t151 -121.5q211 -225 211 -551q0 -107 -24 -206t-71 -185t-116 -158q-103 -107 -235.5 -165t-274.5 -58q-93 0 -184 25t-173 74.5t-151 121.5q-213 222 -213 551zM342 725q0 -149 61 -269 t167 -188.5t231 -68.5q94 0 179.5 39.5t148.5 111t98 168t35 207.5q0 112 -35.5 210.5t-98 168.5t-147.5 108.5t-180 38.5q-128 0 -233 -68t-165.5 -188.5t-60.5 -269.5zM944 1610h-120l-285 348h201z" />
<glyph unicode="&#xd3;" horiz-adv-x="1602" d="M80 725q0 272 149 477q66 91 157 158t198.5 102t216.5 35q92 0 185 -25.5t174 -74t151 -121.5q211 -225 211 -551q0 -107 -24 -206t-71 -185t-116 -158q-103 -107 -235.5 -165t-274.5 -58q-93 0 -184 25t-173 74.5t-151 121.5q-213 222 -213 551zM342 725q0 -149 61 -269 t167 -188.5t231 -68.5q94 0 179.5 39.5t148.5 111t98 168t35 207.5q0 112 -35.5 210.5t-98 168.5t-147.5 108.5t-180 38.5q-128 0 -233 -68t-165.5 -188.5t-60.5 -269.5zM658 1610l204 348h201l-285 -348h-120z" />
<glyph unicode="&#xd4;" horiz-adv-x="1602" d="M80 725q0 272 149 477q66 91 157 158t198.5 102t216.5 35q92 0 185 -25.5t174 -74t151 -121.5q211 -225 211 -551q0 -107 -24 -206t-71 -185t-116 -158q-103 -107 -235.5 -165t-274.5 -58q-93 0 -184 25t-173 74.5t-151 121.5q-213 222 -213 551zM342 725q0 -149 61 -269 t167 -188.5t231 -68.5q94 0 179.5 39.5t148.5 111t98 168t35 207.5q0 112 -35.5 210.5t-98 168.5t-147.5 108.5t-180 38.5q-128 0 -233 -68t-165.5 -188.5t-60.5 -269.5zM506 1610l197 348h196l197 -348h-123l-172 229l-174 -229h-121z" />
<glyph unicode="&#xd5;" horiz-adv-x="1602" d="M80 725q0 272 149 477q66 91 157 158t198.5 102t216.5 35q92 0 185 -25.5t174 -74t151 -121.5q211 -225 211 -551q0 -107 -24 -206t-71 -185t-116 -158q-103 -107 -235.5 -165t-274.5 -58q-93 0 -184 25t-173 74.5t-151 121.5q-213 222 -213 551zM342 725q0 -149 61 -269 t167 -188.5t231 -68.5q94 0 179.5 39.5t148.5 111t98 168t35 207.5q0 112 -35.5 210.5t-98 168.5t-147.5 108.5t-180 38.5q-128 0 -233 -68t-165.5 -188.5t-60.5 -269.5zM1094 1888q-20 -103 -70.5 -156t-126.5 -53q-30 0 -65 11l-97 26q-27 8 -49 8q-62 0 -90 -67h-88 q20 101 69.5 153t123.5 52q36 0 59 -9l98 -28q38 -10 54 -10q66 0 94 73h88z" />
<glyph unicode="&#xd6;" horiz-adv-x="1602" d="M80 725q0 272 149 477q66 91 157 158t198.5 102t216.5 35q92 0 185 -25.5t174 -74t151 -121.5q211 -225 211 -551q0 -107 -24 -206t-71 -185t-116 -158q-103 -107 -235.5 -165t-274.5 -58q-93 0 -184 25t-173 74.5t-151 121.5q-213 222 -213 551zM342 725q0 -149 61 -269 t167 -188.5t231 -68.5q94 0 179.5 39.5t148.5 111t98 168t35 207.5q0 112 -35.5 210.5t-98 168.5t-147.5 108.5t-180 38.5q-128 0 -233 -68t-165.5 -188.5t-60.5 -269.5zM506 1774q0 46 34 79t81 33q45 0 77.5 -32.5t32.5 -79.5q0 -48 -31.5 -80.5t-78.5 -32.5 q-48 0 -81.5 32.5t-33.5 80.5zM871 1774q0 28 15 54.5t41.5 42t55.5 15.5t56 -15t42 -42t15 -55q0 -50 -32.5 -81.5t-80.5 -31.5q-46 0 -79 33t-33 80z" />
<glyph unicode="&#xd7;" horiz-adv-x="1706" d="M403 1188l459 -459l461 459l117 -117l-459 -461l459 -458l-117 -119l-461 461l-459 -461l-116 119l458 458l-458 461z" />
<glyph unicode="&#xd8;" horiz-adv-x="1602" d="M1176 1038l-648 -739q122 -98 273 -98q129 0 235.5 69t166 189.5t59.5 267.5q0 169 -86 311zM0 -57l246 284q-85 111 -125.5 231.5t-40.5 260.5q0 157 50.5 297t150.5 250q102 112 235.5 172.5t280.5 60.5q235 0 432 -147l112 127h218l-213 -244q176 -214 176 -508 q0 -323 -203 -543q-69 -76 -152 -127t-174 -77.5t-188 -26.5q-240 0 -445 158l-145 -168h-215zM422 426l641 735q-110 92 -260 92q-126 0 -233 -68.5t-167.5 -188.5t-60.5 -267q0 -89 20 -163.5t60 -139.5z" />
<glyph unicode="&#xd9;" horiz-adv-x="1511" d="M422 1450v-846q0 -210 89.5 -317t262.5 -107q113 0 191 48t117.5 144.5t39.5 237.5v840h228v-844q0 -206 -72.5 -354t-204 -223.5t-305.5 -75.5q-141 0 -252.5 41t-191 124t-120 205t-40.5 279v848h258zM913 1610h-120l-285 348h201z" />
<glyph unicode="&#xda;" horiz-adv-x="1511" d="M422 1450v-846q0 -210 89.5 -317t262.5 -107q113 0 191 48t117.5 144.5t39.5 237.5v840h228v-844q0 -206 -72.5 -354t-204 -223.5t-305.5 -75.5q-141 0 -252.5 41t-191 124t-120 205t-40.5 279v848h258zM627 1610l204 348h201l-285 -348h-120z" />
<glyph unicode="&#xdb;" horiz-adv-x="1511" d="M422 1450v-846q0 -210 89.5 -317t262.5 -107q113 0 191 48t117.5 144.5t39.5 237.5v840h228v-844q0 -206 -72.5 -354t-204 -223.5t-305.5 -75.5q-141 0 -252.5 41t-191 124t-120 205t-40.5 279v848h258zM475 1610l197 348h196l197 -348h-123l-172 229l-174 -229h-121z " />
<glyph unicode="&#xdc;" horiz-adv-x="1511" d="M422 1450v-846q0 -210 89.5 -317t262.5 -107q113 0 191 48t117.5 144.5t39.5 237.5v840h228v-844q0 -206 -72.5 -354t-204 -223.5t-305.5 -75.5q-141 0 -252.5 41t-191 124t-120 205t-40.5 279v848h258zM475 1774q0 46 34 79t81 33q45 0 77.5 -32.5t32.5 -79.5 q0 -48 -31.5 -80.5t-78.5 -32.5q-48 0 -81.5 32.5t-33.5 80.5zM840 1774q0 28 15 54.5t41.5 42t55.5 15.5t56 -15t42 -42t15 -55q0 -50 -32.5 -81.5t-80.5 -31.5q-46 0 -79 33t-33 80z" />
<glyph unicode="&#xdd;" horiz-adv-x="1233" d="M479 0v659l-538 791h299l385 -573l417 573h275l-582 -786v-664h-256zM473 1610l204 348h201l-285 -348h-120z" />
<glyph unicode="&#xde;" horiz-adv-x="1200" d="M180 1450h252v-283h84q158 0 263.5 -21t189.5 -83q81 -58 125.5 -143.5t44.5 -180.5q0 -140 -71 -243.5t-208.5 -160t-327.5 -56.5q-30 0 -100 4v-283h-252v1450zM432 952v-454h115q167 0 252.5 59t85.5 172q0 119 -89 171t-272 52h-92z" />
<glyph unicode="&#xdf;" horiz-adv-x="1147" d="M131 0v858q0 152 13 247t55 165q59 98 155.5 149t220.5 51q104 0 191 -47t136.5 -130t49.5 -187q0 -102 -46.5 -175.5t-141.5 -119.5q70 -16 127.5 -54.5t97.5 -93t60 -124t20 -152.5q0 -94 -28.5 -171.5t-79.5 -134.5t-120.5 -88.5t-148.5 -31.5t-184 39v205 q71 -58 131 -58q84 0 135 73t51 202q0 83 -31 147t-89 101.5t-144 46.5v166q187 36 187 200q0 92 -49.5 144.5t-131.5 52.5q-112 0 -155 -80.5t-43 -249.5v-950h-238z" />
<glyph unicode="&#xe0;" horiz-adv-x="1128" d="M809 -43l-16 70q-153 -68 -263 -68q-137 0 -242 60.5t-162.5 168.5t-57.5 246q0 143 64.5 257.5t173.5 179.5t235 65q106 0 239 -57l215 22v-629q0 -140 29 -272zM758 207v502q-103 53 -168 53q-83 0 -146 -40.5t-99 -117.5t-36 -178q0 -87 30.5 -151.5t89 -98 t136.5 -33.5q83 0 193 64zM755 1055h-120l-285 348h201z" />
<glyph unicode="&#xe1;" horiz-adv-x="1128" d="M809 -43l-16 70q-153 -68 -263 -68q-137 0 -242 60.5t-162.5 168.5t-57.5 246q0 143 64.5 257.5t173.5 179.5t235 65q106 0 239 -57l215 22v-629q0 -140 29 -272zM758 207v502q-103 53 -168 53q-83 0 -146 -40.5t-99 -117.5t-36 -178q0 -87 30.5 -151.5t89 -98 t136.5 -33.5q83 0 193 64zM469 1055l204 348h201l-285 -348h-120z" />
<glyph unicode="&#xe2;" horiz-adv-x="1128" d="M809 -43l-16 70q-153 -68 -263 -68q-137 0 -242 60.5t-162.5 168.5t-57.5 246q0 143 64.5 257.5t173.5 179.5t235 65q106 0 239 -57l215 22v-629q0 -140 29 -272zM758 207v502q-103 53 -168 53q-83 0 -146 -40.5t-99 -117.5t-36 -178q0 -87 30.5 -151.5t89 -98 t136.5 -33.5q83 0 193 64zM317 1055l197 348h196l197 -348h-123l-172 229l-174 -229h-121z" />
<glyph unicode="&#xe3;" horiz-adv-x="1128" d="M809 -43l-16 70q-153 -68 -263 -68q-137 0 -242 60.5t-162.5 168.5t-57.5 246q0 143 64.5 257.5t173.5 179.5t235 65q106 0 239 -57l215 22v-629q0 -140 29 -272zM758 207v502q-103 53 -168 53q-83 0 -146 -40.5t-99 -117.5t-36 -178q0 -87 30.5 -151.5t89 -98 t136.5 -33.5q83 0 193 64zM905 1333q-20 -103 -70.5 -156t-126.5 -53q-30 0 -65 11l-97 26q-27 8 -49 8q-62 0 -90 -67h-88q20 101 69.5 153t123.5 52q36 0 59 -9l98 -28q38 -10 54 -10q66 0 94 73h88z" />
<glyph unicode="&#xe4;" horiz-adv-x="1128" d="M809 -43l-16 70q-153 -68 -263 -68q-137 0 -242 60.5t-162.5 168.5t-57.5 246q0 143 64.5 257.5t173.5 179.5t235 65q106 0 239 -57l215 22v-629q0 -140 29 -272zM758 207v502q-103 53 -168 53q-83 0 -146 -40.5t-99 -117.5t-36 -178q0 -87 30.5 -151.5t89 -98 t136.5 -33.5q83 0 193 64zM317 1219q0 46 34 79t81 33q45 0 77.5 -32.5t32.5 -79.5q0 -48 -31.5 -80.5t-78.5 -32.5q-48 0 -81.5 32.5t-33.5 80.5zM682 1219q0 28 15 54.5t41.5 42t55.5 15.5t56 -15t42 -42t15 -55q0 -50 -32.5 -81.5t-80.5 -31.5q-46 0 -79 33t-33 80z" />
<glyph unicode="&#xe5;" horiz-adv-x="1128" d="M809 -43l-16 70q-153 -68 -263 -68q-137 0 -242 60.5t-162.5 168.5t-57.5 246q0 143 64.5 257.5t173.5 179.5t235 65q106 0 239 -57l215 22v-629q0 -140 29 -272zM758 207v502q-103 53 -168 53q-83 0 -146 -40.5t-99 -117.5t-36 -178q0 -87 30.5 -151.5t89 -98 t136.5 -33.5q83 0 193 64zM510 1247q0 -49 36 -86t85 -37q50 0 87.5 36.5t37.5 86.5q0 53 -37 88t-88 35q-50 0 -85.5 -35.5t-35.5 -87.5zM395 1247q0 64 31.5 119t85.5 86t119 31q66 0 120 -31t85.5 -84.5t31.5 -120.5t-31.5 -120.5t-85 -85t-120.5 -31.5 q-66 0 -119.5 31.5t-85 86.5t-31.5 119z" />
<glyph unicode="&#xe6;" horiz-adv-x="1602" d="M156 870q180 72 362 72q173 0 289 -98q134 98 299 98q129 0 225.5 -49t149.5 -139t53 -205q0 -22 -4 -92l-23 -35l-649 -23q6 -117 80.5 -184.5t200.5 -67.5q77 0 160 28.5t196 86.5l-22 -217q-202 -84 -367 -84q-186 0 -311 105q-86 -52 -190.5 -78.5t-213.5 -26.5 q-155 0 -243.5 74.5t-88.5 197.5q0 107 51 168t148.5 87t255.5 34l115 4v70q0 81 -44.5 118.5t-148.5 37.5q-142 0 -280 -78v196zM629 188v203l-127 -4q-119 -5 -173.5 -33.5t-54.5 -97.5q0 -47 42.5 -78t115.5 -31q93 0 197 41zM862 532l447 21v10q0 55 -26 98t-72.5 67 t-104.5 24q-48 0 -89.5 -14.5t-72.5 -42.5t-52 -69t-30 -94z" />
<glyph unicode="&#xe7;" horiz-adv-x="991" d="M893 43q-141 -84 -311 -84q-150 0 -267 62t-182 174.5t-65 255.5q0 99 39.5 189t113.5 159.5t172 107t213 37.5q135 0 309 -65l-26 -203q-156 67 -258 67q-73 0 -131 -20.5t-99.5 -61t-62.5 -94t-21 -118.5q0 -132 87 -210.5t231 -78.5q137 0 285 96zM297 -426v100 q162 -39 246 -39q121 0 121 82q0 86 -127 86q-33 0 -60 -2v199h76v-102h29q109 0 166 -46t57 -135q0 -90 -63.5 -139t-186.5 -49q-100 0 -258 45z" />
<glyph unicode="&#xe8;" horiz-adv-x="1053" d="M946 262l-24 -217q-69 -29 -130 -48t-117.5 -28.5t-117.5 -9.5q-102 0 -192 36t-156.5 103t-103.5 156.5t-37 196.5t37 197t102.5 155.5t156.5 102t193 36.5q128 0 224.5 -49t149 -139t52.5 -205q0 -22 -4 -92l-23 -37l-649 -23q9 -119 82.5 -184.5t198.5 -65.5 q78 0 164.5 28.5t193.5 86.5zM311 530l447 21v12q0 56 -25.5 98.5t-71 66.5t-104.5 24q-98 0 -162 -57.5t-84 -164.5zM706 1055h-120l-285 348h201z" />
<glyph unicode="&#xe9;" horiz-adv-x="1053" d="M946 262l-24 -217q-69 -29 -130 -48t-117.5 -28.5t-117.5 -9.5q-102 0 -192 36t-156.5 103t-103.5 156.5t-37 196.5t37 197t102.5 155.5t156.5 102t193 36.5q128 0 224.5 -49t149 -139t52.5 -205q0 -22 -4 -92l-23 -37l-649 -23q9 -119 82.5 -184.5t198.5 -65.5 q78 0 164.5 28.5t193.5 86.5zM311 530l447 21v12q0 56 -25.5 98.5t-71 66.5t-104.5 24q-98 0 -162 -57.5t-84 -164.5zM420 1055l204 348h201l-285 -348h-120z" />
<glyph unicode="&#xea;" horiz-adv-x="1053" d="M946 262l-24 -217q-69 -29 -130 -48t-117.5 -28.5t-117.5 -9.5q-102 0 -192 36t-156.5 103t-103.5 156.5t-37 196.5t37 197t102.5 155.5t156.5 102t193 36.5q128 0 224.5 -49t149 -139t52.5 -205q0 -22 -4 -92l-23 -37l-649 -23q9 -119 82.5 -184.5t198.5 -65.5 q78 0 164.5 28.5t193.5 86.5zM311 530l447 21v12q0 56 -25.5 98.5t-71 66.5t-104.5 24q-98 0 -162 -57.5t-84 -164.5zM268 1055l197 348h196l197 -348h-123l-172 229l-174 -229h-121z" />
<glyph unicode="&#xeb;" horiz-adv-x="1053" d="M946 262l-24 -217q-69 -29 -130 -48t-117.5 -28.5t-117.5 -9.5q-102 0 -192 36t-156.5 103t-103.5 156.5t-37 196.5t37 197t102.5 155.5t156.5 102t193 36.5q128 0 224.5 -49t149 -139t52.5 -205q0 -22 -4 -92l-23 -37l-649 -23q9 -119 82.5 -184.5t198.5 -65.5 q78 0 164.5 28.5t193.5 86.5zM311 530l447 21v12q0 56 -25.5 98.5t-71 66.5t-104.5 24q-98 0 -162 -57.5t-84 -164.5zM268 1219q0 46 34 79t81 33q45 0 77.5 -32.5t32.5 -79.5q0 -48 -31.5 -80.5t-78.5 -32.5q-48 0 -81.5 32.5t-33.5 80.5zM633 1219q0 28 15 54.5t41.5 42 t55.5 15.5t56 -15t42 -42t15 -55q0 -50 -32.5 -81.5t-80.5 -31.5q-46 0 -79 33t-33 80z" />
<glyph unicode="&#xec;" horiz-adv-x="508" d="M375 0h-242v901l242 43v-944zM405 1055h-120l-285 348h201z" />
<glyph unicode="&#xed;" horiz-adv-x="508" d="M375 0h-242v901l242 43v-944zM119 1055l204 348h201l-285 -348h-120z" />
<glyph unicode="&#xee;" horiz-adv-x="508" d="M375 0h-242v901l242 43v-944zM-33 1055l197 348h196l197 -348h-123l-172 229l-174 -229h-121z" />
<glyph unicode="&#xef;" horiz-adv-x="508" d="M375 0h-242v901l242 43v-944zM-33 1219q0 46 34 79t81 33q45 0 77.5 -32.5t32.5 -79.5q0 -48 -31.5 -80.5t-78.5 -32.5q-48 0 -81.5 32.5t-33.5 80.5zM332 1219q0 28 15 54.5t41.5 42t55.5 15.5t56 -15t42 -42t15 -55q0 -50 -32.5 -81.5t-80.5 -31.5q-46 0 -79 33t-33 80 z" />
<glyph unicode="&#xf0;" horiz-adv-x="1114" d="M557 752q-106 0 -176 -82.5t-70 -220.5q0 -137 69 -219.5t177 -82.5q109 0 176.5 85t67.5 229q0 92 -30 157t-85.5 99.5t-128.5 34.5zM670 915q-86 126 -156 209l-299 -153l-51 100l270 137q-29 35 -151 148l127 123l83 -72l121 -107l242 123l51 -100l-207 -104 q344 -359 344 -740q0 -121 -35 -217t-101 -164t-154 -103.5t-197 -35.5q-140 0 -251 62.5t-174.5 175.5t-63.5 254q0 104 33.5 193t96.5 153t150 99.5t195 35.5q57 0 127 -17z" />
<glyph unicode="&#xf1;" horiz-adv-x="1133" d="M365 0h-238v901h221v-151q146 176 350 176q100 0 170 -36.5t106 -108.5t36 -177v-604h-238v553q0 168 -162 168q-116 0 -180.5 -55.5t-64.5 -161.5v-504zM889 1333q-20 -103 -70.5 -156t-126.5 -53q-30 0 -65 11l-97 26q-27 8 -49 8q-62 0 -90 -67h-88q20 101 69.5 153 t123.5 52q36 0 59 -9l98 -28q38 -10 54 -10q66 0 94 73h88z" />
<glyph unicode="&#xf2;" horiz-adv-x="1114" d="M68 451q0 107 37 197t102.5 155.5t156.5 102t193 36.5q139 0 250 -62.5t174 -175t63 -253.5q0 -140 -63 -253.5t-174 -176t-250 -62.5q-102 0 -192 36t-156.5 103t-103.5 156.5t-37 196.5zM311 449q0 -137 69 -219.5t177 -82.5q69 0 125 37.5t87.5 107.5t31.5 157 q0 89 -31.5 159t-87 107t-125.5 37q-106 0 -176 -82.5t-70 -220.5zM700 1055h-120l-285 348h201z" />
<glyph unicode="&#xf3;" horiz-adv-x="1114" d="M68 451q0 107 37 197t102.5 155.5t156.5 102t193 36.5q139 0 250 -62.5t174 -175t63 -253.5q0 -140 -63 -253.5t-174 -176t-250 -62.5q-102 0 -192 36t-156.5 103t-103.5 156.5t-37 196.5zM311 449q0 -137 69 -219.5t177 -82.5q69 0 125 37.5t87.5 107.5t31.5 157 q0 89 -31.5 159t-87 107t-125.5 37q-106 0 -176 -82.5t-70 -220.5zM414 1055l204 348h201l-285 -348h-120z" />
<glyph unicode="&#xf4;" horiz-adv-x="1114" d="M68 451q0 107 37 197t102.5 155.5t156.5 102t193 36.5q139 0 250 -62.5t174 -175t63 -253.5q0 -140 -63 -253.5t-174 -176t-250 -62.5q-102 0 -192 36t-156.5 103t-103.5 156.5t-37 196.5zM311 449q0 -137 69 -219.5t177 -82.5q69 0 125 37.5t87.5 107.5t31.5 157 q0 89 -31.5 159t-87 107t-125.5 37q-106 0 -176 -82.5t-70 -220.5zM262 1055l197 348h196l197 -348h-123l-172 229l-174 -229h-121z" />
<glyph unicode="&#xf5;" horiz-adv-x="1114" d="M68 451q0 107 37 197t102.5 155.5t156.5 102t193 36.5q139 0 250 -62.5t174 -175t63 -253.5q0 -140 -63 -253.5t-174 -176t-250 -62.5q-102 0 -192 36t-156.5 103t-103.5 156.5t-37 196.5zM311 449q0 -137 69 -219.5t177 -82.5q69 0 125 37.5t87.5 107.5t31.5 157 q0 89 -31.5 159t-87 107t-125.5 37q-106 0 -176 -82.5t-70 -220.5zM850 1333q-20 -103 -70.5 -156t-126.5 -53q-30 0 -65 11l-97 26q-27 8 -49 8q-62 0 -90 -67h-88q20 101 69.5 153t123.5 52q36 0 59 -9l98 -28q38 -10 54 -10q66 0 94 73h88z" />
<glyph unicode="&#xf6;" horiz-adv-x="1114" d="M68 451q0 107 37 197t102.5 155.5t156.5 102t193 36.5q139 0 250 -62.5t174 -175t63 -253.5q0 -140 -63 -253.5t-174 -176t-250 -62.5q-102 0 -192 36t-156.5 103t-103.5 156.5t-37 196.5zM311 449q0 -137 69 -219.5t177 -82.5q69 0 125 37.5t87.5 107.5t31.5 157 q0 89 -31.5 159t-87 107t-125.5 37q-106 0 -176 -82.5t-70 -220.5zM262 1219q0 46 34 79t81 33q45 0 77.5 -32.5t32.5 -79.5q0 -48 -31.5 -80.5t-78.5 -32.5q-48 0 -81.5 32.5t-33.5 80.5zM627 1219q0 28 15 54.5t41.5 42t55.5 15.5t56 -15t42 -42t15 -55q0 -50 -32.5 -81.5 t-80.5 -31.5q-46 0 -79 33t-33 80z" />
<glyph unicode="&#xf7;" horiz-adv-x="1706" d="M854 1128q56 0 96.5 -40.5t40.5 -98.5q0 -56 -39.5 -95.5t-97.5 -39.5q-57 0 -97 39t-40 96t41 98t96 41zM254 694h1198v-166h-1198v166zM854 367q57 0 97 -40t40 -98q0 -54 -40.5 -94.5t-96.5 -40.5q-57 0 -97 40t-40 95q0 57 40.5 97.5t96.5 40.5z" />
<glyph unicode="&#xf8;" horiz-adv-x="1114" d="M334 311l354 400q-66 41 -131 41q-69 0 -125 -36.5t-88.5 -105t-32.5 -159.5q0 -71 23 -140zM776 594l-352 -406q71 -41 133 -41q70 0 125.5 38.5t88 108.5t32.5 161q0 64 -27 139zM-10 -78l186 207q-108 136 -108 322q0 107 37 197t102.5 155.5t156.5 102t193 36.5 q148 0 268 -74l90 101h191l-172 -197q110 -136 110 -321q0 -140 -63 -253.5t-174 -176t-250 -62.5q-141 0 -272 76l-99 -113h-196z" />
<glyph unicode="&#xf9;" horiz-adv-x="1130" d="M123 901h237v-563q0 -168 164 -168q116 0 180 55t64 162v514h238v-901l-215 -43l-9 182q-147 -174 -348 -174q-152 0 -231.5 82t-79.5 240v614zM714 1055h-120l-285 348h201z" />
<glyph unicode="&#xfa;" horiz-adv-x="1130" d="M123 901h237v-563q0 -168 164 -168q116 0 180 55t64 162v514h238v-901l-215 -43l-9 182q-147 -174 -348 -174q-152 0 -231.5 82t-79.5 240v614zM428 1055l204 348h201l-285 -348h-120z" />
<glyph unicode="&#xfb;" horiz-adv-x="1130" d="M123 901h237v-563q0 -168 164 -168q116 0 180 55t64 162v514h238v-901l-215 -43l-9 182q-147 -174 -348 -174q-152 0 -231.5 82t-79.5 240v614zM276 1055l197 348h196l197 -348h-123l-172 229l-174 -229h-121z" />
<glyph unicode="&#xfc;" horiz-adv-x="1130" d="M123 901h237v-563q0 -168 164 -168q116 0 180 55t64 162v514h238v-901l-215 -43l-9 182q-147 -174 -348 -174q-152 0 -231.5 82t-79.5 240v614zM276 1219q0 46 34 79t81 33q45 0 77.5 -32.5t32.5 -79.5q0 -48 -31.5 -80.5t-78.5 -32.5q-48 0 -81.5 32.5t-33.5 80.5z M641 1219q0 28 15 54.5t41.5 42t55.5 15.5t56 -15t42 -42t15 -55q0 -50 -32.5 -81.5t-80.5 -31.5q-46 0 -79 33t-33 80z" />
<glyph unicode="&#xfd;" horiz-adv-x="915" d="M334 -436h-240q85 95 185 303l61 133l-330 901h256l205 -582l250 582h201zM316 1055l204 348h201l-285 -348h-120z" />
<glyph unicode="&#xfe;" horiz-adv-x="1128" d="M371 -381l-238 -53v1861l238 43v-569q102 35 219 35q101 0 187.5 -35t150 -99t98.5 -152.5t35 -196.5q0 -147 -65.5 -260t-185.5 -173.5t-282 -60.5q-77 0 -157 14v-354zM371 733v-583q74 -21 141 -21q91 0 160 40t107 113.5t38 172.5q0 140 -78 223.5t-202 83.5 q-79 0 -166 -29z" />
<glyph unicode="&#xff;" horiz-adv-x="915" d="M334 -436h-240q85 95 185 303l61 133l-330 901h256l205 -582l250 582h201zM164 1219q0 46 34 79t81 33q45 0 77.5 -32.5t32.5 -79.5q0 -48 -31.5 -80.5t-78.5 -32.5q-48 0 -81.5 32.5t-33.5 80.5zM529 1219q0 28 15 54.5t41.5 42t55.5 15.5t56 -15t42 -42t15 -55 q0 -50 -32.5 -81.5t-80.5 -31.5q-46 0 -79 33t-33 80z" />
<glyph unicode="&#x131;" horiz-adv-x="508" d="M375 0h-242v901l242 43v-944z" />
<glyph unicode="&#x152;" horiz-adv-x="1878" d="M913 225v1002q-48 4 -71 4q-117 0 -209 -35t-156.5 -100.5t-99.5 -161t-35 -207.5t34.5 -206t100 -160.5t159 -102t212.5 -35.5q43 0 65 2zM903 0q-112 0 -205 11t-173.5 37.5t-143.5 70.5q-98 66 -164.5 157t-101.5 205t-35 244q0 129 35 244.5t102.5 207.5t163.5 158 q66 46 147 72t173 34.5t202 8.5h850v-223h-594v-357h512v-221h-512v-424h604v-225h-860z" />
<glyph unicode="&#x153;" horiz-adv-x="1774" d="M918 109q-80 -77 -167.5 -113.5t-193.5 -36.5q-137 0 -248.5 62t-176 174.5t-64.5 255.5q0 142 63.5 254t174.5 174.5t251 62.5q205 0 361 -149q77 76 165 112.5t193 36.5q129 0 225.5 -49t149.5 -139t53 -205q0 -22 -4 -92l-23 -35l-649 -23q6 -117 80.5 -184.5 t200.5 -67.5q59 0 118.5 15.5t106.5 36t131 63.5l-23 -217q-66 -28 -129 -47.5t-120 -29t-117 -9.5q-72 0 -133 16t-116 48.5t-109 85.5zM1032 532l445 23v16q0 80 -57.5 130.5t-145.5 50.5q-46 0 -86.5 -14t-73 -43.5t-53 -69.5t-29.5 -93zM311 449q0 -137 69 -219.5 t177 -82.5q69 0 125 37.5t87.5 107.5t31.5 157q0 89 -31.5 159t-87 107t-125.5 37q-106 0 -176 -82.5t-70 -220.5z" />
<glyph unicode="&#x178;" horiz-adv-x="1233" d="M479 0v659l-538 791h299l385 -573l417 573h275l-582 -786v-664h-256zM321 1774q0 46 34 79t81 33q45 0 77.5 -32.5t32.5 -79.5q0 -48 -31.5 -80.5t-78.5 -32.5q-48 0 -81.5 32.5t-33.5 80.5zM686 1774q0 28 15 54.5t41.5 42t55.5 15.5t56 -15t42 -42t15 -55 q0 -50 -32.5 -81.5t-80.5 -31.5q-46 0 -79 33t-33 80z" />
<glyph unicode="&#x2c6;" horiz-adv-x="1024" d="M217 1055l197 348h196l197 -348h-123l-172 229l-174 -229h-121z" />
<glyph unicode="&#x2dc;" horiz-adv-x="1024" d="M805 1333q-20 -103 -70.5 -156t-126.5 -53q-30 0 -65 11l-97 26q-27 8 -49 8q-62 0 -90 -67h-88q20 101 69.5 153t123.5 52q36 0 59 -9l98 -28q38 -10 54 -10q66 0 94 73h88z" />
<glyph unicode="&#x2000;" horiz-adv-x="986" />
<glyph unicode="&#x2001;" horiz-adv-x="1972" />
<glyph unicode="&#x2002;" horiz-adv-x="986" />
<glyph unicode="&#x2003;" horiz-adv-x="1972" />
<glyph unicode="&#x2004;" horiz-adv-x="657" />
<glyph unicode="&#x2005;" horiz-adv-x="493" />
<glyph unicode="&#x2006;" horiz-adv-x="328" />
<glyph unicode="&#x2007;" horiz-adv-x="328" />
<glyph unicode="&#x2008;" horiz-adv-x="246" />
<glyph unicode="&#x2009;" horiz-adv-x="394" />
<glyph unicode="&#x200a;" horiz-adv-x="109" />
<glyph unicode="&#x2010;" horiz-adv-x="682" d="M80 344v213h522v-213h-522z" />
<glyph unicode="&#x2011;" horiz-adv-x="682" d="M80 344v213h522v-213h-522z" />
<glyph unicode="&#x2013;" horiz-adv-x="1024" d="M0 371v159h1024v-159h-1024z" />
<glyph unicode="&#x2014;" horiz-adv-x="2048" d="M0 530h2048v-159h-2048v159z" />
<glyph unicode="&#x2018;" horiz-adv-x="588" d="M496 1450l-172 -528h-232l207 528h197z" />
<glyph unicode="&#x2019;" horiz-adv-x="588" d="M496 1450l-172 -528h-232l207 528h197z" />
<glyph unicode="&#x201a;" horiz-adv-x="588" d="M444 188l-172 -528h-231l207 528h196z" />
<glyph unicode="&#x201c;" horiz-adv-x="967" d="M496 1450l-172 -528h-232l207 528h197zM874 1450l-172 -528h-231l207 528h196z" />
<glyph unicode="&#x201d;" horiz-adv-x="967" d="M496 1450l-172 -528h-232l207 528h197zM874 1450l-172 -528h-231l207 528h196z" />
<glyph unicode="&#x201e;" horiz-adv-x="967" d="M434 188l-172 -528h-231l207 528h196zM813 188l-172 -528h-231l206 528h197z" />
<glyph unicode="&#x2022;" horiz-adv-x="1208" d="M307 762q0 79 39.5 147.5t108 108t149.5 39.5q80 0 147.5 -39.5t107.5 -108t40 -147.5t-40 -147.5t-108.5 -109t-148.5 -40.5q-79 0 -147.5 39.5t-108 108t-39.5 149.5z" />
<glyph unicode="&#x2026;" horiz-adv-x="2048" d="M211 104q0 53 38.5 92.5t90.5 39.5q37 0 66.5 -17t47 -48t17.5 -67q0 -54 -38.5 -91.5t-92.5 -37.5q-52 0 -90.5 38.5t-38.5 90.5zM893 104q0 53 38.5 92.5t90.5 39.5q37 0 66.5 -17t47 -48t17.5 -67q0 -54 -38.5 -91.5t-92.5 -37.5q-52 0 -90.5 38.5t-38.5 90.5z M1577 104q0 53 38.5 92.5t90.5 39.5q37 0 66.5 -17t47 -48t17.5 -67q0 -54 -38.5 -91.5t-92.5 -37.5q-52 0 -90.5 38.5t-38.5 90.5z" />
<glyph unicode="&#x202f;" horiz-adv-x="394" />
<glyph unicode="&#x2039;" horiz-adv-x="616" d="M547 764l-244 -313l244 -314h-223l-254 314l254 313h223z" />
<glyph unicode="&#x203a;" horiz-adv-x="616" d="M70 137l243 314l-243 313h223l254 -313l-254 -314h-223z" />
<glyph unicode="&#x205f;" horiz-adv-x="493" />
<glyph unicode="&#x2122;" horiz-adv-x="1706" d="M225 1460h467v-94h-168v-448h-129v448h-170v94zM809 1460h170l141 -360l133 360h170v-542h-114v428l-160 -428h-59l-166 428v-428h-115v542z" />
</font>
</defs>
</svg>
